<?xml version="1.0" encoding="UTF-8"?>
<svg width="16px" height="16px" viewBox="0 0 16 16" version="1.1" xmlns="http://www.w3.org/2000/svg" xmlns:xlink="http://www.w3.org/1999/xlink">
    <title>icon/digital experience/elements/layout/columns/16</title>
    <g id="icon/digital-experience/elements/layout/columns/16" stroke="none" stroke-width="1" fill="none" fill-rule="evenodd">
        <path d="M13,1.5 C13.5522847,1.5 14,1.94771525 14,2.5 L14,13.5 C14,14.0522847 13.5522847,14.5 13,14.5 L10,14.5 C9.44771525,14.5 9,14.0522847 9,13.5 L9,2.5 C9,1.94771525 9.44771525,1.5 10,1.5 L13,1.5 Z M6,1.5 C6.55228475,1.5 7,1.94771525 7,2.5 L7,13.5 C7,14.0522847 6.55228475,14.5 6,14.5 L3,14.5 C2.44771525,14.5 2,14.0522847 2,13.5 L2,2.5 C2,1.94771525 2.44771525,1.5 3,1.5 L6,1.5 Z M13,2.5 L10,2.5 L10,13.5 L13,13.5 L13,2.5 Z M6,2.5 L3,2.5 L3,13.5 L6,13.5 L6,2.5 Z" id="icon-color" fill="#3D5466"></path>
    </g>
</svg>