<?xml version="1.0" encoding="UTF-8"?>
<svg width="24px" height="24px" viewBox="0 0 24 24" version="1.1" xmlns="http://www.w3.org/2000/svg" xmlns:xlink="http://www.w3.org/1999/xlink">
    <title>icon/digital experience/elements/layout/columns/24</title>
    <g id="icon/digital-experience/elements/layout/columns/24" stroke="none" stroke-width="1" fill="none" fill-rule="evenodd">
        <path d="M19.5,2.25 C20.3284271,2.25 21,2.92157288 21,3.75 L21,20.25 C21,21.0784271 20.3284271,21.75 19.5,21.75 L15,21.75 C14.1715729,21.75 13.5,21.0784271 13.5,20.25 L13.5,3.75 C13.5,2.92157288 14.1715729,2.25 15,2.25 L19.5,2.25 Z M9,2.25 C9.82842712,2.25 10.5,2.92157288 10.5,3.75 L10.5,20.25 C10.5,21.0784271 9.82842712,21.75 9,21.75 L4.5,21.75 C3.67157288,21.75 3,21.0784271 3,20.25 L3,3.75 C3,2.92157288 3.67157288,2.25 4.5,2.25 L9,2.25 Z M19.5,3.75 L15,3.75 L15,20.25 L19.5,20.25 L19.5,3.75 Z M9,3.75 L4.5,3.75 L4.5,20.25 L9,20.25 L9,3.75 Z" id="icon-color" fill="#3D5466"></path>
    </g>
</svg>