<svg width="16" height="16" viewBox="0 0 16 16" fill="none" xmlns="http://www.w3.org/2000/svg">
<path d="M6 9.5H4.5V11H6V9.5Z" fill="black"/>
<path d="M11.5 5H4.5V6.5H11.5V5Z" fill="black"/>
<path fill-rule="evenodd" clip-rule="evenodd" d="M13.5 1.5C14.0523 1.5 14.5 1.94772 14.5 2.5V13.5C14.5 14.0523 14.0523 14.5 13.5 14.5H2.5C1.94772 14.5 1.5 14.0523 1.5 13.5V2.5C1.5 1.94772 1.94772 1.5 2.5 1.5H13.5ZM12.5 11V12H8V11H12.5ZM6 8.5C6.55228 8.5 7 8.94772 7 9.5V11C7 11.5523 6.55228 12 6 12H4.5C3.94772 12 3.5 11.5523 3.5 11V9.5C3.5 8.94772 3.94772 8.5 4.5 8.5H6ZM12.5 8.5V9.5H8V8.5H12.5ZM11.5 4C12.0523 4 12.5 4.44772 12.5 5V6.5C12.5 7.05228 12.0523 7.5 11.5 7.5H4.5C3.94772 7.5 3.5 7.05228 3.5 6.5V5C3.5 4.44772 3.94772 4 4.5 4H11.5Z" fill="black"/>
</svg>
