<svg width="32" height="32" viewBox="0 0 32 32" fill="none" xmlns="http://www.w3.org/2000/svg">
<path d="M12 19H9V22H12V19Z" fill="black"/>
<path d="M23 10H9V13H23V10Z" fill="black"/>
<path fill-rule="evenodd" clip-rule="evenodd" d="M27 3C28.1046 3 29 3.89543 29 5V27C29 28.1046 28.1046 29 27 29H5C3.89543 29 3 28.1046 3 27V5C3 3.89543 3.89543 3 5 3H27ZM25 22V24H16V22H25ZM12 17C13.1046 17 14 17.8954 14 19V22C14 23.1046 13.1046 24 12 24H9C7.89543 24 7 23.1046 7 22V19C7 17.8954 7.89543 17 9 17H12ZM25 17V19H16V17H25ZM23 8C24.1046 8 25 8.89543 25 10V13C25 14.1046 24.1046 15 23 15H9C7.89543 15 7 14.1046 7 13V10C7 8.89543 7.89543 8 9 8H23Z" fill="black"/>
</svg>
