<svg width="16" height="16" viewBox="0 0 16 16" fill="none" xmlns="http://www.w3.org/2000/svg">
<path d="M11.7501 11H4.25005C3.44825 10.995 2.67663 10.6937 2.08354 10.1541C1.49045 9.61449 1.11776 8.87471 1.03712 8.07697C0.956473 7.27922 1.17357 6.47982 1.64668 5.83246C2.11978 5.18509 2.81549 4.73547 3.60005 4.57003C3.81591 3.56329 4.37047 2.66102 5.17121 2.01376C5.97195 1.36651 6.97043 1.01343 8.00005 1.01343C9.02967 1.01343 10.0282 1.36651 10.8289 2.01376C11.6296 2.66102 12.1842 3.56329 12.4001 4.57003C13.1846 4.73547 13.8803 5.18509 14.3534 5.83246C14.8265 6.47982 15.0436 7.27922 14.963 8.07697C14.8823 8.87471 14.5096 9.61449 13.9166 10.1541C13.3235 10.6937 12.5518 10.995 11.7501 11ZM8.00005 2.00003C7.14686 2.00088 6.32337 2.31334 5.68436 2.87868C5.04536 3.44402 4.63487 4.2233 4.53005 5.07003L4.50005 5.50003H4.07005C3.47331 5.5239 2.9105 5.78384 2.50542 6.22268C2.10034 6.66151 1.88618 7.24329 1.91005 7.84003C1.93392 8.43677 2.19387 8.99958 2.6327 9.40466C3.07154 9.80974 3.65331 10.0239 4.25005 10H11.7501C12.3468 10.0239 12.9286 9.80974 13.3674 9.40466C13.8062 8.99958 14.0662 8.43677 14.0901 7.84003C14.1139 7.24329 13.8998 6.66151 13.4947 6.22268C13.0896 5.78384 12.5268 5.5239 11.9301 5.50003H11.5001L11.4501 5.09003C11.3502 4.24309 10.9445 3.46175 10.3092 2.89278C9.67398 2.3238 8.85284 2.00634 8.00005 2.00003ZM6.00005 12.525L5.47505 12L4.75005 12.725L4.02505 12L3.50005 12.525L4.22505 13.25L3.50005 13.975L4.02505 14.5L4.75005 13.775L5.47505 14.5L6.00005 13.975L5.27505 13.25L6.00005 12.525ZM13.0001 12.525L12.4751 12L11.7501 12.725L11.0251 12L10.5001 12.525L11.2251 13.25L10.5001 13.975L11.0251 14.5L11.7501 13.775L12.4751 14.5L13.0001 13.975L12.2751 13.25L13.0001 12.525ZM9.50005 13.525L8.97505 13L8.25005 13.725L7.52505 13L7.00005 13.525L7.72505 14.25L7.00005 14.975L7.52505 15.5L8.25005 14.775L8.97505 15.5L9.50005 14.975L8.77505 14.25L9.50005 13.525Z" fill="black"/>
</svg>
