<svg width="24" height="24" viewBox="0 0 24 24" fill="none" xmlns="http://www.w3.org/2000/svg">
<path d="M17.625 16.5H6.37502C5.17232 16.4924 4.01489 16.0404 3.12525 15.2311C2.23562 14.4217 1.67658 13.312 1.55561 12.1154C1.43465 10.9188 1.7603 9.71967 2.46996 8.74862C3.17961 7.77758 4.22318 7.10315 5.40002 6.85498C5.7238 5.34487 6.55564 3.99146 7.75675 3.02058C8.95786 2.04971 10.4556 1.52008 12 1.52008C13.5444 1.52008 15.0422 2.04971 16.2433 3.02058C17.4444 3.99146 18.2762 5.34487 18.6 6.85498C19.7769 7.10315 20.8204 7.77758 21.5301 8.74862C22.2397 9.71967 22.5654 10.9188 22.4444 12.1154C22.3235 13.312 21.7644 14.4217 20.8748 15.2311C19.9851 16.0404 18.8277 16.4924 17.625 16.5ZM12 2.99998C10.7202 3.00126 9.48499 3.46995 8.52649 4.31797C7.56799 5.16598 6.95225 6.3349 6.79502 7.60498L6.75002 8.24998H6.10502C5.20991 8.28579 4.36569 8.67571 3.75807 9.33396C3.15045 9.99221 2.82921 10.8649 2.86502 11.76C2.90082 12.6551 3.29074 13.4993 3.94899 14.1069C4.60724 14.7145 5.47991 15.0358 6.37502 15H17.625C18.5201 15.0358 19.3928 14.7145 20.051 14.1069C20.7093 13.4993 21.0992 12.6551 21.135 11.76C21.1708 10.8649 20.8496 9.99221 20.242 9.33396C19.6343 8.67571 18.7901 8.28579 17.895 8.24998H17.25L17.175 7.63498C17.0252 6.36457 16.4167 5.19256 15.4638 4.3391C14.5109 3.48564 13.2792 3.00945 12 2.99998ZM9.00002 18.7875L8.21252 18L7.12502 19.0875L6.03752 18L5.25002 18.7875L6.33752 19.875L5.25002 20.9625L6.03752 21.75L7.12502 20.6625L8.21252 21.75L9.00002 20.9625L7.91252 19.875L9.00002 18.7875ZM19.5 18.7875L18.7125 18L17.625 19.0875L16.5375 18L15.75 18.7875L16.8375 19.875L15.75 20.9625L16.5375 21.75L17.625 20.6625L18.7125 21.75L19.5 20.9625L18.4125 19.875L19.5 18.7875ZM14.25 20.2875L13.4625 19.5L12.375 20.5875L11.2875 19.5L10.5 20.2875L11.5875 21.375L10.5 22.4625L11.2875 23.25L12.375 22.1625L13.4625 23.25L14.25 22.4625L13.1625 21.375L14.25 20.2875Z" fill="black"/>
</svg>
