<svg width="16" height="16" viewBox="0 0 16 16" fill="none" xmlns="http://www.w3.org/2000/svg">
<path d="M5.499 13L5.5 14H4.5L4.499 13H5.499Z" fill="black"/>
<path d="M3 12.5V13H3.499L3.5 14H3C2.44772 14 2 13.5523 2 13V12.5H3Z" fill="black"/>
<path d="M7.499 13L7.5 14H6.5L6.499 13H7.499Z" fill="black"/>
<path d="M9.499 13L9.5 14H8.5L8.499 13H9.499Z" fill="black"/>
<path d="M11.499 13L11.5 14H10.5L10.499 13H11.499Z" fill="black"/>
<path d="M14 12.5V13C14 13.5523 13.5523 14 13 14H12.5L12.499 13H13V12.5H14Z" fill="black"/>
<path d="M14 10.5V11.5H13V10.5H14Z" fill="black"/>
<path d="M14 8.5V9.5H13V8.5H14Z" fill="black"/>
<path d="M3 8.499V9.499L2 9.5V8.5L3 8.499Z" fill="black"/>
<path d="M14 6.5V7.5H13V6.5H14Z" fill="black"/>
<path d="M3 6.499V7.499L2 7.5V6.5L3 6.499Z" fill="black"/>
<path d="M14 4.5V5.5H13V4.5H14Z" fill="black"/>
<path d="M3 4.499V5.499L2 5.5V4.5L3 4.499Z" fill="black"/>
<path d="M13 2C13.5523 2 14 2.44772 14 3V3.5H13V3H12.499L12.5 2H13Z" fill="black"/>
<path d="M3.5 2L3.499 3H3V3.499L2 3.5V3C2 2.44772 2.44772 2 3 2H3.5Z" fill="black"/>
<path d="M5.5 2L5.499 3H4.499L4.5 2H5.5Z" fill="black"/>
<path d="M7.5 2L7.499 3H6.499L6.5 2H7.5Z" fill="black"/>
<path d="M9.5 2L9.499 3H8.499L8.5 2H9.5Z" fill="black"/>
<path d="M11.5 2L11.499 3H10.499L10.5 2H11.5Z" fill="black"/>
<path d="M2 10.5L3 10.499V11.5H2V10.5Z" fill="black"/>
</svg>
