<svg width="16" height="16" viewBox="0 0 16 16" fill="none" xmlns="http://www.w3.org/2000/svg">
<path d="M14 3C14 2.45 13.55 2 13 2H11V1H10V2H6V1H5V2H3C2.45 2 2 2.45 2 3V13C2 13.55 2.45 14 3 14H5V13H3V3H5V4H6V3H10V4H11V3H13V7H14V3Z" fill="black"/>
<path fill-rule="evenodd" clip-rule="evenodd" d="M14.05 8V8.61342L6.83104 9.85096C6.35095 9.93326 6 10.3495 6 10.8366V12.0634C6 12.5505 6.35095 12.9667 6.83104 13.049L7 13.078V14C7 14.5523 7.44772 15 8 15H11C11.5523 15 12 14.5523 12 14V13.9352L14.05 14.2866V14.9H15.05V8H14.05ZM11 13.7637L8 13.2494V14H11V13.7637ZM7 10.8366L14.05 9.62801V13.272L7 12.0634V10.8366Z" fill="black"/>
</svg>
