<svg width="24" height="24" viewBox="0 0 24 24" fill="none" xmlns="http://www.w3.org/2000/svg">
<path d="M21 4.5C21 3.675 20.325 3 19.5 3H16.5V1.5H15V3H9V1.5H7.5V3H4.5C3.675 3 3 3.675 3 4.5V19.5C3 20.325 3.675 21 4.5 21H7.5V19.5H4.5V4.5H7.5V6H9V4.5H15V6H16.5V4.5H19.5V10.5H21V4.5Z" fill="black"/>
<path fill-rule="evenodd" clip-rule="evenodd" d="M21.075 12V12.9201L10.2466 14.7764C9.52642 14.8999 9 15.5242 9 16.2549V18.0951C9 18.8258 9.52642 19.4501 10.2466 19.5736L10.5 19.617V21C10.5 21.8284 11.1716 22.5 12 22.5H16.5C17.3284 22.5 18 21.8284 18 21V20.9027L21.075 21.4299V22.35H22.575V12H21.075ZM16.5 20.6456L12 19.8742V21H16.5V20.6456ZM10.5 16.2549L21.075 14.442V19.908L10.5 18.0951V16.2549Z" fill="black"/>
</svg>
