<svg width="32" height="32" viewBox="0 0 32 32" fill="none" xmlns="http://www.w3.org/2000/svg">
<path d="M28 6C28 4.9 27.1 4 26 4H22V2H20V4H12V2H10V4H6C4.9 4 4 4.9 4 6V26C4 27.1 4.9 28 6 28H10V26H6V6H10V8H12V6H20V8H22V6H26V14H28V6Z" fill="black"/>
<path fill-rule="evenodd" clip-rule="evenodd" d="M28.1 16V17.2268L13.6621 19.7019C12.7019 19.8665 12 20.699 12 21.6732V24.1268C12 25.101 12.7019 25.9335 13.6621 26.0981L14 26.156V28C14 29.1046 14.8954 30 16 30H22C23.1046 30 24 29.1046 24 28V27.8703L28.1 28.5732V29.8H30.1V16H28.1ZM22 27.5274L16 26.4989V28H22V27.5274ZM14 21.6732L28.1 19.256V26.544L14 24.1268V21.6732Z" fill="black"/>
</svg>
