<?xml version="1.0" encoding="UTF-8"?>
<svg width="16px" height="16px" viewBox="0 0 16 16" version="1.1" xmlns="http://www.w3.org/2000/svg" xmlns:xlink="http://www.w3.org/1999/xlink">
    <title>icon/digital experience/elements/form/button/16</title>
    <g id="icon/digital-experience/elements/form/button/16" stroke="none" stroke-width="1" fill="none" fill-rule="evenodd">
        <path d="M14,5.75 C14.5522847,5.75 15,6.19771525 15,6.75 L15,13.75 C15,14.3022847 14.5522847,14.75 14,14.75 L2,14.75 C1.44771525,14.75 1,14.3022847 1,13.75 L1,6.75 C1,6.19771525 1.44771525,5.75 2,5.75 L14,5.75 Z M14,6.75 L2,6.75 L2,13.75 L14,13.75 L14,6.75 Z M11,7.75 L11,7.895 L12,10.145 L12,7.75 L13,7.75 L13,12.75 L12,12.75 L12,12.606 L11,10.356 L11,12.75 L10,12.75 L10,7.75 L11,7.75 Z M9.5,7.75 L9.5,8.75 L8.5,8.75 L8.5,12.75 L7.5,12.75 L7.5,8.75 L6.5,8.75 L6.5,7.75 L9.5,7.75 Z M5,7.75 C5.55228475,7.75 6,8.19771525 6,8.75 L6,9.75 C6,9.93260372 5.9510565,10.1037761 5.86557226,10.2511143 C5.95127427,10.3969864 6,10.567803 6,10.75 L6,11.75 C6,12.3022847 5.55228475,12.75 5,12.75 L3,12.75 L3,7.75 L5,7.75 Z M5,10.75 L4,10.75 L4,11.75 L5,11.75 L5,10.75 Z M5,8.75 L4,8.75 L4,9.75 L5,9.75 L5,8.75 Z M7.5,3.25 L7.5,4.25 L1,4.25 L1,3.25 L7.5,3.25 Z M14,1.25 L14,2.25 L1,2.25 L1,1.25 L14,1.25 Z" id="icon-color" fill="#3D5466"></path>
    </g>
</svg>