<?xml version="1.0" encoding="UTF-8"?>
<svg width="32px" height="32px" viewBox="0 0 32 32" version="1.1" xmlns="http://www.w3.org/2000/svg" xmlns:xlink="http://www.w3.org/1999/xlink">
    <title>icon/digital experience/elements/form/button/32</title>
    <g id="icon/digital-experience/elements/form/button/32" stroke="none" stroke-width="1" fill="none" fill-rule="evenodd">
        <path d="M28,11.5 C29.1045695,11.5 30,12.3954305 30,13.5 L30,27.5 C30,28.6045695 29.1045695,29.5 28,29.5 L4,29.5 C2.8954305,29.5 2,28.6045695 2,27.5 L2,13.5 C2,12.3954305 2.8954305,11.5 4,11.5 L28,11.5 Z M28,13.5 L4,13.5 L4,27.5 L28,27.5 L28,13.5 Z M22,15.5 L22,15.789 L24,20.289 L24,15.5 L26,15.5 L26,25.5 L24,25.5 L24,25.213 L22,20.713 L22,25.5 L20,25.5 L20,15.5 L22,15.5 Z M19,15.5 L19,17.5 L17,17.5 L17,25.5 L15,25.5 L15,17.5 L13,17.5 L13,15.5 L19,15.5 Z M10,15.5 C11.1045695,15.5 12,16.3954305 12,17.5 L12,19.5 C12,19.864732 11.9023677,20.2066608 11.7318119,20.5010775 C11.9025897,20.7941173 12,21.1356829 12,21.5 L12,23.5 C12,24.6045695 11.1045695,25.5 10,25.5 L6,25.5 L6,15.5 L10,15.5 Z M10,21.5 L8,21.5 L8,23.5 L10,23.5 L10,21.5 Z M10,17.5 L8,17.5 L8,19.5 L10,19.5 L10,17.5 Z M15,6.5 L15,8.5 L2,8.5 L2,6.5 L15,6.5 Z M28,2.5 L28,4.5 L2,4.5 L2,2.5 L28,2.5 Z" id="icon-color" fill="#3D5466"></path>
    </g>
</svg>