<svg width="16" height="16" viewBox="0 0 16 16" fill="none" xmlns="http://www.w3.org/2000/svg">
<g clip-path="url(#clip0_3053_185)">
<path d="M3.16016 4.35083H5.66016V5.35083H3.16016V4.35083Z" fill="black"/>
<path d="M8.66016 4.35083H11.1602V5.35083H8.66016V4.35083Z" fill="black"/>
<path d="M8.66016 6.49795H11.1602V7.49795H8.66016V6.49795Z" fill="black"/>
<path d="M11.1602 8.64492H8.66016V9.64492H11.1602V8.64492Z" fill="black"/>
<path d="M5.66108 6.49795H3.16108V7.49795H5.66108V6.49795Z" fill="black"/>
<path d="M3.16016 8.64492H5.66016V9.64492H3.16016V8.64492Z" fill="black"/>
<path fill-rule="evenodd" clip-rule="evenodd" d="M2.16016 2.49805H12.1602C12.4253 2.49831 12.6795 2.60375 12.867 2.79123C13.0545 2.97871 13.1599 3.23291 13.1602 3.49805V4.48755H14.1602C14.4253 4.48781 14.6795 4.59326 14.867 4.78074C15.0545 4.96821 15.1599 5.22241 15.1602 5.48755V12.4875C15.1599 12.7527 15.0545 13.0069 14.867 13.1944C14.6795 13.3818 14.4253 13.4873 14.1602 13.4875H4.15923C3.89409 13.4873 3.64082 13.3818 3.45334 13.1944C3.26586 13.0069 3.16042 12.7527 3.16016 12.4875V11.498H2.15923C1.89409 11.4978 1.64082 11.3923 1.45334 11.2049C1.26586 11.0174 1.16042 10.7632 1.16016 10.498V3.49805C1.16042 3.23291 1.26586 2.97871 1.45334 2.79123C1.64082 2.60375 1.89502 2.49831 2.16016 2.49805ZM4.16016 11.498V12.4875H8.66016V11.498H4.16016ZM9.66016 11.498V12.4875H14.1602V5.48755H13.1602V10.498C13.1599 10.7632 13.0545 11.0174 12.867 11.2049C12.6795 11.3923 12.4253 11.4978 12.1602 11.498H9.66016ZM6.66016 3.49805H2.16016V10.498H6.66016V3.49805ZM7.66016 3.49805V10.498H12.1602V3.49805H7.66016Z" fill="black"/>
</g>
<defs>
<clipPath id="clip0_3053_185">
<rect width="16" height="16" fill="white"/>
</clipPath>
</defs>
</svg>
