<?xml version="1.0" encoding="UTF-8"?>
<svg xmlns="http://www.w3.org/2000/svg" xmlns:xlink="http://www.w3.org/1999/xlink" width="24px" height="24px" viewBox="0 0 24 24" version="1.1">
<g id="surface1">
<path style=" stroke:none;fill-rule:nonzero;fill:rgb(0%,0%,0%);fill-opacity:1;" d="M 4.742188 6.527344 L 8.492188 6.527344 L 8.492188 8.027344 L 4.742188 8.027344 Z M 4.742188 6.527344 "/>
<path style=" stroke:none;fill-rule:nonzero;fill:rgb(0%,0%,0%);fill-opacity:1;" d="M 12.992188 6.527344 L 16.742188 6.527344 L 16.742188 8.027344 L 12.992188 8.027344 Z M 12.992188 6.527344 "/>
<path style=" stroke:none;fill-rule:nonzero;fill:rgb(0%,0%,0%);fill-opacity:1;" d="M 12.992188 9.746094 L 16.742188 9.746094 L 16.742188 11.246094 L 12.992188 11.246094 Z M 12.992188 9.746094 "/>
<path style=" stroke:none;fill-rule:nonzero;fill:rgb(0%,0%,0%);fill-opacity:1;" d="M 16.742188 12.96875 L 12.992188 12.96875 L 12.992188 14.46875 L 16.742188 14.46875 Z M 16.742188 12.96875 "/>
<path style=" stroke:none;fill-rule:nonzero;fill:rgb(0%,0%,0%);fill-opacity:1;" d="M 8.492188 9.746094 L 4.742188 9.746094 L 4.742188 11.246094 L 8.492188 11.246094 Z M 8.492188 9.746094 "/>
<path style=" stroke:none;fill-rule:nonzero;fill:rgb(0%,0%,0%);fill-opacity:1;" d="M 4.742188 12.96875 L 8.492188 12.96875 L 8.492188 14.46875 L 4.742188 14.46875 Z M 4.742188 12.96875 "/>
<path style=" stroke:none;fill-rule:evenodd;fill:rgb(0%,0%,0%);fill-opacity:1;" d="M 3.242188 3.746094 L 18.242188 3.746094 C 18.636719 3.746094 19.019531 3.90625 19.300781 4.1875 C 19.582031 4.46875 19.738281 4.847656 19.742188 5.246094 L 19.742188 6.730469 L 21.242188 6.730469 C 21.636719 6.730469 22.019531 6.890625 22.300781 7.171875 C 22.582031 7.453125 22.738281 7.832031 22.742188 8.230469 L 22.742188 18.730469 C 22.738281 19.128906 22.582031 19.511719 22.300781 19.792969 C 22.019531 20.074219 21.636719 20.230469 21.242188 20.230469 L 6.238281 20.230469 C 5.839844 20.230469 5.460938 20.074219 5.179688 19.792969 C 4.898438 19.511719 4.742188 19.128906 4.742188 18.730469 L 4.742188 17.246094 L 3.238281 17.246094 C 2.839844 17.246094 2.460938 17.089844 2.179688 16.808594 C 1.898438 16.527344 1.742188 16.144531 1.742188 15.746094 L 1.742188 5.246094 C 1.742188 4.847656 1.898438 4.46875 2.179688 4.1875 C 2.460938 3.90625 2.84375 3.746094 3.242188 3.746094 Z M 6.242188 17.246094 L 6.242188 18.730469 L 12.992188 18.730469 L 12.992188 17.246094 Z M 14.492188 17.246094 L 14.492188 18.730469 L 21.242188 18.730469 L 21.242188 8.230469 L 19.742188 8.230469 L 19.742188 15.746094 C 19.738281 16.144531 19.582031 16.527344 19.300781 16.808594 C 19.019531 17.089844 18.636719 17.246094 18.242188 17.246094 Z M 9.992188 5.246094 L 3.242188 5.246094 L 3.242188 15.746094 L 9.992188 15.746094 Z M 11.492188 5.246094 L 11.492188 15.746094 L 18.242188 15.746094 L 18.242188 5.246094 Z M 11.492188 5.246094 "/>
</g>
</svg>
