<svg width="16" height="16" viewBox="0 0 16 16" fill="none" xmlns="http://www.w3.org/2000/svg">
<path d="M14 3.5V2.5H1V3.5H14Z" fill="black"/>
<path d="M7.5 5.5V4.5H1V5.5H7.5Z" fill="black"/>
<path d="M4.5 10H11.5V11H4.5V10Z" fill="black"/>
<path fill-rule="evenodd" clip-rule="evenodd" d="M2 13.5H14C14.2651 13.4997 14.5193 13.3943 14.7068 13.2068C14.8943 13.0193 14.9997 12.7651 15 12.5V8.5C14.9997 8.23487 14.8943 7.98068 14.7068 7.7932C14.5193 7.60572 14.2651 7.50028 14 7.5H2C1.73487 7.50028 1.48068 7.60572 1.2932 7.7932C1.10572 7.98068 1.00028 8.23487 1 8.5V12.5C1.00028 12.7651 1.10572 13.0193 1.2932 13.2068C1.48068 13.3943 1.73487 13.4997 2 13.5ZM2 12.5V8.5H14V12.5H2Z" fill="black"/>
</svg>
