<svg width="32" height="32" viewBox="0 0 32 32" fill="none" xmlns="http://www.w3.org/2000/svg">
<path d="M28 7V5H2V7H28Z" fill="black"/>
<path d="M15 11V9H2V11H15Z" fill="black"/>
<path d="M9 20H23V22H9V20Z" fill="black"/>
<path fill-rule="evenodd" clip-rule="evenodd" d="M4 27H28C28.5303 26.9994 29.0386 26.7886 29.4136 26.4136C29.7886 26.0386 29.9994 25.5303 30 25V17C29.9994 16.4697 29.7886 15.9614 29.4136 15.5864C29.0386 15.2114 28.5303 15.0006 28 15H4C3.46974 15.0006 2.96135 15.2114 2.5864 15.5864C2.21145 15.9614 2.00056 16.4697 2 17V25C2.00056 25.5303 2.21145 26.0386 2.5864 26.4136C2.96135 26.7886 3.46974 26.9994 4 27ZM4 25V17H28V25H4Z" fill="black"/>
</svg>
