<svg width="24" height="24" viewBox="0 0 24 24" fill="none" xmlns="http://www.w3.org/2000/svg">
<path fill-rule="evenodd" clip-rule="evenodd" d="M21 11.25C21.8284 11.25 22.5 11.9216 22.5 12.75V18.75C22.5 19.5784 21.8284 20.25 21 20.25H3C2.17157 20.25 1.5 19.5784 1.5 18.75V12.75C1.5 11.9216 2.17157 11.25 3 11.25H21ZM21 12.75H3V18.75H21V12.75Z" fill="black"/>
<path d="M15 7.5V9H6.75V7.5H15Z" fill="black"/>
<path d="M21 4.5V6H6.75V4.5H21Z" fill="black"/>
<path d="M5.25 4.5V6H4.125V9H2.625V6H1.5V4.5H5.25Z" fill="black"/>
</svg>
