<svg width="24" height="24" viewBox="0 0 24 24" fill="none" xmlns="http://www.w3.org/2000/svg">
<path fill-rule="evenodd" clip-rule="evenodd" d="M10.5 19.5H15.75C16.155 19.5 16.53 19.335 16.815 19.065C17.1 18.795 17.25 18.405 17.25 18V14.955L21.315 17.85C21.42 17.925 21.555 17.97 21.69 17.985C21.825 17.985 21.96 17.97 22.08 17.91C22.2 17.85 22.305 17.745 22.38 17.64C22.455 17.52 22.485 17.385 22.485 17.25V6.75C22.485 6.615 22.44 6.48 22.38 6.36C22.305 6.24 22.2 6.15 22.08 6.09C21.96 6.03 21.825 6 21.69 6.015C21.555 6.015 21.42 6.075 21.315 6.15L17.25 9.06V6C17.25 5.595 17.085 5.22 16.815 4.935C16.53 4.65 16.155 4.5 15.75 4.5H3C2.595 4.5 2.22 4.665 1.935 4.935C1.65 5.22 1.5 5.595 1.5 6V10.5H3V6H15.75V10.5C15.75 10.635 15.795 10.77 15.855 10.89C15.93 11.01 16.035 11.1 16.155 11.16C16.275 11.22 16.41 11.25 16.545 11.235C16.68 11.235 16.815 11.175 16.92 11.1L20.985 8.19V15.795L16.92 12.9C16.815 12.825 16.68 12.78 16.545 12.765C16.41 12.765 16.275 12.78 16.155 12.84C16.035 12.9 15.93 13.005 15.855 13.11C15.78 13.23 15.75 13.365 15.75 13.5V18H10.5V19.5Z" fill="black"/>
<path d="M8.25 16.995C7.95 17.46 7.35 18.09 6.255 18.09C5.1 18.09 4.38 17.46 3.99 16.995H5.445V15.54H1.5V19.485H2.955V18.06C3.555 18.75 4.62 19.59 6.27 19.59C8.475 19.59 9.6 17.925 9.915 16.995H8.25Z" fill="black"/>
<path d="M3.74984 13.845C4.04984 13.38 4.64984 12.75 5.74484 12.75C6.89984 12.75 7.61984 13.38 8.00984 13.845H6.55484V15.3H10.4998V11.355H9.04484V12.78C8.44484 12.09 7.37984 11.25 5.72984 11.25C3.53984 11.25 2.39984 12.915 2.08484 13.845H3.74984Z" fill="black"/>
</svg>
