<svg width="32" height="32" viewBox="0 0 32 32" fill="none" xmlns="http://www.w3.org/2000/svg">
<path fill-rule="evenodd" clip-rule="evenodd" d="M14 26H21C21.54 26 22.04 25.78 22.42 25.42C22.8 25.06 23 24.54 23 24V19.94L28.42 23.8C28.56 23.9 28.74 23.96 28.92 23.98C29.1 23.98 29.28 23.96 29.44 23.88C29.6 23.8 29.74 23.66 29.84 23.52C29.94 23.36 29.98 23.18 29.98 23V9C29.98 8.82 29.92 8.64 29.84 8.48C29.74 8.32 29.6 8.2 29.44 8.12C29.28 8.04 29.1 8 28.92 8.02C28.74 8.02 28.56 8.1 28.42 8.2L23 12.08V8C23 7.46 22.78 6.96 22.42 6.58C22.04 6.2 21.54 6 21 6H4C3.46 6 2.96 6.22 2.58 6.58C2.2 6.96 2 7.46 2 8V14H4V8H21V14C21 14.18 21.06 14.36 21.14 14.52C21.24 14.68 21.38 14.8 21.54 14.88C21.7 14.96 21.88 15 22.06 14.98C22.24 14.98 22.42 14.9 22.56 14.8L27.98 10.92V21.06L22.56 17.2C22.42 17.1 22.24 17.04 22.06 17.02C21.88 17.02 21.7 17.04 21.54 17.12C21.38 17.2 21.24 17.34 21.14 17.48C21.04 17.64 21 17.82 21 18V24H14V26Z" fill="black"/>
<path d="M11 22.66C10.6 23.28 9.8 24.12 8.34 24.12C6.8 24.12 5.84 23.28 5.32 22.66H7.26V20.72H2V25.98H3.94V24.08C4.74 25 6.16 26.12 8.36 26.12C11.3 26.12 12.8 23.9 13.22 22.66H11Z" fill="black"/>
<path d="M4.99979 18.46C5.39979 17.84 6.19979 17 7.65979 17C9.19979 17 10.1598 17.84 10.6798 18.46H8.73979V20.4H13.9998V15.14H12.0598V17.04C11.2598 16.12 9.83978 15 7.63978 15C4.71978 15 3.19979 17.22 2.77979 18.46H4.99979Z" fill="black"/>
</svg>
