<?xml version="1.0" encoding="UTF-8"?>
<svg width="16px" height="16px" viewBox="0 0 16 16" version="1.1" xmlns="http://www.w3.org/2000/svg" xmlns:xlink="http://www.w3.org/1999/xlink">
    <title>icon/digital experience/elements/typography/h3/16</title>
    <g id="icon/digital-experience/elements/typography/h3/16" stroke="none" stroke-width="1" fill="none" fill-rule="evenodd">
        <path d="M12,4.5 C12.5522847,4.5 13,4.94771525 13,5.5 L13,5.5 L13,10.5 C13,11.0522847 12.5522847,11.5 12,11.5 L12,11.5 L9,11.5 L9,10.5 L12,10.5 L12,8.5 L10,8.5 L10,7.5 L12,7.5 L12,5.5 L9,5.5 L9,4.5 Z M4,4.5 L4,7.5 L6,7.5 L6,4.5 L7,4.5 L7,11.5 L6,11.5 L6,8.5 L4,8.5 L4,11.5 L3,11.5 L3,4.5 L4,4.5 Z" id="icon-color" fill="#3D5466"></path>
    </g>
</svg>