<?xml version="1.0" encoding="UTF-8"?>
<svg width="32px" height="32px" viewBox="0 0 32 32" version="1.1" xmlns="http://www.w3.org/2000/svg" xmlns:xlink="http://www.w3.org/1999/xlink">
    <title>icon/digital experience/elements/typography/h3/32</title>
    <g id="icon/digital-experience/elements/typography/h3/32" stroke="none" stroke-width="1" fill="none" fill-rule="evenodd">
        <path d="M24,9 C25.1045695,9 26,9.8954305 26,11 L26,11 L26,21 C26,22.1045695 25.1045695,23 24,23 L24,23 L18,23 L18,21 L24,21 L24,17 L20,17 L20,15 L24,15 L24,11 L18,11 L18,9 Z M8,9 L8,15 L12,15 L12,9 L14,9 L14,23 L12,23 L12,17 L8,17 L8,23 L6,23 L6,9 L8,9 Z" id="icon-color" fill="#3D5466"></path>
    </g>
</svg>