<?xml version="1.0" encoding="UTF-8"?>
<svg width="16" height="16" viewBox="0 0 16 16" fill="none" xmlns="http://www.w3.org/2000/svg">
  <path d="M13 2H11V1H10V2H6V1H5V2H3C2.73478 2 2.48043 2.10536 2.29289 2.29289C2.10536 2.48043 2 2.73478 2 3V13C2 13.2652 2.10536 13.5196 2.29289 13.7071C2.48043 13.8946 2.73478 14 3 14H13C13.2652 14 13.5196 13.8946 13.7071 13.7071C13.8946 13.5196 14 13.2652 14 13V3C14 2.73478 13.8946 2.48043 13.7071 2.29289C13.5196 2.10536 13.2652 2 13 2ZM13 13H3V6H13V13ZM13 5H3V3H5V4H6V3H10V4H11V3H13V5Z" fill="black"/>
  <path d="M12 8H4V9H12V8Z" fill="black"/>
  <path d="M9 10.2H4V11.2H9V10.2Z" fill="black"/>
</svg>
