<svg width="16" height="16" viewBox="0 0 16 16" fill="none" xmlns="http://www.w3.org/2000/svg">
<path d="M2.5 14.4999H1.5V11.4999H2.5V12.4999H3.5V13.4999H2.5V14.4999Z" fill="black"/>
<path d="M14.5 11.4999V14.4999H13.5V13.4999H12.5V12.4999H13.5V11.4999H14.5Z" fill="black"/>
<path d="M4.5 12.4999H5.5V13.4999H4.5V12.4999Z" fill="black"/>
<path d="M6.5 12.4999H7.5V13.4999H6.5V12.4999Z" fill="black"/>
<path d="M8.5 12.4999H9.5V13.4999H8.5V12.4999Z" fill="black"/>
<path d="M10.5 12.4999H11.5V13.4999H10.5V12.4999Z" fill="black"/>
<path fill-rule="evenodd" clip-rule="evenodd" d="M13.5 1.49994C14.0523 1.49994 14.5 1.94765 14.5 2.49994V8.49994C14.5 9.05222 14.0523 9.49994 13.5 9.49994H2.5C1.94772 9.49994 1.5 9.05222 1.5 8.49994V2.49994C1.5 1.94765 1.94772 1.49994 2.5 1.49994H13.5ZM13.5 2.49994H2.5V8.49994H13.5V2.49994Z" fill="black"/>
</svg>
