<svg width="32" height="32" viewBox="0 0 32 32" fill="none" xmlns="http://www.w3.org/2000/svg">
<path d="M5 28.9999H3V22.9999H5V24.9999H7V26.9999H5V28.9999Z" fill="black"/>
<path d="M29 22.9999V28.9999H27V26.9999H25V24.9999H27V22.9999H29Z" fill="black"/>
<path d="M9 24.9999H11V26.9999H9V24.9999Z" fill="black"/>
<path d="M13 24.9999H15V26.9999H13V24.9999Z" fill="black"/>
<path d="M17 24.9999H19V26.9999H17V24.9999Z" fill="black"/>
<path d="M21 24.9999H23V26.9999H21V24.9999Z" fill="black"/>
<path fill-rule="evenodd" clip-rule="evenodd" d="M27 2.99988C28.1046 2.99988 29 3.89531 29 4.99988V16.9999C29 18.1044 28.1046 18.9999 27 18.9999H5C3.89543 18.9999 3 18.1044 3 16.9999V4.99988C3 3.89531 3.89543 2.99988 5 2.99988H27ZM27 4.99988H5V16.9999H27V4.99988Z" fill="black"/>
</svg>
