<svg width="16" height="16" viewBox="0 0 16 16" fill="none" xmlns="http://www.w3.org/2000/svg">
<path d="M12.5 3.96484C12.7761 3.96484 13 3.74099 13 3.46484C13 3.1887 12.7761 2.96484 12.5 2.96484C12.2239 2.96484 12 3.1887 12 3.46484C12 3.74099 12.2239 3.96484 12.5 3.96484Z" fill="black"/>
<path fill-rule="evenodd" clip-rule="evenodd" d="M7.99999 8H10.205L12.225 5.98484C12.7275 6.04044 13.235 5.94239 13.6806 5.70364C14.1263 5.46489 14.489 5.09665 14.721 4.6475C14.9531 4.19836 15.0435 3.68942 14.9804 3.18783C14.9173 2.68624 14.7035 2.21557 14.3674 1.83793C14.0313 1.46029 13.5887 1.19342 13.0978 1.07253C12.6069 0.951641 12.0909 0.982411 11.6179 1.16078C11.1448 1.33916 10.737 1.65675 10.4482 2.07166C10.1593 2.48657 10.0031 2.9793 10 3.48484C9.99516 3.57644 9.99516 3.66823 10 3.75983L7.99999 5.795V8ZM9.79501 7H8.99999V6.205L11.105 4.06983L11.04 3.79983C11.0153 3.68983 11.0019 3.57757 11 3.46483C11 3.16816 11.088 2.87815 11.2528 2.63148C11.4176 2.38481 11.6519 2.19255 11.926 2.07902C12.2001 1.96548 12.5017 1.93578 12.7926 1.99366C13.0836 2.05154 13.3509 2.19439 13.5607 2.40417C13.7704 2.61395 13.9133 2.88123 13.9712 3.1722C14.0291 3.46317 13.9994 3.76477 13.8858 4.03886C13.7723 4.31295 13.58 4.54722 13.3333 4.71204C13.0867 4.87686 12.7967 4.96484 12.5 4.96484C12.3873 4.96298 12.275 4.94958 12.165 4.92483L11.895 4.85984L9.79501 7Z" fill="black"/>
<path fill-rule="evenodd" clip-rule="evenodd" d="M3.11107 4.42133C3.5222 4.14662 4.00555 4 4.5 4C5.16304 4 5.79893 4.2634 6.26777 4.73224C6.73661 5.20108 7 5.83696 7 6.5C7 6.99445 6.85338 7.47781 6.57867 7.88893C6.30397 8.30005 5.91352 8.62047 5.45671 8.80969C4.99989 8.99891 4.49723 9.04843 4.01228 8.95197C3.52732 8.8555 3.08186 8.61739 2.73223 8.26776C2.3826 7.91813 2.1445 7.47268 2.04804 6.98773C1.95158 6.50278 2.00108 6.0001 2.1903 5.54329C2.37952 5.08647 2.69995 4.69603 3.11107 4.42133ZM5.33335 5.25279C5.08668 5.08797 4.79667 5 4.5 5C4.10218 5 3.72064 5.15804 3.43934 5.43935C3.15803 5.72065 3 6.10218 3 6.5C3 6.79667 3.08797 7.08669 3.2528 7.33336C3.41762 7.58003 3.65189 7.77229 3.92598 7.88582C4.20007 7.99935 4.50167 8.02905 4.79264 7.97118C5.08361 7.9133 5.35088 7.77043 5.56066 7.56065C5.77044 7.35087 5.9133 7.0836 5.97118 6.79263C6.02905 6.50166 5.99935 6.20007 5.88582 5.92598C5.77229 5.65189 5.58003 5.41761 5.33335 5.25279Z" fill="black"/>
<path d="M7 15H8V12.5C8 11.837 7.73661 11.2011 7.26777 10.7322C6.79893 10.2634 6.16304 10 5.5 10H3.5C2.83696 10 2.20107 10.2634 1.73223 10.7322C1.26339 11.2011 1 11.837 1 12.5V15H2V12.5C2 12.1022 2.15803 11.7207 2.43934 11.4393C2.72064 11.158 3.10218 11 3.5 11H5.5C5.89782 11 6.27936 11.158 6.56066 11.4393C6.84197 11.7207 7 12.1022 7 12.5V15Z" fill="black"/>
</svg>
