<svg width="32" height="32" viewBox="0 0 32 32" fill="none" xmlns="http://www.w3.org/2000/svg">
<path d="M25 7.92969C25.5523 7.92969 26 7.48197 26 6.92969C26 6.3774 25.5523 5.92969 25 5.92969C24.4477 5.92969 24 6.3774 24 6.92969C24 7.48197 24.4477 7.92969 25 7.92969Z" fill="black"/>
<path fill-rule="evenodd" clip-rule="evenodd" d="M16 16H20.41L24.45 11.9697C25.455 12.0809 26.47 11.8848 27.3613 11.4073C28.2525 10.9298 28.978 10.1933 29.4421 9.295C29.9062 8.39671 30.087 7.37883 29.9608 6.37565C29.8345 5.37248 29.4071 4.43114 28.7349 3.67586C28.0627 2.92058 27.1773 2.38684 26.1956 2.14506C25.2138 1.90328 24.1818 1.96482 23.2357 2.32157C22.2897 2.67832 21.474 3.3135 20.8963 4.14332C20.3186 4.97314 20.0061 5.9586 20 6.96967C19.9903 7.15288 19.9903 7.33646 20 7.51967L16 11.59V16ZM19.59 14H18V12.41L22.21 8.13967L22.08 7.59967C22.0305 7.37965 22.0037 7.15515 22 6.92967C22 6.33633 22.176 5.75631 22.5056 5.26296C22.8353 4.76961 23.3038 4.3851 23.8519 4.15803C24.4001 3.93097 25.0033 3.87156 25.5853 3.98732C26.1672 4.10307 26.7018 4.38879 27.1213 4.80835C27.5409 5.2279 27.8266 5.76245 27.9424 6.3444C28.0581 6.92634 27.9987 7.52954 27.7717 8.07772C27.5446 8.6259 27.16 9.09443 26.6667 9.42408C26.1733 9.75372 25.5933 9.92967 25 9.92967C24.7745 9.92597 24.55 9.89916 24.33 9.84967L23.79 9.71967L19.59 14Z" fill="black"/>
<path fill-rule="evenodd" clip-rule="evenodd" d="M6.22215 8.84265C7.04439 8.29324 8.01109 8 9 8C10.3261 8 11.5979 8.5268 12.5355 9.46448C13.4732 10.4022 14 11.6739 14 13C14 13.9889 13.7068 14.9556 13.1573 15.7779C12.6079 16.6001 11.827 17.2409 10.9134 17.6194C9.99978 17.9978 8.99446 18.0969 8.02455 17.9039C7.05465 17.711 6.16373 17.2348 5.46446 16.5355C4.7652 15.8363 4.289 14.9454 4.09608 13.9755C3.90315 13.0056 4.00216 12.0002 4.3806 11.0866C4.75904 10.1729 5.3999 9.39206 6.22215 8.84265ZM10.6667 10.5056C10.1734 10.1759 9.59334 10 9 10C8.20435 10 7.44129 10.3161 6.87868 10.8787C6.31607 11.4413 6 12.2044 6 13C6 13.5933 6.17595 14.1734 6.50559 14.6667C6.83524 15.1601 7.30377 15.5446 7.85195 15.7716C8.40013 15.9987 9.00333 16.0581 9.58527 15.9424C10.1672 15.8266 10.7018 15.5409 11.1213 15.1213C11.5409 14.7017 11.8266 14.1672 11.9424 13.5853C12.0581 13.0033 11.9987 12.4001 11.7716 11.852C11.5446 11.3038 11.1601 10.8352 10.6667 10.5056Z" fill="black"/>
<path d="M14 30H16V25C16 23.6739 15.4732 22.4022 14.5355 21.4645C13.5979 20.5268 12.3261 20 11 20H7C5.67392 20 4.40214 20.5268 3.46446 21.4645C2.52678 22.4022 2 23.6739 2 25V30H4V25C4 24.2044 4.31607 23.4413 4.87868 22.8787C5.44129 22.3161 6.20435 22 7 22H11C11.7956 22 12.5587 22.3161 13.1213 22.8787C13.6839 23.4413 14 24.2044 14 25V30Z" fill="black"/>
</svg>
