<svg width="16" height="16" viewBox="0 0 16 16" fill="none" xmlns="http://www.w3.org/2000/svg">
<path d="M14 1.99994C14 1.44765 13.5523 0.999939 13 0.999939H2C1.44772 0.999939 1 1.44765 1 1.99994V12.9999C1 13.5522 1.44772 13.9999 2 13.9999H7V12.9999H2V1.99994H13V6.99994H14V1.99994Z" fill="black"/>
<path fill-rule="evenodd" clip-rule="evenodd" d="M6.5 8.99994C6.5 8.44765 6.05228 7.99994 5.5 7.99994H4C3.44772 7.99994 3 8.44765 3 8.99994V10.4999C3 11.0522 3.44772 11.4999 4 11.4999H5.5C6.05228 11.4999 6.5 11.0522 6.5 10.4999V8.99994ZM4 8.99994H5.5V10.4999H4V8.99994Z" fill="black"/>
<path fill-rule="evenodd" clip-rule="evenodd" d="M12 4.49994C12 3.94765 11.5523 3.49994 11 3.49994H4C3.44772 3.49994 3 3.94765 3 4.49994V5.99994C3 6.55222 3.44772 6.99994 4 6.99994H11C11.5523 6.99994 12 6.55222 12 5.99994V4.49994ZM4 4.49994H11V5.99994H4V4.49994Z" fill="black"/>
<path d="M13.9702 13.0008C13.9801 13.0003 13.9901 13.0001 14 12.9999H13.93C13.9434 12.9999 13.9568 13.0002 13.9702 13.0008Z" fill="black"/>
<path fill-rule="evenodd" clip-rule="evenodd" d="M13.745 13.0349C13.8186 13.0154 13.8942 13.0039 13.9702 13.0008C14.1539 13.0081 14.3323 13.0661 14.4856 13.1685C14.65 13.2784 14.7782 13.4345 14.8539 13.6173C14.9296 13.8 14.9494 14.001 14.9108 14.195C14.8722 14.389 14.777 14.5672 14.6371 14.707C14.4973 14.8469 14.3191 14.9421 14.1251 14.9807C13.9311 15.0193 13.73 14.9995 13.5473 14.9238C13.3646 14.8481 13.2084 14.72 13.0985 14.5555C12.9886 14.3911 12.93 14.1977 12.93 13.9999C12.9311 13.9138 12.9429 13.8282 12.965 13.7449L12.465 13.2149C12.1634 13.3976 11.8176 13.4942 11.465 13.4942C11.1124 13.4942 10.7666 13.3976 10.465 13.2149L9.965 13.7449C9.98713 13.8282 9.99889 13.9138 10 13.9999C10 14.1977 9.94135 14.3911 9.83147 14.5555C9.72159 14.72 9.56541 14.8481 9.38268 14.9238C9.19996 14.9995 8.99889 15.0193 8.80491 14.9807C8.61093 14.9421 8.43274 14.8469 8.29289 14.707C8.15304 14.5672 8.0578 14.389 8.01921 14.195C7.98063 14.001 8.00043 13.8 8.07612 13.6173C8.15181 13.4345 8.27998 13.2784 8.44443 13.1685C8.60888 13.0586 8.80222 12.9999 9 12.9999C9.0857 12.9978 9.17135 13.0062 9.255 13.0249L9.785 12.4999C9.60231 12.1984 9.50573 11.8525 9.50573 11.4999C9.50573 11.1474 9.60231 10.8015 9.785 10.4999L9.255 9.96494C9.17177 9.98707 9.08612 9.99883 9 9.99994C8.80222 9.99994 8.60888 9.94129 8.44443 9.83141C8.27998 9.72153 8.15181 9.56536 8.07612 9.38263C8.00043 9.19991 7.98063 8.99884 8.01921 8.80486C8.0578 8.61088 8.15304 8.43269 8.29289 8.29283C8.43274 8.15298 8.61093 8.05774 8.80491 8.01915C8.99889 7.98057 9.19996 8.00038 9.38268 8.07607C9.56541 8.15175 9.72159 8.27992 9.83147 8.44437C9.94135 8.60882 10 8.80216 10 8.99994C10.023 9.08641 10.0347 9.17547 10.035 9.26494L10.535 9.79494C10.8366 9.61225 11.1824 9.51567 11.535 9.51567C11.8876 9.51567 12.2334 9.61225 12.535 9.79494L13.035 9.26494C13.0129 9.18171 13.0011 9.09605 13 9.00994C13 8.81215 13.0586 8.61883 13.1685 8.45438C13.2784 8.28993 13.4346 8.16175 13.6173 8.08606C13.8 8.01037 14.0011 7.99058 14.1951 8.02916C14.3891 8.06775 14.5673 8.16298 14.7071 8.30283C14.847 8.44268 14.9422 8.62087 14.9808 8.81485C15.0194 9.00883 14.9996 9.2099 14.9239 9.39263C14.8482 9.57535 14.72 9.73154 14.5556 9.84142C14.3911 9.9513 14.1978 10.0099 14 10.0099C13.9139 10.0088 13.8282 9.99708 13.745 9.97495L13.215 10.4999C13.3977 10.8015 13.4943 11.1474 13.4943 11.4999C13.4943 11.8525 13.3977 12.1984 13.215 12.4999L13.745 13.0349ZM10.6685 10.9444C10.5586 11.1088 10.5 11.3022 10.5 11.4999C10.5 11.7652 10.6054 12.0195 10.7929 12.207C10.9804 12.3946 11.2348 12.4999 11.5 12.4999C11.6978 12.4999 11.8911 12.4413 12.0556 12.3314C12.22 12.2215 12.3482 12.0654 12.4239 11.8826C12.4996 11.6999 12.5194 11.4988 12.4808 11.3049C12.4422 11.1109 12.347 10.9327 12.2071 10.7928C12.0673 10.653 11.8891 10.5577 11.6951 10.5192C11.5011 10.4806 11.3 10.5004 11.1173 10.5761C10.9346 10.6518 10.7784 10.7799 10.6685 10.9444Z" fill="black"/>
</svg>
