<svg width="32" height="32" viewBox="0 0 32 32" fill="none" xmlns="http://www.w3.org/2000/svg">
<path d="M28 3.99988C28 2.89531 27.1046 1.99988 26 1.99988H4C2.89543 1.99988 2 2.89531 2 3.99988V25.9999C2 27.1044 2.89543 27.9999 4 27.9999H14V25.9999H4V3.99988H26V13.9999H28V3.99988Z" fill="black"/>
<path fill-rule="evenodd" clip-rule="evenodd" d="M13 17.9999C13 16.8953 12.1046 15.9999 11 15.9999H8C6.89543 15.9999 6 16.8953 6 17.9999V20.9999C6 22.1044 6.89543 22.9999 8 22.9999H11C12.1046 22.9999 13 22.1044 13 20.9999V17.9999ZM8 17.9999H11V20.9999H8V17.9999Z" fill="black"/>
<path fill-rule="evenodd" clip-rule="evenodd" d="M24 8.99988C24 7.89531 23.1046 6.99988 22 6.99988H8C6.89543 6.99988 6 7.89531 6 8.99988V11.9999C6 13.1044 6.89543 13.9999 8 13.9999H22C23.1046 13.9999 24 13.1044 24 11.9999V8.99988ZM8 8.99988H22V11.9999H8V8.99988Z" fill="black"/>
<path d="M27.9405 26.0015C27.9603 26.0007 27.9801 26.0001 28 25.9999H27.86C27.8869 25.9999 27.9137 26.0004 27.9405 26.0015Z" fill="black"/>
<path fill-rule="evenodd" clip-rule="evenodd" d="M27.49 26.0699C27.6373 26.0307 27.7883 26.0078 27.9405 26.0015C28.3078 26.0163 28.6646 26.1321 28.9711 26.3369C29.3 26.5567 29.5564 26.869 29.7078 27.2345C29.8591 27.6 29.8987 28.0021 29.8216 28.39C29.7444 28.778 29.5539 29.1344 29.2742 29.4141C28.9945 29.6938 28.6381 29.8843 28.2502 29.9615C27.8622 30.0386 27.4601 29.999 27.0946 29.8476C26.7292 29.6963 26.4168 29.4399 26.1971 29.111C25.9773 28.7821 25.86 28.3954 25.86 27.9999C25.8622 27.8276 25.8857 27.6563 25.93 27.4899L24.93 26.4299C24.3269 26.7952 23.6352 26.9884 22.93 26.9884C22.2248 26.9884 21.5331 26.7952 20.93 26.4299L19.93 27.4899C19.9743 27.6563 19.9978 27.8276 20 27.9999C20 28.3954 19.8827 28.7821 19.6629 29.111C19.4432 29.4399 19.1308 29.6963 18.7654 29.8476C18.3999 29.999 17.9978 30.0386 17.6098 29.9615C17.2219 29.8843 16.8655 29.6938 16.5858 29.4141C16.3061 29.1344 16.1156 28.778 16.0384 28.39C15.9613 28.0021 16.0009 27.6 16.1522 27.2345C16.3036 26.869 16.56 26.5567 16.8889 26.3369C17.2178 26.1172 17.6044 25.9999 18 25.9999C18.1714 25.9956 18.3427 26.0123 18.51 26.0499L19.57 24.9999C19.2046 24.3967 19.0115 23.7051 19.0115 22.9999C19.0115 22.2947 19.2046 21.603 19.57 20.9999L18.51 19.9299C18.3435 19.9741 18.1722 19.9977 18 19.9999C17.6044 19.9999 17.2178 19.8826 16.8889 19.6628C16.56 19.4431 16.3036 19.1307 16.1522 18.7653C16.0009 18.3998 15.9613 17.9977 16.0384 17.6097C16.1156 17.2218 16.3061 16.8654 16.5858 16.5857C16.8655 16.306 17.2219 16.1155 17.6098 16.0383C17.9978 15.9611 18.3999 16.0008 18.7654 16.1521C19.1308 16.3035 19.4432 16.5598 19.6629 16.8887C19.8827 17.2176 20 17.6043 20 17.9999C20.0459 18.1728 20.0695 18.3509 20.07 18.5299L21.07 19.5899C21.6731 19.2245 22.3648 19.0313 23.07 19.0313C23.7752 19.0313 24.4669 19.2245 25.07 19.5899L26.07 18.5299C26.0257 18.3634 26.0022 18.1921 26 18.0199C26 17.6243 26.1173 17.2377 26.3371 16.9088C26.5568 16.5799 26.8692 16.3235 27.2346 16.1721C27.6001 16.0207 28.0022 15.9812 28.3902 16.0583C28.7781 16.1355 29.1345 16.326 29.4142 16.6057C29.6939 16.8854 29.8844 17.2417 29.9616 17.6297C30.0387 18.0177 29.9991 18.4198 29.8478 18.7853C29.6964 19.1507 29.44 19.4631 29.1111 19.6828C28.7822 19.9026 28.3956 20.0199 28 20.0199C27.8278 20.0176 27.6565 19.9942 27.49 19.9499L26.43 20.9999C26.7954 21.603 26.9885 22.2947 26.9885 22.9999C26.9885 23.7051 26.7954 24.3967 26.43 24.9999L27.49 26.0699ZM21.3371 21.8887C21.1173 22.2176 21 22.6043 21 22.9999C21 23.5303 21.2107 24.039 21.5858 24.4141C21.9609 24.7892 22.4696 24.9999 23 24.9999C23.3956 24.9999 23.7822 24.8826 24.1111 24.6628C24.44 24.4431 24.6964 24.1307 24.8478 23.7653C24.9991 23.3998 25.0387 22.9977 24.9616 22.6097C24.8844 22.2218 24.6939 21.8654 24.4142 21.5857C24.1345 21.306 23.7781 21.1155 23.3902 21.0383C23.0022 20.9611 22.6001 21.0008 22.2346 21.1521C21.8692 21.3035 21.5568 21.5598 21.3371 21.8887Z" fill="black"/>
</svg>
