<?xml version="1.0" encoding="UTF-8"?>
<svg width="16px" height="16px" viewBox="0 0 16 16" version="1.1" xmlns="http://www.w3.org/2000/svg" xmlns:xlink="http://www.w3.org/1999/xlink">
    <title>icon/digital experience/elements/form/form/text area/16</title>
    <g id="icon/digital-experience/elements/form/form/text-area/16" stroke="none" stroke-width="1" fill="none" fill-rule="evenodd">
        <path d="M14,2.5 C14.5522847,2.5 15,2.94771525 15,3.5 L15,12.5 C15,13.0522847 14.5522847,13.5 14,13.5 L2,13.5 C1.44771525,13.5 1,13.0522847 1,12.5 L1,3.5 C1,2.94771525 1.44771525,2.5 2,2.5 L14,2.5 Z M14,3.5 L2,3.5 L2,12.5 L14,12.5 L14,3.5 Z M12.8535534,9.64644661 C13.0271197,9.82001296 13.0464049,10.0894374 12.9114088,10.2843055 L12.8535534,10.3535534 L11.8535534,11.3535534 C11.6582912,11.5488155 11.3417088,11.5488155 11.1464466,11.3535534 C10.9728803,11.179987 10.9535951,10.9105626 11.0885912,10.7156945 L11.1464466,10.6464466 L12.1464466,9.64644661 C12.3417088,9.45118446 12.6582912,9.45118446 12.8535534,9.64644661 Z M12.8535534,7.64644661 C13.0271197,7.82001296 13.0464049,8.08943736 12.9114088,8.2843055 L12.8535534,8.35355339 L9.85355339,11.3535534 C9.65829124,11.5488155 9.34170876,11.5488155 9.14644661,11.3535534 C8.97288026,11.179987 8.95359511,10.9105626 9.08859116,10.7156945 L9.14644661,10.6464466 L12.1464466,7.64644661 C12.3417088,7.45118446 12.6582912,7.45118446 12.8535534,7.64644661 Z M5.5,4.5 L5.5,5.5 L4.75,5.5 L4.75,7.5 L3.75,7.5 L3.75,5.5 L3,5.5 L3,4.5 L5.5,4.5 Z" id="icon-color" fill="#3D5466"></path>
    </g>
</svg>