<?xml version="1.0" encoding="UTF-8"?>
<svg width="24px" height="24px" viewBox="0 0 24 24" version="1.1" xmlns="http://www.w3.org/2000/svg" xmlns:xlink="http://www.w3.org/1999/xlink">
    <title>icon/digital experience/elements/form/form/text area/24</title>
    <g id="icon/digital-experience/elements/form/form/text-area/24" stroke="none" stroke-width="1" fill="none" fill-rule="evenodd">
        <path d="M21,3.75 C21.8284271,3.75 22.5,4.42157288 22.5,5.25 L22.5,18.75 C22.5,19.5784271 21.8284271,20.25 21,20.25 L3,20.25 C2.17157288,20.25 1.5,19.5784271 1.5,18.75 L1.5,5.25 C1.5,4.42157288 2.17157288,3.75 3,3.75 L21,3.75 Z M21,5.25 L3,5.25 L3,18.75 L21,18.75 L21,5.25 Z M19.2803301,14.4696699 C19.5406796,14.7300194 19.5696073,15.134156 19.3671133,15.4264583 L19.2803301,15.5303301 L17.7803301,17.0303301 C17.4874369,17.3232233 17.0125631,17.3232233 16.7196699,17.0303301 C16.4593204,16.7699806 16.4303927,16.365844 16.6328867,16.0735417 L16.7196699,15.9696699 L18.2196699,14.4696699 C18.5125631,14.1767767 18.9874369,14.1767767 19.2803301,14.4696699 Z M19.2803301,11.4696699 C19.5406796,11.7300194 19.5696073,12.134156 19.3671133,12.4264583 L19.2803301,12.5303301 L14.7803301,17.0303301 C14.4874369,17.3232233 14.0125631,17.3232233 13.7196699,17.0303301 C13.4593204,16.7699806 13.4303927,16.365844 13.6328867,16.0735417 L13.7196699,15.9696699 L18.2196699,11.4696699 C18.5125631,11.1767767 18.9874369,11.1767767 19.2803301,11.4696699 Z M8.25,6.75 L8.25,8.25 L7.125,8.25 L7.125,11.25 L5.625,11.25 L5.625,8.25 L4.5,8.25 L4.5,6.75 L8.25,6.75 Z" id="icon-color" fill="#3D5466"></path>
    </g>
</svg>