<?xml version="1.0" encoding="UTF-8"?>
<svg width="32px" height="32px" viewBox="0 0 32 32" version="1.1" xmlns="http://www.w3.org/2000/svg" xmlns:xlink="http://www.w3.org/1999/xlink">
    <title>icon/digital experience/elements/form/form/text area/32</title>
    <g id="icon/digital-experience/elements/form/form/text-area/32" stroke="none" stroke-width="1" fill="none" fill-rule="evenodd">
        <path d="M28,5 C29.1045695,5 30,5.8954305 30,7 L30,25 C30,26.1045695 29.1045695,27 28,27 L4,27 C2.8954305,27 2,26.1045695 2,25 L2,7 C2,5.8954305 2.8954305,5 4,5 L28,5 Z M28,7 L4,7 L4,25 L28,25 L28,7 Z M25.7071068,19.2928932 C26.0542395,19.6400259 26.0928098,20.1788747 25.8228177,20.568611 L25.7071068,20.7071068 L23.7071068,22.7071068 C23.3165825,23.0976311 22.6834175,23.0976311 22.2928932,22.7071068 C21.9457605,22.3599741 21.9071902,21.8211253 22.1771823,21.431389 L22.2928932,21.2928932 L24.2928932,19.2928932 C24.6834175,18.9023689 25.3165825,18.9023689 25.7071068,19.2928932 Z M25.7071068,15.2928932 C26.0542395,15.6400259 26.0928098,16.1788747 25.8228177,16.568611 L25.7071068,16.7071068 L19.7071068,22.7071068 C19.3165825,23.0976311 18.6834175,23.0976311 18.2928932,22.7071068 C17.9457605,22.3599741 17.9071902,21.8211253 18.1771823,21.431389 L18.2928932,21.2928932 L24.2928932,15.2928932 C24.6834175,14.9023689 25.3165825,14.9023689 25.7071068,15.2928932 Z M11,9 L11,11 L9.5,11 L9.5,15 L7.5,15 L7.5,11 L6,11 L6,9 L11,9 Z" id="icon-color" fill="#3D5466"></path>
    </g>
</svg>