<svg width="16" height="16" viewBox="0 0 16 16" fill="none" xmlns="http://www.w3.org/2000/svg">
<path fill-rule="evenodd" clip-rule="evenodd" d="M4 14H7V15H4C3.73478 15 3.48044 14.8947 3.29291 14.7071C3.10537 14.5196 3 14.2653 3 14V2.00004C3 1.73483 3.10537 1.48047 3.29291 1.29293C3.48044 1.1054 3.73478 1.00004 4 1.00004H9C9.06571 0.998277 9.13102 1.01077 9.19144 1.03667C9.25186 1.06256 9.30597 1.10124 9.35001 1.15004L12.85 4.65004C12.8988 4.69408 12.9375 4.74817 12.9634 4.80859C12.9893 4.86901 13.0018 4.93433 13 5.00004V7.00004H12V6.00004H9C8.73478 6.00004 8.48044 5.89469 8.29291 5.70715C8.10537 5.51961 8 5.26526 8 5.00004V2.00004H4V14ZM11.8 5.00004L9 2.20004V5.00004H11.8Z" fill="black"/>
<path fill-rule="evenodd" clip-rule="evenodd" d="M11.5 14.9998C10.8078 14.9998 10.1311 14.7945 9.5555 14.4099C8.97993 14.0253 8.53133 13.4787 8.26642 12.8391C8.00151 12.1996 7.93221 11.4959 8.06725 10.8169C8.2023 10.138 8.53564 9.51438 9.02512 9.02489C9.51461 8.53541 10.1383 8.20206 10.8172 8.06701C11.4961 7.93196 12.1999 8.00127 12.8394 8.26618C13.4789 8.53109 14.0256 8.9797 14.4101 9.55527C14.7947 10.1308 15 10.8075 15 11.4998C15 12.428 14.6313 13.3183 13.9749 13.9746C13.3185 14.631 12.4283 14.9998 11.5 14.9998ZM11.125 9.49976H11.875V11.9998H11.125V9.49976ZM11.5 13.4617C11.4011 13.4617 11.3044 13.4324 11.2222 13.3774C11.14 13.3225 11.0759 13.2444 11.0381 13.153C11.0002 13.0617 10.9903 12.9611 11.0096 12.8642C11.0289 12.7672 11.0765 12.6781 11.1464 12.6081C11.2164 12.5382 11.3055 12.4906 11.4025 12.4713C11.4994 12.452 11.6 12.4619 11.6913 12.4998C11.7827 12.5376 11.8608 12.6017 11.9157 12.6839C11.9707 12.7661 12 12.8628 12 12.9617C12 13.0943 11.9473 13.2215 11.8536 13.3152C11.7598 13.409 11.6326 13.4617 11.5 13.4617Z" fill="black"/>
</svg>
