<svg width="32" height="32" viewBox="0 0 32 32" fill="none" xmlns="http://www.w3.org/2000/svg">
<path fill-rule="evenodd" clip-rule="evenodd" d="M8 28.0001H14V30.0001H8C7.46957 30.0001 6.96089 29.7894 6.58582 29.4143C6.21074 29.0392 6 28.5305 6 28.0001V4.00008C6 3.46965 6.21074 2.96094 6.58582 2.58587C6.96089 2.2108 7.46957 2.00008 8 2.00008H18C18.1314 1.99655 18.262 2.02154 18.3829 2.07333C18.5037 2.12512 18.6119 2.20248 18.7 2.30009L25.7 9.30009C25.7976 9.38817 25.875 9.49635 25.9268 9.61719C25.9785 9.73803 26.0035 9.86866 26 10.0001V14.0001H24V12.0001H18C17.4696 12.0001 16.9609 11.7894 16.5858 11.4143C16.2107 11.0392 16 10.5305 16 10.0001V4.00008H8V28.0001ZM23.6 10.0001L18 4.40009V10.0001H23.6Z" fill="black"/>
<path fill-rule="evenodd" clip-rule="evenodd" d="M23 29.9995C21.6155 29.9995 20.2622 29.589 19.111 28.8198C17.9599 28.0506 17.0627 26.9574 16.5328 25.6783C16.003 24.3992 15.8644 22.9918 16.1345 21.6339C16.4046 20.276 17.0713 19.0288 18.0502 18.0498C19.0292 17.0708 20.2765 16.4041 21.6344 16.134C22.9922 15.8639 24.3997 16.0025 25.6788 16.5324C26.9579 17.0622 28.0511 17.9594 28.8203 19.1105C29.5895 20.2617 30 21.6151 30 22.9995C30 24.856 29.2625 26.6365 27.9498 27.9493C26.637 29.262 24.8565 29.9995 23 29.9995ZM22.25 18.9995H23.75V23.9995H22.25V18.9995ZM23 26.9234C22.8022 26.9234 22.6089 26.8647 22.4444 26.7549C22.28 26.645 22.1518 26.4888 22.0761 26.3061C22.0004 26.1234 21.9806 25.9223 22.0192 25.7283C22.0578 25.5343 22.153 25.3561 22.2929 25.2163C22.4327 25.0764 22.6109 24.9812 22.8049 24.9426C22.9989 24.904 23.2 24.9238 23.3827 24.9995C23.5654 25.0752 23.7216 25.2034 23.8315 25.3678C23.9414 25.5323 24 25.7256 24 25.9234C24 26.1886 23.8946 26.443 23.7071 26.6305C23.5196 26.818 23.2652 26.9234 23 26.9234Z" fill="black"/>
</svg>
