<svg width="16" height="16" viewBox="0 0 16 16" fill="none" xmlns="http://www.w3.org/2000/svg">
<path d="M8 1C6.61553 1 5.26216 1.41054 4.11101 2.17971C2.95987 2.94888 2.06266 4.04213 1.53285 5.32122C1.00303 6.6003 0.86441 8.00777 1.13451 9.36563C1.4046 10.7235 2.07129 11.9708 3.05026 12.9497C4.02922 13.9287 5.2765 14.5954 6.63437 14.8655C7.99224 15.1356 9.3997 14.997 10.6788 14.4672C11.9579 13.9373 13.0511 13.0401 13.8203 11.889C14.5895 10.7378 15 9.38447 15 8C15 6.14348 14.2625 4.36301 12.9497 3.05025C11.637 1.7375 9.85652 1 8 1ZM7.955 6.225C7.84361 6.225 7.73678 6.26925 7.65802 6.34802C7.57925 6.42678 7.535 6.53361 7.535 6.645V9.215C7.535 9.68576 7.34799 10.1372 7.01512 10.4701C6.68224 10.803 6.23076 10.99 5.76 10.99C5.28924 10.99 4.83777 10.803 4.50489 10.4701C4.17201 10.1372 3.985 9.68576 3.985 9.215V8.045H5.34V9.165C5.34 9.27639 5.38425 9.38322 5.46302 9.46198C5.54178 9.54075 5.64861 9.585 5.76 9.585C5.87139 9.585 5.97822 9.54075 6.05699 9.46198C6.13575 9.38322 6.18 9.27639 6.18 9.165V6.665C6.20411 6.21118 6.40137 5.7839 6.73114 5.47119C7.0609 5.15849 7.49805 4.98417 7.9525 4.98417C8.40696 4.98417 8.8441 5.15849 9.17387 5.47119C9.50363 5.7839 9.70089 6.21118 9.725 6.665V7.165L8.935 7.42L8.375 7.165V6.665C8.37701 6.60836 8.36766 6.55189 8.34752 6.49891C8.32737 6.44593 8.29683 6.39752 8.25769 6.35652C8.21856 6.31552 8.17162 6.28277 8.11964 6.26018C8.06765 6.23759 8.01168 6.22563 7.955 6.225ZM11.92 9.225C11.8959 9.67882 11.6986 10.1061 11.3689 10.4188C11.0391 10.7315 10.602 10.9058 10.1475 10.9058C9.69305 10.9058 9.2559 10.7315 8.92614 10.4188C8.59637 10.1061 8.39911 9.67882 8.375 9.225V8.07L8.935 8.325L9.725 8.07V9.215C9.725 9.32639 9.76925 9.43322 9.84802 9.51198C9.92678 9.59075 10.0336 9.635 10.145 9.635C10.2564 9.635 10.3632 9.59075 10.442 9.51198C10.5208 9.43322 10.565 9.32639 10.565 9.215V8.095H11.92V9.225Z" fill="black"/>
</svg>
