<svg width="24" height="24" viewBox="0 0 24 24" fill="none" xmlns="http://www.w3.org/2000/svg">
<path d="M12 1.5C9.9233 1.5 7.89323 2.11581 6.16652 3.26957C4.4398 4.42332 3.09399 6.0632 2.29927 7.98182C1.50455 9.90045 1.29661 12.0116 1.70176 14.0484C2.1069 16.0852 3.10693 17.9562 4.57538 19.4246C6.04383 20.8931 7.91476 21.8931 9.95156 22.2982C11.9884 22.7034 14.0996 22.4955 16.0182 21.7007C17.9368 20.906 19.5767 19.5602 20.7304 17.8335C21.8842 16.1068 22.5 14.0767 22.5 12C22.5 9.21523 21.3938 6.54451 19.4246 4.57538C17.4555 2.60625 14.7848 1.5 12 1.5ZM11.9325 9.3375C11.7654 9.3375 11.6052 9.40388 11.487 9.52202C11.3689 9.64017 11.3025 9.80041 11.3025 9.9675V13.8225C11.3025 14.5286 11.022 15.2059 10.5227 15.7052C10.0234 16.2045 9.34614 16.485 8.64001 16.485C7.93387 16.485 7.25665 16.2045 6.75733 15.7052C6.25802 15.2059 5.9775 14.5286 5.9775 13.8225V12.0675H8.01001V13.7475C8.01001 13.9146 8.07638 14.0748 8.19453 14.193C8.31268 14.3111 8.47292 14.3775 8.64001 14.3775C8.80709 14.3775 8.96733 14.3111 9.08548 14.193C9.20363 14.0748 9.27 13.9146 9.27 13.7475V9.9975C9.30617 9.31678 9.60206 8.67585 10.0967 8.20679C10.5914 7.73773 11.2471 7.47626 11.9288 7.47626C12.6104 7.47626 13.2662 7.73773 13.7608 8.20679C14.2554 8.67585 14.5513 9.31678 14.5875 9.9975V10.7475L13.4025 11.13L12.5625 10.7475V9.9975C12.5655 9.91254 12.5515 9.82783 12.5213 9.74836C12.4911 9.6689 12.4452 9.59628 12.3865 9.53478C12.3278 9.47328 12.2574 9.42415 12.1795 9.39027C12.1015 9.35639 12.0175 9.33845 11.9325 9.3375ZM17.88 13.8375C17.8438 14.5182 17.5479 15.1591 17.0533 15.6282C16.5587 16.0973 15.9029 16.3587 15.2213 16.3587C14.5396 16.3587 13.8839 16.0973 13.3892 15.6282C12.8946 15.1591 12.5987 14.5182 12.5625 13.8375V12.105L13.4025 12.4875L14.5875 12.105V13.8225C14.5875 13.9896 14.6539 14.1498 14.772 14.268C14.8902 14.3861 15.0504 14.4525 15.2175 14.4525C15.3846 14.4525 15.5448 14.3861 15.663 14.268C15.7811 14.1498 15.8475 13.9896 15.8475 13.8225V12.1425H17.88V13.8375Z" fill="black"/>
</svg>
