<svg width="16" height="16" viewBox="0 0 16 16" fill="none" xmlns="http://www.w3.org/2000/svg">
<path d="M10 3.5V4.5H9V3.5H10Z" fill="black"/>
<path d="M10 5.5V6.5H9V5.5H10Z" fill="black"/>
<path d="M10 7.5V8.5H9V7.5H10Z" fill="black"/>
<path d="M10 9.5V10.5H9V9.5H10Z" fill="black"/>
<path d="M10 11.5V12.5H9V11.5H10Z" fill="black"/>
<path d="M10 14.5C9.76407 14.5 9 14.3596 9 13.5C9 13.5 9.33333 13.5 10 13.5C10 14.1667 10 14.5 10 14.5Z" fill="black"/>
<path d="M12 13.5V14.5H11V13.5H12Z" fill="black"/>
<path d="M14 13.5C14 13.7359 13.8596 14.5 13 14.5C13 14.5 13 14.1667 13 13.5C13.6667 13.5 14 13.5 14 13.5Z" fill="black"/>
<path d="M14 11.5V12.5H13V11.5H14Z" fill="black"/>
<path d="M14 9.5V10.5H13V9.5H14Z" fill="black"/>
<path d="M14 7.5V8.5H13V7.5H14Z" fill="black"/>
<path d="M14 5.5V6.5H13V5.5H14Z" fill="black"/>
<path d="M14 3.5V4.5H13V3.5H14Z" fill="black"/>
<path d="M13 1.5C13.2359 1.5 14 1.64043 14 2.5C14 2.5 13.6667 2.5 13 2.5C13 1.83333 13 1.5 13 1.5Z" fill="black"/>
<path d="M12 1.5V2.5H11V1.5H12Z" fill="black"/>
<path d="M9 2.5C9 2.26407 9.14043 1.5 10 1.5C10 1.5 10 1.83333 10 2.5C9.33333 2.5 9 2.5 9 2.5Z" fill="black"/>
<path fill-rule="evenodd" clip-rule="evenodd" d="M7 13.5C7 14.0523 6.55228 14.5 6 14.5H3C2.44772 14.5 2 14.0523 2 13.5V2.5C2 1.94772 2.44772 1.5 3 1.5H6C6.55228 1.5 7 1.94772 7 2.5V13.5ZM6 13.5V2.5H3V13.5H6Z" fill="black"/>
</svg>
