<svg width="24" height="24" viewBox="0 0 24 24" fill="none" xmlns="http://www.w3.org/2000/svg">
<path d="M15 5.25V6.75H13.5V5.25H15Z" fill="black"/>
<path d="M15 8.25V9.75H13.5V8.25H15Z" fill="black"/>
<path d="M15 11.25V12.75H13.5V11.25H15Z" fill="black"/>
<path d="M15 14.25V15.75H13.5V14.25H15Z" fill="black"/>
<path d="M15 17.25V18.75H13.5V17.25H15Z" fill="black"/>
<path d="M15 21.75C14.6461 21.75 13.5 21.5394 13.5 20.25C13.5 20.25 14 20.25 15 20.25C15 21.25 15 21.75 15 21.75Z" fill="black"/>
<path d="M18 20.25V21.75H16.5V20.25H18Z" fill="black"/>
<path d="M21 20.25C21 20.6039 20.7894 21.75 19.5 21.75C19.5 21.75 19.5 21.25 19.5 20.25C20.5 20.25 21 20.25 21 20.25Z" fill="black"/>
<path d="M21 17.25V18.75H19.5V17.25H21Z" fill="black"/>
<path d="M21 14.25V15.75H19.5V14.25H21Z" fill="black"/>
<path d="M21 11.25V12.75H19.5V11.25H21Z" fill="black"/>
<path d="M21 8.25V9.75H19.5V8.25H21Z" fill="black"/>
<path d="M21 5.25V6.75H19.5V5.25H21Z" fill="black"/>
<path d="M19.5 2.25C19.8539 2.25 21 2.46064 21 3.75C21 3.75 20.5 3.75 19.5 3.75C19.5 2.75 19.5 2.25 19.5 2.25Z" fill="black"/>
<path d="M18 2.25V3.75H16.5V2.25H18Z" fill="black"/>
<path d="M13.5 3.75C13.5 3.3961 13.7106 2.25 15 2.25C15 2.25 15 2.75 15 3.75C14 3.75 13.5 3.75 13.5 3.75Z" fill="black"/>
<path fill-rule="evenodd" clip-rule="evenodd" d="M10.5 20.25C10.5 21.0784 9.82843 21.75 9 21.75H4.5C3.67157 21.75 3 21.0784 3 20.25V3.75C3 2.92157 3.67157 2.25 4.5 2.25H9C9.82843 2.25 10.5 2.92157 10.5 3.75V20.25ZM9 20.25V3.75H4.5V20.25H9Z" fill="black"/>
</svg>
