<svg width="16" height="17" viewBox="0 0 16 17" fill="none" xmlns="http://www.w3.org/2000/svg">
<path d="M11 3.55859H2V4.55859H11V3.55859Z" fill="black"/>
<path d="M11 6.55859H2V7.55859H11V6.55859Z" fill="black"/>
<path d="M9 9.55859H2V10.5586H9V9.55859Z" fill="black"/>
<path d="M7 12.5586H2V13.5586H7V12.5586Z" fill="black"/>
<path fill-rule="evenodd" clip-rule="evenodd" d="M13.355 8.70649L14.855 10.2065C14.9019 10.253 14.9391 10.3083 14.9644 10.3692C14.9898 10.4301 15.0029 10.4955 15.0029 10.5615C15.0029 10.6275 14.9898 10.6929 14.9644 10.7538C14.9391 10.8147 14.9019 10.87 14.855 10.9165L10.205 15.5615H8V13.3565L12.645 8.70649C12.6915 8.65963 12.7468 8.62243 12.8077 8.59705C12.8686 8.57166 12.934 8.55859 13 8.55859C13.066 8.55859 13.1314 8.57166 13.1923 8.59705C13.2532 8.62243 13.3085 8.65963 13.355 8.70649ZM9 14.5615H9.795L12.295 12.0615L11.5 11.2665L9 13.7665V14.5615ZM12.205 10.5615L13 11.3565L13.795 10.5615L13 9.76649L12.205 10.5615Z" fill="black"/>
</svg>
