<svg width="24" height="25" viewBox="0 0 24 25" fill="none" xmlns="http://www.w3.org/2000/svg">
<path d="M16.5 5.05859H3V6.55859H16.5V5.05859Z" fill="black"/>
<path d="M16.5 9.55859H3V11.0586H16.5V9.55859Z" fill="black"/>
<path d="M13.5 14.0586H3V15.5586H13.5V14.0586Z" fill="black"/>
<path d="M10.5 18.5586H3V20.0586H10.5V18.5586Z" fill="black"/>
<path fill-rule="evenodd" clip-rule="evenodd" d="M20.0325 12.7804L22.2825 15.0304C22.3528 15.1002 22.4086 15.1831 22.4467 15.2745C22.4847 15.3659 22.5043 15.4639 22.5043 15.5629C22.5043 15.662 22.4847 15.76 22.4467 15.8514C22.4086 15.9428 22.3528 16.0257 22.2825 16.0954L15.3075 23.0629H12V19.7554L18.9675 12.7804C19.0372 12.7101 19.1202 12.6543 19.2116 12.6163C19.303 12.5782 19.401 12.5586 19.5 12.5586C19.599 12.5586 19.697 12.5782 19.7884 12.6163C19.8798 12.6543 19.9628 12.7101 20.0325 12.7804ZM13.5 21.5629H14.6925L18.4425 17.8129L17.25 16.6204L13.5 20.3704V21.5629ZM18.3075 15.5629L19.5 16.7554L20.6925 15.5629L19.5 14.3704L18.3075 15.5629Z" fill="black"/>
</svg>
