<svg width="16" height="16" viewBox="0 0 16 16" fill="none" xmlns="http://www.w3.org/2000/svg">
<path fill-rule="evenodd" clip-rule="evenodd" d="M14.5001 2.50016C14.5001 1.94788 14.0524 1.50016 13.5001 1.50016H5.50012C5.36714 1.49659 5.23925 1.5514 5.15012 1.65016L1.65012 5.15016C1.55136 5.23929 1.49655 5.36718 1.50012 5.50016V13.5C1.50012 14.0523 1.94784 14.5 2.50012 14.5H7.49996V13.5H2.50012V6.50016H5.50012C6.05241 6.50016 6.50012 6.05245 6.50012 5.50016V2.50016H13.5001L13.5 7.5H14.5L14.5001 2.50016ZM2.70012 5.50016L5.50012 2.70016V5.50016H2.70012Z" fill="black"/>
<path fill-rule="evenodd" clip-rule="evenodd" d="M11.5 11.5V9.5H12.5V11.5H14.5V12.5H12.5V14.5H11.5V12.5H9.49996V11.5H11.5Z" fill="black"/>
</svg>
