<svg width="32" height="32" viewBox="0 0 32 32" fill="none" xmlns="http://www.w3.org/2000/svg">
<path fill-rule="evenodd" clip-rule="evenodd" d="M29.0002 5.00033C29.0002 3.89576 28.1048 3.00033 27.0002 3.00033H11.0002C10.7343 2.99319 10.4785 3.1028 10.3002 3.30033L3.30024 10.3003C3.10272 10.4786 2.9931 10.7344 3.00024 11.0003V27C3.00024 28.1046 3.89567 29 5.00024 29H14.9999V27H5.00024V13.0003H11.0002C12.1048 13.0003 13.0002 12.1049 13.0002 11.0003V5.00033H27.0002L26.9999 15H28.9999L29.0002 5.00033ZM5.40024 11.0003L11.0002 5.40033V11.0003H5.40024Z" fill="black"/>
<path fill-rule="evenodd" clip-rule="evenodd" d="M22.9999 23V19H24.9999V23H28.9999V25H24.9999V29H22.9999V25H18.9999V23H22.9999Z" fill="black"/>
</svg>
