<?xml version="1.0" encoding="UTF-8"?>
<svg width="24px" height="24px" viewBox="0 0 24 24" version="1.1" xmlns="http://www.w3.org/2000/svg" xmlns:xlink="http://www.w3.org/1999/xlink">
    <title>icon/digital experience/elements/typography/text/24</title>
    <g id="icon/digital-experience/elements/typography/text/24" stroke="none" stroke-width="1" fill="none" fill-rule="evenodd">
        <path d="M13.5,18 L13.5,19.5 L2.25,19.5 L2.25,18 L13.5,18 Z M21.75,13.5 L21.75,15 L2.25,15 L2.25,13.5 L21.75,13.5 Z M21,9 L21,10.5 L9,10.5 L9,9 L21,9 Z M6.75,4.5 L6.75,6 L5.25,6 L5.25,10.5 L3.75,10.5 L3.75,6 L2.25,6 L2.25,4.5 L6.75,4.5 Z M21,4.5 L21,6 L9,6 L9,4.5 L21,4.5 Z" id="icon-color" fill="#3D5466"></path>
    </g>
</svg>