<?xml version="1.0" encoding="UTF-8"?>
<svg width="32px" height="32px" viewBox="0 0 32 32" version="1.1" xmlns="http://www.w3.org/2000/svg" xmlns:xlink="http://www.w3.org/1999/xlink">
    <title>icon/digital experience/elements/typography/text/32</title>
    <g id="icon/digital-experience/elements/typography/text/32" stroke="none" stroke-width="1" fill="none" fill-rule="evenodd">
        <path d="M18,24 L18,26 L3,26 L3,24 L18,24 Z M29,18 L29,20 L3,20 L3,18 L29,18 Z M28,12 L28,14 L12,14 L12,12 L28,12 Z M9,6 L9,8 L7,8 L7,14 L5,14 L5,8 L3,8 L3,6 L9,6 Z M28,6 L28,8 L12,8 L12,6 L28,6 Z" id="icon-color" fill="#3D5466"></path>
    </g>
</svg>