<?xml version="1.0" encoding="UTF-8"?>
<svg width="16px" height="16px" viewBox="0 0 16 16" version="1.1" xmlns="http://www.w3.org/2000/svg" xmlns:xlink="http://www.w3.org/1999/xlink">
    <title>icon/digital experience/elements/wcm/content list item/16</title>
    <g id="icon/digital-experience/elements/wcm/content-list-item/16" stroke="none" stroke-width="1" fill="none" fill-rule="evenodd">
        <path d="M14,8 C14.5522847,8 15,8.44771525 15,9 L15,14 C15,14.5522847 14.5522847,15 14,15 L9,15 C8.44771525,15 8,14.5522847 8,14 L8,9 C8,8.44771525 8.44771525,8 9,8 L14,8 Z M14,13 L9,13 L9,14 L14,14 L14,13 Z M14,11 L9,11 L9,12 L14,12 L14,11 Z M3,10 L3,10.1597222 L3,10.1597222 L3,11 C2.19415206,11 2.02036276,10.3284546 2.00178694,10.0501106 L2,10 L3,10 Z M5,10 C5,10.8058479 4.32845465,10.9796372 4.05011064,10.9982131 L4,11 L4,10 L5,10 Z M7,9 L7,10 L6,10 L6,9 L7,9 Z M14,9 L9,9 L9,10 L14,10 L14,9 Z M4,8 C4.23593062,8 5,8.14042886 5,9 L4,9 L4,8 Z M3,8 L3,8.84027778 L3,9 L3,9 L2,9 L2,9 C2,8.76406938 2.14042886,8 3,8 Z M4.4,3 C4.73137085,3 5,3.26862915 5,3.6 L5,5.4 C5,5.73137085 4.73137085,6 4.4,6 L2.6,6 C2.26862915,6 2,5.73137085 2,5.4 L2,3.6 C2,3.26862915 2.26862915,3 2.6,3 L4.4,3 Z M13,4 L13,5 L6,5 L6,4 L13,4 Z M4,4 L3,4 L3,5 L4,5 L4,4 Z" id="icon-color" fill="#3D5466"></path>
    </g>
</svg>