<?xml version="1.0" encoding="UTF-8"?>
<svg width="32px" height="32px" viewBox="0 0 32 32" version="1.1" xmlns="http://www.w3.org/2000/svg" xmlns:xlink="http://www.w3.org/1999/xlink">
    <title>icon/digital experience/elements/wcm/content list item/32</title>
    <g id="icon/digital-experience/elements/wcm/content-list-item/32" stroke="none" stroke-width="1" fill="none" fill-rule="evenodd">
        <path d="M28,16 C29.1045695,16 30,16.8954305 30,18 L30,28 C30,29.1045695 29.1045695,30 28,30 L18,30 C16.8954305,30 16,29.1045695 16,28 L16,18 C16,16.8954305 16.8954305,16 18,16 L28,16 Z M28,26 L18,26 L18,28 L28,28 L28,26 Z M28,22 L18,22 L18,24 L28,24 L28,22 Z M6,20 L6,20.2283737 L6,20.2283737 L6,22 C4.34697859,22 4.02373208,20.5871498 4.00131226,20.0589861 L4,20 L6,20 Z M10,20 C10,21.6530214 8.58714981,21.9762679 8.05898611,21.9986877 L8,22 L8,20 L10,20 Z M14,18 L14,20 L12,20 L12,18 L14,18 Z M28,18 L18,18 L18,20 L28,20 L28,18 Z M8,16 C8.47186124,16 10,16.2808577 10,18 L8,18 L8,16 Z M6,16 L6,17.7716263 L6,18 L6,18 L4,18 L4,18 C4,17.5281388 4.28085773,16 6,16 Z M8.8,6 C9.4627417,6 10,6.5372583 10,7.2 L10,10.8 C10,11.4627417 9.4627417,12 8.8,12 L5.2,12 C4.5372583,12 4,11.4627417 4,10.8 L4,7.2 C4,6.5372583 4.5372583,6 5.2,6 L8.8,6 Z M26,8 L26,10 L12,10 L12,8 L26,8 Z M8,8 L6,8 L6,10 L8,10 L8,8 Z" id="icon-color" fill="#3D5466"></path>
    </g>
</svg>