<?xml version="1.0" encoding="UTF-8"?>
<svg width="24px" height="24px" viewBox="0 0 24 24" version="1.1" xmlns="http://www.w3.org/2000/svg" xmlns:xlink="http://www.w3.org/1999/xlink">
    <title>icon/digital experience/elements/typography/h6/24</title>
    <g id="icon/digital-experience/elements/typography/h6/24" stroke="none" stroke-width="1" fill="none" fill-rule="evenodd">
        <path d="M18.75,6.75 L18.75,8.25 L15,8.25 L15,10.5 L18,10.5 C18.8284271,10.5 19.5,11.1715729 19.5,12 L19.5,12 L19.5,15.75 C19.5,16.5784271 18.8284271,17.25 18,17.25 L18,17.25 L15,17.25 C14.1715729,17.25 13.5,16.5784271 13.5,15.75 L13.5,15.75 L13.5,8.25 C13.5,7.42157288 14.1715729,6.75 15,6.75 L15,6.75 L18.75,6.75 Z M6,6.75 L6,11.25 L9,11.25 L9,6.75 L10.5,6.75 L10.5,17.25 L9,17.25 L9,12.75 L6,12.75 L6,17.25 L4.5,17.25 L4.5,6.75 L6,6.75 Z M18,12 L15,12 L15,15.75 L18,15.75 L18,12 Z" id="icon-color" fill="#3D5466"></path>
    </g>
</svg>