<?xml version="1.0" encoding="UTF-8"?>
<svg width="16px" height="16px" viewBox="0 0 16 16" version="1.1" xmlns="http://www.w3.org/2000/svg" xmlns:xlink="http://www.w3.org/1999/xlink">
    <title>icon/digital experience/sites/16</title>
    <g id="icon/digital-experience/sites/16" stroke="none" stroke-width="1" fill="none" fill-rule="evenodd">
        <path d="M13,12 C13,12.5522847 12.5522847,13 12,13 L4,13 L4,14 L14,14 L14,4 L13,4 L13,12 Z M12,11 L2,11 L2,12 L12,12 L12,11 Z M12,6 L2,6 L2,10 L12,10 L12,6 Z M12,2 L2,2 L2,5 L12,5 L12,2 Z M11,3 L11,4 L8,4 L8,3 L11,3 Z M4,3 L4,4 L3,4 L3,3 L4,3 Z M2,13 C1.44771525,13 1,12.5522847 1,12 L1,2 C1,1.44771525 1.44771525,1 2,1 L12,1 C12.5522847,1 13,1.44771525 13,2 L13,3 L14,3 C14.5522847,3 15,3.44771525 15,4 L15,14 C15,14.5522847 14.5522847,15 14,15 L4,15 C3.44771525,15 3,14.5522847 3,14 L3,13 L2,13 Z" id="icon-color" fill="#3D5466"></path>
    </g>
</svg>