<?xml version="1.0" encoding="UTF-8"?>
<svg width="32px" height="32px" viewBox="0 0 32 32" version="1.1" xmlns="http://www.w3.org/2000/svg" xmlns:xlink="http://www.w3.org/1999/xlink">
    <title>icon/digital experience/sites/32</title>
    <g id="icon/digital-experience/sites/32" stroke="none" stroke-width="1" fill="none" fill-rule="evenodd">
        <path d="M26,24 C26,25.1045695 25.1045695,26 24,26 L8,26 L8,28 L28,28 L28,8 L26,8 L26,24 Z M24,22 L4,22 L4,24 L24,24 L24,22 Z M24,12 L4,12 L4,20 L24,20 L24,12 Z M24,4 L4,4 L4,10 L24,10 L24,4 Z M22,6 L22,8 L16,8 L16,6 L22,6 Z M8,6 L8,8 L6,8 L6,6 L8,6 Z M4,26 C2.8954305,26 2,25.1045695 2,24 L2,4 C2,2.8954305 2.8954305,2 4,2 L24,2 C25.1045695,2 26,2.8954305 26,4 L26,6 L28,6 C29.1045695,6 30,6.8954305 30,8 L30,28 C30,29.1045695 29.1045695,30 28,30 L8,30 C6.8954305,30 6,29.1045695 6,28 L6,26 L4,26 Z" id="icon-color" fill="#3D5466"></path>
    </g>
</svg>