<svg width="16" height="16" viewBox="0 0 16 16" fill="none" xmlns="http://www.w3.org/2000/svg">
<path d="M15 8H14V2H8V1H14C14.2651 1.0003 14.5193 1.10576 14.7068 1.29323C14.8942 1.4807 14.9997 1.73488 15 2V8Z" fill="black"/>
<path d="M12.5 11.5H11.5V4.5H4.5V3.5H11.5C11.7651 3.5003 12.0193 3.60576 12.2068 3.79323C12.3942 3.9807 12.4997 4.23488 12.5 4.5V11.5Z" fill="black"/>
<path d="M9 15H2C1.73488 14.9997 1.4807 14.8942 1.29323 14.7068C1.10576 14.5193 1.0003 14.2651 1 14V7C1.00026 6.73486 1.10571 6.48066 1.29319 6.29319C1.48066 6.10571 1.73486 6.00026 2 6H9C9.26512 6.0003 9.5193 6.10576 9.70677 6.29323C9.89424 6.4807 9.9997 6.73488 10 7V14C9.99964 14.2651 9.89417 14.5193 9.70671 14.7067C9.51925 14.8942 9.26511 14.9996 9 15ZM2 7V14H9.001L9 7H2Z" fill="black"/>
<path d="M6.5 9H7V8H6.5C5.92397 8.00079 5.36583 8.20014 4.91965 8.56445C4.47346 8.92877 4.16652 9.43577 4.05055 10H3.5V11H4.05055C4.16652 11.5642 4.47346 12.0712 4.91965 12.4355C5.36583 12.7999 5.92397 12.9992 6.5 13H7V12H6.5C6.10218 12 5.72064 11.842 5.43934 11.5607C5.15804 11.2794 5 10.8978 5 10.5C5 10.1022 5.15804 9.72064 5.43934 9.43934C5.72064 9.15804 6.10218 9 6.5 9Z" fill="black"/>
</svg>
