<svg width="24" height="24" viewBox="0 0 24 24" fill="none" xmlns="http://www.w3.org/2000/svg">
<path d="M22.5 12H21V3H12V1.5H21C21.3977 1.50046 21.779 1.65864 22.0602 1.93984C22.3414 2.22105 22.4995 2.60232 22.5 3V12Z" fill="black"/>
<path d="M18.75 17.25H17.25V6.75H6.75V5.25H17.25C17.6477 5.25046 18.029 5.40864 18.3102 5.68984C18.5914 5.97105 18.7495 6.35232 18.75 6.75V17.25Z" fill="black"/>
<path d="M13.5 22.5H3C2.60232 22.4995 2.22105 22.3414 1.93984 22.0602C1.65864 21.779 1.50046 21.3977 1.5 21V10.5C1.5004 10.1023 1.65856 9.721 1.93978 9.43978C2.221 9.15856 2.6023 9.0004 3 9H13.5C13.8977 9.00046 14.279 9.15864 14.5602 9.43984C14.8414 9.72105 14.9995 10.1023 15 10.5V21C14.9995 21.3977 14.8413 21.7789 14.5601 22.0601C14.2789 22.3413 13.8977 22.4995 13.5 22.5ZM3 10.5V21H13.5015L13.5 10.5H3Z" fill="black"/>
<path d="M9.75 13.5H10.5V12H9.75C8.88596 12.0012 8.04875 12.3002 7.37947 12.8467C6.71019 13.3932 6.24978 14.1537 6.07582 15H5.25V16.5H6.07582C6.24978 17.3463 6.71019 18.1068 7.37947 18.6533C8.04875 19.1998 8.88596 19.4988 9.75 19.5H10.5V18H9.75C9.15326 18 8.58097 17.7629 8.15901 17.341C7.73705 16.919 7.5 16.3467 7.5 15.75C7.5 15.1533 7.73705 14.581 8.15901 14.159C8.58097 13.7371 9.15326 13.5 9.75 13.5Z" fill="black"/>
</svg>
