<svg width="16" height="16" viewBox="0 0 16 16" fill="none" xmlns="http://www.w3.org/2000/svg">
<path fill-rule="evenodd" clip-rule="evenodd" d="M13.5002 1.5001C14.0524 1.5001 14.5002 1.94782 14.5002 2.5001L14.5 5.49994H13.5L13.5002 2.5001H6.50016V5.5001C6.50016 6.05239 6.05245 6.5001 5.50016 6.5001H2.50016V13.4999H6.5V14.4999H2.50016C1.94788 14.4999 1.50016 14.0522 1.50016 13.4999V5.5001C1.49659 5.36712 1.5514 5.23923 1.65016 5.1501L5.15016 1.6501C5.23929 1.55134 5.36718 1.49653 5.50016 1.5001H13.5002ZM5.50016 2.7001L2.70016 5.5001H5.50016V2.7001Z" fill="black"/>
<path d="M9.205 11.795L10.5 13.09L13.795 9.79498L14.5 10.5L10.5 14.5L8.5 12.5L9.205 11.795Z" fill="black"/>
</svg>
