<svg width="32" height="32" viewBox="0 0 32 32" fill="none" xmlns="http://www.w3.org/2000/svg">
<path fill-rule="evenodd" clip-rule="evenodd" d="M27.0003 3.00021C28.1049 3.00021 29.0003 3.89564 29.0003 5.00021L29 10.9999H27L27.0003 5.00021H13.0003V11.0002C13.0003 12.1048 12.1049 13.0002 11.0003 13.0002H5.00033V26.9999H13V28.9999H5.00033C3.89576 28.9999 3.00033 28.1044 3.00033 26.9999V11.0002C2.99319 10.7342 3.1028 10.4785 3.30033 10.3002L10.3003 3.30021C10.4786 3.10268 10.7344 2.99306 11.0003 3.00021H27.0003ZM11.0003 5.40021L5.40033 11.0002H11.0003V5.40021Z" fill="black"/>
<path d="M18.41 23.59L21 26.18L27.59 19.59L29 21L21 29L17 25L18.41 23.59Z" fill="black"/>
</svg>
