<svg width="16" height="16" viewBox="0 0 16 16" fill="none" xmlns="http://www.w3.org/2000/svg">
<path fill-rule="evenodd" clip-rule="evenodd" d="M2.3335 2.3335H6.60801V6.60801H2.3335V2.3335ZM1.3335 2.3335C1.3335 1.78121 1.78122 1.3335 2.3335 1.3335H6.60801C7.1603 1.3335 7.60801 1.78121 7.60801 2.3335V6.60801C7.60801 7.16029 7.1603 7.60801 6.60801 7.60801H2.3335C1.78122 7.60801 1.3335 7.16029 1.3335 6.60801V2.3335ZM9.39234 2.3335H13.6668V6.60801H9.39234V2.3335ZM8.39234 2.3335C8.39234 1.78121 8.84006 1.3335 9.39234 1.3335H13.6668C14.2191 1.3335 14.6668 1.78121 14.6668 2.3335V6.60801C14.6668 7.16029 14.2191 7.60801 13.6668 7.60801H9.39234C8.84006 7.60801 8.39234 7.16029 8.39234 6.60801V2.3335ZM13.6668 9.39242H9.39234V13.6669H13.6668V9.39242ZM9.39234 8.39242C8.84006 8.39242 8.39234 8.84013 8.39234 9.39242V13.6669C8.39234 14.2192 8.84006 14.6669 9.39234 14.6669H13.6668C14.2191 14.6669 14.6668 14.2192 14.6668 13.6669V9.39242C14.6668 8.84013 14.2191 8.39242 13.6668 8.39242H9.39234ZM2.3335 9.39242H6.60801V13.6669H2.3335V9.39242ZM1.3335 9.39242C1.3335 8.84013 1.78122 8.39242 2.3335 8.39242H6.60801C7.1603 8.39242 7.60801 8.84013 7.60801 9.39242V13.6669C7.60801 14.2192 7.1603 14.6669 6.60801 14.6669H2.3335C1.78122 14.6669 1.3335 14.2192 1.3335 13.6669V9.39242Z" fill="black"/>
</svg>
