<svg width="32" height="32" viewBox="0 0 32 32" fill="none" xmlns="http://www.w3.org/2000/svg">
<path fill-rule="evenodd" clip-rule="evenodd" d="M4.66699 4.66699H13.216V13.216H4.66699V4.66699ZM2.66699 4.66699C2.66699 3.56241 3.56243 2.66699 4.66699 2.66699H13.216C14.3206 2.66699 15.216 3.56241 15.216 4.66699V13.216C15.216 14.3206 14.3206 15.216 13.216 15.216H4.66699C3.56243 15.216 2.66699 14.3206 2.66699 13.216V4.66699ZM18.7847 4.66699H27.3337V13.216H18.7847V4.66699ZM16.7847 4.66699C16.7847 3.56241 17.6801 2.66699 18.7847 2.66699H27.3337C28.4383 2.66699 29.3337 3.56241 29.3337 4.66699V13.216C29.3337 14.3206 28.4383 15.216 27.3337 15.216H18.7847C17.6801 15.216 16.7847 14.3206 16.7847 13.216V4.66699ZM27.3337 18.7848H18.7847V27.3338H27.3337V18.7848ZM18.7847 16.7848C17.6801 16.7848 16.7847 17.6803 16.7847 18.7848V27.3338C16.7847 28.4384 17.6801 29.3338 18.7847 29.3338H27.3337C28.4383 29.3338 29.3337 28.4384 29.3337 27.3338V18.7848C29.3337 17.6803 28.4383 16.7848 27.3337 16.7848H18.7847ZM4.66699 18.7848H13.216V27.3338H4.66699V18.7848ZM2.66699 18.7848C2.66699 17.6803 3.56243 16.7848 4.66699 16.7848H13.216C14.3206 16.7848 15.216 17.6803 15.216 18.7848V27.3338C15.216 28.4384 14.3206 29.3338 13.216 29.3338H4.66699C3.56243 29.3338 2.66699 28.4384 2.66699 27.3338V18.7848Z" fill="black"/>
</svg>
