<svg width="16" height="16" viewBox="0 0 16 16" fill="none" xmlns="http://www.w3.org/2000/svg">
<path d="M12.8536 9.64645C13.0271 9.82001 13.0464 10.0894 12.9114 10.2843L12.8536 10.3536L11.8536 11.3536C11.6583 11.5488 11.3417 11.5488 11.1464 11.3536C10.9729 11.18 10.9536 10.9106 11.0886 10.7157L11.1464 10.6464L12.1464 9.64645C12.3417 9.45118 12.6583 9.45118 12.8536 9.64645Z" fill="black"/>
<path d="M12.8536 7.64645C13.0271 7.82001 13.0464 8.08944 12.9114 8.28431L12.8536 8.35355L9.85355 11.3536C9.65829 11.5488 9.34171 11.5488 9.14645 11.3536C8.97288 11.18 8.9536 10.9106 9.08859 10.7157L9.14645 10.6464L12.1464 7.64645C12.3417 7.45118 12.6583 7.45118 12.8536 7.64645Z" fill="black"/>
<path d="M5.5 4.5V5.5H4.75V7.5H3.75V5.5H3V4.5H5.5Z" fill="black"/>
<path fill-rule="evenodd" clip-rule="evenodd" d="M14 2.5C14.5523 2.5 15 2.94772 15 3.5V12.5C15 13.0523 14.5523 13.5 14 13.5H2C1.44772 13.5 1 13.0523 1 12.5V3.5C1 2.94772 1.44772 2.5 2 2.5H14ZM14 3.5H2V12.5H14V3.5Z" fill="black"/>
</svg>
