<svg width="32" height="32" viewBox="0 0 32 32" fill="none" xmlns="http://www.w3.org/2000/svg">
<path d="M25.7071 19.2929C26.0542 19.64 26.0928 20.1789 25.8228 20.5686L25.7071 20.7071L23.7071 22.7071C23.3166 23.0976 22.6834 23.0976 22.2929 22.7071C21.9458 22.36 21.9072 21.8211 22.1772 21.4314L22.2929 21.2929L24.2929 19.2929C24.6834 18.9024 25.3166 18.9024 25.7071 19.2929Z" fill="black"/>
<path d="M25.7071 15.2929C26.0542 15.64 26.0928 16.1789 25.8228 16.5686L25.7071 16.7071L19.7071 22.7071C19.3166 23.0976 18.6834 23.0976 18.2929 22.7071C17.9458 22.36 17.9072 21.8211 18.1772 21.4314L18.2929 21.2929L24.2929 15.2929C24.6834 14.9024 25.3166 14.9024 25.7071 15.2929Z" fill="black"/>
<path d="M11 9V11H9.5V15H7.5V11H6V9H11Z" fill="black"/>
<path fill-rule="evenodd" clip-rule="evenodd" d="M28 5C29.1046 5 30 5.89543 30 7V25C30 26.1046 29.1046 27 28 27H4C2.89543 27 2 26.1046 2 25V7C2 5.89543 2.89543 5 4 5H28ZM28 7H4V25H28V7Z" fill="black"/>
</svg>
