<svg width="16" height="16" viewBox="0 0 16 16" fill="none" xmlns="http://www.w3.org/2000/svg">
<path d="M8.00001 12C7.91724 12 7.83577 11.9794 7.76296 11.94L1.26296 8.43999L1.73706 7.55999L8.00001 10.9321L14.263 7.55999L14.7371 8.44034L8.23706 11.9403C8.16422 11.9796 8.08275 12.0001 8.00001 12Z" fill="black"/>
<path d="M8.00001 15C7.91724 15 7.83577 14.9794 7.76296 14.94L1.26296 11.44L1.73706 10.56L8.00001 13.9321L14.263 10.56L14.7371 11.4403L8.23706 14.9403C8.16422 14.9796 8.08275 15.0001 8.00001 15Z" fill="black"/>
<path d="M8.00001 8.99999C7.91724 8.99999 7.83577 8.97937 7.76296 8.93999L1.26296 5.43999C1.1835 5.39718 1.11711 5.33365 1.07083 5.25616C1.02456 5.17866 1.00012 5.09008 1.00012 4.99982C1.00012 4.90956 1.02456 4.82098 1.07083 4.74348C1.11711 4.66598 1.1835 4.60246 1.26296 4.55964L7.76296 1.05964C7.83579 1.02034 7.91725 0.999756 8.00001 0.999756C8.08277 0.999756 8.16423 1.02034 8.23706 1.05964L14.7371 4.55964C14.8165 4.60246 14.8829 4.66598 14.9292 4.74348C14.9755 4.82098 14.9999 4.90956 14.9999 4.99982C14.9999 5.09008 14.9755 5.17866 14.9292 5.25616C14.8829 5.33365 14.8165 5.39718 14.7371 5.43999L8.23706 8.93999C8.16425 8.97937 8.08278 8.99999 8.00001 8.99999Z" fill="black"/>
</svg>
