<svg width="32" height="32" viewBox="0 0 32 32" fill="none" xmlns="http://www.w3.org/2000/svg">
<path d="M15.9998 24C15.8342 24 15.6713 23.9587 15.5257 23.88L2.52568 16.88L3.47388 15.12L15.9998 21.8643L28.5257 15.12L29.4739 16.8807L16.4739 23.8807C16.3282 23.9592 16.1653 24.0002 15.9998 24Z" fill="black"/>
<path d="M15.9998 30C15.8342 30 15.6713 29.9587 15.5257 29.88L2.52568 22.88L3.47388 21.12L15.9998 27.8643L28.5257 21.12L29.4739 22.8807L16.4739 29.8807C16.3282 29.9592 16.1653 30.0002 15.9998 30Z" fill="black"/>
<path d="M15.9998 18C15.8342 18 15.6713 17.9587 15.5257 17.88L2.52568 10.88C2.36675 10.7944 2.23397 10.6673 2.14142 10.5123C2.04887 10.3573 2 10.1802 2 9.99964C2 9.81911 2.04887 9.64195 2.14142 9.48696C2.23397 9.33196 2.36675 9.20491 2.52568 9.11929L15.5257 2.11929C15.6713 2.04067 15.8343 1.99951 15.9998 1.99951C16.1653 1.99951 16.3282 2.04067 16.4739 2.11929L29.4739 9.11929C29.6328 9.20491 29.7656 9.33196 29.8581 9.48696C29.9507 9.64195 29.9995 9.81911 29.9995 9.99964C29.9995 10.1802 29.9507 10.3573 29.8581 10.5123C29.7656 10.6673 29.6328 10.7944 29.4739 10.88L16.4739 17.88C16.3283 17.9587 16.1653 18 15.9998 18Z" fill="black"/>
</svg>
