<svg width="16" height="16" viewBox="0 0 16 16" fill="none" xmlns="http://www.w3.org/2000/svg">
<path fill-rule="evenodd" clip-rule="evenodd" d="M14.4999 2.5001C14.4999 1.94782 14.0522 1.5001 13.4999 1.5001H5.49992C5.36694 1.49653 5.23905 1.55134 5.14992 1.6501L1.64992 5.1501C1.55116 5.23923 1.49635 5.36712 1.49992 5.5001V13.4999C1.49992 14.0522 1.94764 14.4999 2.49992 14.4999H6.49976V13.4999H2.49992V6.5001H5.49992C6.0522 6.5001 6.49992 6.05239 6.49992 5.5001V2.5001H13.4999L13.4998 6.49994H14.4998L14.4999 2.5001ZM2.69992 5.5001L5.49992 2.7001V5.5001H2.69992Z" fill="black"/>
<path d="M12.9999 12.2949L11.9999 11.2949V9.99994H10.9999V11.7049L12.2949 12.9999L12.9999 12.2949Z" fill="black"/>
<path fill-rule="evenodd" clip-rule="evenodd" d="M9.55541 14.4101C10.131 14.7947 10.8077 14.9999 11.4999 14.9999C12.4282 14.9999 13.3184 14.6312 13.9748 13.9748C14.6312 13.3184 14.9999 12.4282 14.9999 11.4999C14.9999 10.8077 14.7946 10.131 14.4101 9.55546C14.0255 8.97989 13.4788 8.53127 12.8393 8.26636C12.1998 8.00146 11.496 7.93214 10.8171 8.06719C10.1382 8.20224 9.51452 8.53559 9.02503 9.02508C8.53555 9.51456 8.20221 10.1382 8.06716 10.8171C7.93211 11.4961 8.00142 12.1998 8.26633 12.8393C8.53123 13.4789 8.97984 14.0255 9.55541 14.4101ZM10.111 9.42127C10.5221 9.14657 11.0055 8.99995 11.4999 8.99995C12.163 8.99995 12.7988 9.26334 13.2677 9.73218C13.7365 10.201 13.9999 10.8369 13.9999 11.4999C13.9999 11.9944 13.8533 12.4778 13.5786 12.8889C13.3039 13.3 12.9134 13.6204 12.4566 13.8096C11.9998 13.9989 11.4971 14.0484 11.0122 13.9519C10.5272 13.8554 10.0818 13.6173 9.73214 13.2677C9.38251 12.9181 9.14441 12.4726 9.04794 11.9877C8.95148 11.5027 9.00099 11.0001 9.19021 10.5432C9.37943 10.0864 9.69986 9.69598 10.111 9.42127Z" fill="black"/>
</svg>
