<svg width="32" height="32" viewBox="0 0 32 32" fill="none" xmlns="http://www.w3.org/2000/svg">
<path fill-rule="evenodd" clip-rule="evenodd" d="M28.9998 5.00021C28.9998 3.89564 28.1044 3.00021 26.9998 3.00021H10.9998C10.7339 2.99306 10.4781 3.10268 10.2998 3.30021L3.29984 10.3002C3.10231 10.4785 2.9927 10.7342 2.99984 11.0002V26.9999C2.99984 28.1044 3.89527 28.9999 4.99984 28.9999H12.9995V26.9999H4.99984V13.0002H10.9998C12.1044 13.0002 12.9998 12.1048 12.9998 11.0002V5.00021H26.9998L26.9995 12.9999H28.9995L28.9998 5.00021ZM5.39984 11.0002L10.9998 5.40021V11.0002H5.39984Z" fill="black"/>
<path d="M25.9998 24.5899L23.9998 22.5899V19.9999H21.9998V23.4099L24.5898 25.9999L25.9998 24.5899Z" fill="black"/>
<path fill-rule="evenodd" clip-rule="evenodd" d="M19.1108 28.8202C20.262 29.5893 21.6153 29.9999 22.9998 29.9999C24.8563 29.9999 26.6368 29.2624 27.9496 27.9496C29.2623 26.6369 29.9998 24.8564 29.9998 22.9999C29.9998 21.6154 29.5893 20.2621 28.8201 19.1109C28.0509 17.9598 26.9577 17.0625 25.6786 16.5327C24.3995 16.0029 22.9921 15.8643 21.6342 16.1344C20.2763 16.4045 19.029 17.0712 18.0501 18.0502C17.0711 19.0291 16.4044 20.2764 16.1343 21.6343C15.8642 22.9921 16.0028 24.3996 16.5327 25.6787C17.0625 26.9577 17.9597 28.051 19.1108 28.8202ZM20.222 18.8425C21.0442 18.2931 22.0109 17.9999 22.9998 17.9999C24.3259 17.9999 25.5977 18.5267 26.5354 19.4644C27.473 20.4021 27.9998 21.6738 27.9998 22.9999C27.9998 23.9888 27.7066 24.9555 27.1572 25.7778C26.6078 26.6 25.8269 27.2408 24.9132 27.6193C23.9996 27.9977 22.9943 28.0967 22.0244 27.9038C21.0545 27.7109 20.1635 27.2347 19.4643 26.5354C18.765 25.8362 18.2888 24.9453 18.0959 23.9754C17.903 23.0055 18.002 22.0001 18.3804 21.0865C18.7589 20.1728 19.3997 19.392 20.222 18.8425Z" fill="black"/>
</svg>
