<?xml version="1.0" encoding="UTF-8"?>
<svg width="16px" height="16px" viewBox="0 0 16 16" version="1.1" xmlns="http://www.w3.org/2000/svg" xmlns:xlink="http://www.w3.org/1999/xlink">
    <title>icon/digital experience/elements/wcm/content list container/16</title>
    <g id="icon/digital-experience/elements/wcm/content-list-container/16" stroke="none" stroke-width="1" fill="none" fill-rule="evenodd">
        <path d="M14,8 C14.5522847,8 15,8.44771525 15,9 L15,14 C15,14.5522847 14.5522847,15 14,15 L9,15 C8.44771525,15 8,14.5522847 8,14 L8,9 C8,8.44771525 8.44771525,8 9,8 L14,8 Z M13,1 C13.5522847,1 14,1.44771525 14,2 L14,7 L13,7 L13,2 L2,2 L2,13 L7,13 L7,14 L2,14 C1.44771525,14 1,13.5522847 1,13 L1,2 C1,1.44771525 1.44771525,1 2,1 L13,1 Z M14,13 L9,13 L9,14 L14,14 L14,13 Z M14,11 L9,11 L9,12 L14,12 L14,11 Z M14,9 L9,9 L9,10 L14,10 L14,9 Z" id="icon-color" fill="#3D5466"></path>
    </g>
</svg>