<svg width="16" height="16" viewBox="0 0 16 16" fill="none" xmlns="http://www.w3.org/2000/svg">
<path d="M13.695 6.90998H8.10504V9.22499H11.325C11.025 10.7 9.77004 11.545 8.10504 11.545C7.16485 11.545 6.26316 11.1715 5.59835 10.5067C4.93353 9.84186 4.56004 8.94018 4.56004 7.99998C4.56004 7.05979 4.93353 6.15811 5.59835 5.49329C6.26316 4.82847 7.16485 4.45498 8.10504 4.45498C8.91067 4.45612 9.69125 4.73515 10.315 5.24498L12.06 3.49998C11.3315 2.85748 10.4579 2.40147 9.51419 2.17113C8.57051 1.94079 7.58502 1.94301 6.6424 2.1776C5.69977 2.4122 4.8282 2.87215 4.10256 3.51793C3.37693 4.16372 2.81894 4.97602 2.47654 5.88506C2.13414 6.79409 2.01756 7.77266 2.13683 8.73669C2.2561 9.70072 2.60764 10.6214 3.16126 11.4196C3.71487 12.2177 4.45401 12.8696 5.31514 13.319C6.17628 13.7685 7.13366 14.0022 8.10504 14C11.105 14 13.83 11.82 13.83 7.99998C13.8271 7.63267 13.7818 7.26692 13.695 6.90998Z" fill="black"/>
</svg>
