<svg width="24" height="24" viewBox="0 0 24 24" fill="none" xmlns="http://www.w3.org/2000/svg">
<path d="M20.5425 10.365H12.1575V13.8375H16.9875C16.5375 16.05 14.655 17.3175 12.1575 17.3175C10.7472 17.3175 9.39469 16.7572 8.39746 15.76C7.40024 14.7628 6.84 13.4103 6.84 12C6.84 10.5897 7.40024 9.23716 8.39746 8.23994C9.39469 7.24271 10.7472 6.68248 12.1575 6.68248C13.366 6.68418 14.5368 7.10272 15.4725 7.86748L18.09 5.24998C16.9972 4.28622 15.6867 3.6022 14.2712 3.25669C12.8557 2.91118 11.3775 2.91451 9.96353 3.26641C8.54959 3.6183 7.24223 4.30822 6.15378 5.2769C5.06534 6.24558 4.22835 7.46404 3.71475 8.82759C3.20115 10.1911 3.02628 11.659 3.20518 13.105C3.38409 14.5511 3.9114 15.9321 4.74183 17.1293C5.57225 18.3266 6.68095 19.3044 7.97265 19.9786C9.26435 20.6528 10.7004 21.0033 12.1575 21C16.6575 21 20.745 17.73 20.745 12C20.7405 11.449 20.6726 10.9004 20.5425 10.365Z" fill="black"/>
</svg>
