<?xml version="1.0" encoding="UTF-8"?>
<svg width="16px" height="16px" viewBox="0 0 16 16" version="1.1" xmlns="http://www.w3.org/2000/svg" xmlns:xlink="http://www.w3.org/1999/xlink">
    <title>icon/digital experience/elements/form/label/16</title>
    <g id="icon/digital-experience/elements/form/label/16" stroke="none" stroke-width="1" fill="none" fill-rule="evenodd">
        <path d="M14,7.5 C14.5522847,7.5 15,7.94771525 15,8.5 L15,12.5 C15,13.0522847 14.5522847,13.5 14,13.5 L2,13.5 C1.44771525,13.5 1,13.0522847 1,12.5 L1,8.5 C1,7.94771525 1.44771525,7.5 2,7.5 L14,7.5 Z M14,8.5 L2,8.5 L2,12.5 L14,12.5 L14,8.5 Z M10,5 L10,6 L4.5,6 L4.5,5 L10,5 Z M3.5,3 L3.5,4 L2.75,4 L2.75,6 L1.75,6 L1.75,4 L1,4 L1,3 L3.5,3 Z M14,3 L14,4 L4.5,4 L4.5,3 L14,3 Z" id="icon-color" fill="#3D5466"></path>
    </g>
</svg>