<?xml version="1.0" encoding="UTF-8"?>
<svg width="24px" height="24px" viewBox="0 0 24 24" version="1.1" xmlns="http://www.w3.org/2000/svg" xmlns:xlink="http://www.w3.org/1999/xlink">
    <title>icon/digital experience/elements/form/label24</title>
    <g id="icon/digital-experience/elements/form/label24" stroke="none" stroke-width="1" fill="none" fill-rule="evenodd">
        <path d="M21,11.25 C21.8284271,11.25 22.5,11.9215729 22.5,12.75 L22.5,18.75 C22.5,19.5784271 21.8284271,20.25 21,20.25 L3,20.25 C2.17157288,20.25 1.5,19.5784271 1.5,18.75 L1.5,12.75 C1.5,11.9215729 2.17157288,11.25 3,11.25 L21,11.25 Z M21,12.75 L3,12.75 L3,18.75 L21,18.75 L21,12.75 Z M15,7.5 L15,9 L6.75,9 L6.75,7.5 L15,7.5 Z M5.25,4.5 L5.25,6 L4.125,6 L4.125,9 L2.625,9 L2.625,6 L1.5,6 L1.5,4.5 L5.25,4.5 Z M21,4.5 L21,6 L6.75,6 L6.75,4.5 L21,4.5 Z" id="icon-color" fill="#3D5466"></path>
    </g>
</svg>