<?xml version="1.0" encoding="UTF-8"?>
<svg width="32px" height="32px" viewBox="0 0 32 32" version="1.1" xmlns="http://www.w3.org/2000/svg" xmlns:xlink="http://www.w3.org/1999/xlink">
    <title>icon/digital experience/elements/form/label/32</title>
    <g id="icon/digital-experience/elements/form/label/32" stroke="none" stroke-width="1" fill="none" fill-rule="evenodd">
        <path d="M28,15 C29.1045695,15 30,15.8954305 30,17 L30,25 C30,26.1045695 29.1045695,27 28,27 L4,27 C2.8954305,27 2,26.1045695 2,25 L2,17 C2,15.8954305 2.8954305,15 4,15 L28,15 Z M28,17 L4,17 L4,25 L28,25 L28,17 Z M20,10 L20,12 L9,12 L9,10 L20,10 Z M7,6 L7,8 L5.5,8 L5.5,12 L3.5,12 L3.5,8 L2,8 L2,6 L7,6 Z M28,6 L28,8 L9,8 L9,6 L28,6 Z" id="icon-color" fill="#3D5466"></path>
    </g>
</svg>