<svg width="16" height="16" viewBox="0 0 16 16" fill="none" xmlns="http://www.w3.org/2000/svg">
<g clip-path="url(#clip0_3840_129661)">
<path fill-rule="evenodd" clip-rule="evenodd" d="M13.4301 4.25024C13.3887 4.17417 13.3262 4.11167 13.2501 4.07024L7.25009 0.570244C7.17596 0.52171 7.08864 0.497262 7.00009 0.500244C6.91169 0.49851 6.82473 0.522856 6.75009 0.570244L0.750087 4.07024C0.674013 4.11167 0.611512 4.17417 0.570087 4.25024C0.522699 4.32489 0.498353 4.41184 0.500087 4.50024V11.5002C0.498353 11.5886 0.522699 11.6756 0.570087 11.7502C0.611512 11.8263 0.674013 11.8888 0.750087 11.9302L6.75009 15.4302C6.82473 15.4776 6.91169 15.502 7.00009 15.5002C7.08864 15.5032 7.17596 15.4788 7.25009 15.4302L8.65421 14.6166C8.39464 14.048 8.25 13.4159 8.25 12.75C8.25 10.2647 10.2647 8.25 12.75 8.25C13.0056 8.25 13.2562 8.2713 13.5001 8.31223V4.50024C13.5018 4.41184 13.4775 4.32489 13.4301 4.25024ZM3.50009 11.0002C3.30231 11.0002 3.10897 10.9416 2.94452 10.8317C2.78007 10.7218 2.65189 10.5657 2.57621 10.3829C2.50052 10.2002 2.48072 9.99913 2.5193 9.80515C2.55789 9.61117 2.65313 9.43299 2.79298 9.29314C2.93283 9.15328 3.11102 9.05804 3.305 9.01946C3.49898 8.98087 3.70004 9.00068 3.88277 9.07636C4.0655 9.15205 4.22167 9.28022 4.33156 9.44467C4.44144 9.60912 4.50009 9.80246 4.50009 10.0002C4.50009 10.2655 4.39473 10.5198 4.20719 10.7073C4.01966 10.8949 3.7653 11.0002 3.50009 11.0002ZM8.41009 9.41024C8.03674 9.78583 7.52966 9.99801 7.00009 10.0002C6.65435 10.0009 6.31435 9.91188 6.01326 9.74193C5.71217 9.57198 5.46029 9.32687 5.28218 9.03054C5.10408 8.7342 5.00583 8.39676 4.99704 8.05113C4.98824 7.7055 5.06919 7.36349 5.232 7.05848C5.3948 6.75347 5.63389 6.49587 5.92594 6.31082C6.21799 6.12578 6.55303 6.0196 6.89835 6.00265C7.24368 5.9857 7.5875 6.05857 7.89627 6.21413C8.20503 6.36969 8.4682 6.60264 8.66009 6.89024C8.88067 7.21849 8.99899 7.60477 9.00009 8.00024C8.99785 8.52982 8.78567 9.03689 8.41009 9.41024ZM10.5001 7.00024C10.3023 7.00024 10.109 6.94159 9.94452 6.83171C9.78007 6.72183 9.65189 6.56565 9.57621 6.38293C9.50052 6.2002 9.48072 5.99913 9.5193 5.80515C9.55789 5.61117 9.65313 5.43299 9.79298 5.29314C9.93283 5.15328 10.111 5.05804 10.305 5.01946C10.499 4.98087 10.7 5.00068 10.8828 5.07636C11.0655 5.15205 11.2217 5.28022 11.3316 5.44467C11.4414 5.60912 11.5001 5.80246 11.5001 6.00024C11.5001 6.26546 11.3947 6.51981 11.2072 6.70735C11.0197 6.89489 10.7653 7.00024 10.5001 7.00024Z" fill="black"/>
<path fill-rule="evenodd" clip-rule="evenodd" d="M14.9494 12H16V13H14.9494C14.885 13.313 14.7607 13.6106 14.5835 13.8765L15.3285 14.6215L14.6215 15.3285L13.8764 14.5835C13.6106 14.7607 13.313 14.885 13 14.9494V16H12V14.9494C11.687 14.885 11.3894 14.7607 11.1235 14.5835L10.3785 15.3285L9.6715 14.6215L10.4165 13.8764C10.2393 13.6106 10.115 13.313 10.0506 13H9V12H10.0506C10.115 11.687 10.2393 11.3894 10.4165 11.1235L9.67155 10.3785L10.3785 9.6715L11.1236 10.4165C11.3894 10.2393 11.687 10.115 12 10.0506V9H13V10.0506C13.313 10.115 13.6106 10.2393 13.8765 10.4165L14.6215 9.67155L15.3285 10.3785L14.5835 11.1236C14.7607 11.3894 14.885 11.687 14.9494 12ZM11.6666 13.7472C11.9133 13.912 12.2033 14 12.5 14C12.8977 13.9996 13.279 13.8414 13.5602 13.5602C13.8414 13.279 13.9996 12.8977 14 12.5C14 12.2033 13.912 11.9133 13.7472 11.6666C13.5824 11.42 13.3481 11.2277 13.074 11.1142C12.7999 11.0006 12.4983 10.9709 12.2074 11.0288C11.9164 11.0867 11.6491 11.2296 11.4393 11.4393C11.2296 11.6491 11.0867 11.9164 11.0288 12.2074C10.9709 12.4983 11.0006 12.7999 11.1142 13.074C11.2277 13.3481 11.42 13.5824 11.6666 13.7472Z" fill="black"/>
</g>
<defs>
<clipPath id="clip0_3840_129661">
<rect width="16" height="16" fill="white"/>
</clipPath>
</defs>
</svg>
