<svg width="32" height="32" viewBox="0 0 32 32" fill="none" xmlns="http://www.w3.org/2000/svg">
<path fill-rule="evenodd" clip-rule="evenodd" d="M24.0208 10.0488C23.9566 9.92608 23.8599 9.82527 23.7421 9.75846L14.4517 4.1133C14.337 4.03502 14.2018 3.99558 14.0647 4.00039C13.9278 3.9976 13.7931 4.03687 13.6776 4.1133L4.38723 9.75846C4.26944 9.82527 4.17266 9.92608 4.10852 10.0488C4.03515 10.1692 3.99745 10.3094 4.00013 10.452V21.7423C3.99745 21.8849 4.03515 22.0252 4.10852 22.1456C4.17266 22.2683 4.26944 22.3691 4.38723 22.4359L13.6776 28.081C13.7931 28.1575 13.9278 28.1967 14.0647 28.1939C14.2018 28.1987 14.337 28.1593 14.4517 28.081L16.6259 26.7688C16.224 25.8516 16 24.8321 16 23.7581C16 19.7495 19.1196 16.5 22.9677 16.5C23.3635 16.5 23.7515 16.5344 24.1292 16.6004V10.452C24.1319 10.3094 24.0942 10.1692 24.0208 10.0488ZM8.6453 20.9359C8.33905 20.9359 8.03969 20.8413 7.78506 20.6641C7.53043 20.4868 7.33197 20.2349 7.21477 19.9402C7.09758 19.6455 7.06691 19.3212 7.12666 19.0083C7.1864 18.6954 7.33387 18.408 7.55042 18.1825C7.76697 17.9569 8.04286 17.8033 8.34322 17.7411C8.64358 17.6788 8.95491 17.7108 9.23784 17.8328C9.52077 17.9549 9.76259 18.1617 9.93273 18.4269C10.1029 18.6921 10.1937 19.004 10.1937 19.323C10.1937 19.7507 10.0305 20.161 9.74017 20.4635C9.44979 20.7659 9.05595 20.9359 8.6453 20.9359ZM16.2479 18.3714C15.6698 18.9771 14.8846 19.3194 14.0647 19.323C13.5293 19.324 13.0029 19.1805 12.5367 18.9063C12.0705 18.6322 11.6804 18.2369 11.4047 17.7589C11.1289 17.281 10.9768 16.7367 10.9632 16.1792C10.9495 15.6218 11.0749 15.0702 11.327 14.5782C11.579 14.0862 11.9493 13.6708 12.4015 13.3723C12.8537 13.0738 13.3724 12.9026 13.9071 12.8752C14.4418 12.8479 14.9742 12.9654 15.4523 13.2163C15.9304 13.4672 16.3379 13.843 16.635 14.3068C16.9765 14.8363 17.1597 15.4593 17.1614 16.0972C17.158 16.9513 16.8294 17.7692 16.2479 18.3714ZM19.484 14.4843C19.1778 14.4843 18.8784 14.3897 18.6238 14.2124C18.3691 14.0352 18.1707 13.7833 18.0535 13.4886C17.9363 13.1939 17.9056 12.8696 17.9654 12.5567C18.0251 12.2438 18.1726 11.9564 18.3891 11.7309C18.6057 11.5053 18.8816 11.3517 19.1819 11.2894C19.4823 11.2272 19.7936 11.2592 20.0765 11.3812C20.3595 11.5033 20.6013 11.71 20.7714 11.9753C20.9416 12.2405 21.0324 12.5524 21.0324 12.8714C21.0324 13.2991 20.8693 13.7094 20.5789 14.0119C20.2885 14.3143 19.8947 14.4843 19.484 14.4843Z" fill="black"/>
<path fill-rule="evenodd" clip-rule="evenodd" d="M26.3733 22.5484H28V24.1613H26.3733C26.2735 24.6661 26.0811 25.1461 25.8066 25.575L26.9602 26.7766L25.8655 27.9169L24.7119 26.7153C24.3002 27.0012 23.8394 27.2016 23.3548 27.3056V29H21.8065V27.3056C21.3218 27.2016 20.861 27.0011 20.4493 26.7152L19.2957 27.9169L18.201 26.7765L19.3546 25.5749C19.0802 25.1461 18.8878 24.6661 18.7879 24.1613H17.1613V22.5484H18.7879C18.8878 22.0436 19.0802 21.5636 19.3547 21.1347L18.2011 19.9331L19.2958 18.7927L20.4494 19.9944C20.8611 19.7085 21.3219 19.5081 21.8065 19.4041V17.7097H23.3548V19.4041C23.8395 19.5081 24.3003 19.7086 24.712 19.9944L25.8655 18.7928L26.9603 19.9331L25.8067 21.1348C26.0811 21.5636 26.2735 22.0436 26.3733 22.5484ZM21.2903 25.3665C21.6722 25.6323 22.1213 25.7742 22.5806 25.7742C23.1964 25.7735 23.7868 25.5184 24.2222 25.0648C24.6576 24.6112 24.9025 23.9963 24.9032 23.3548C24.9032 22.8763 24.767 22.4086 24.5118 22.0107C24.2566 21.6129 23.8939 21.3028 23.4695 21.1196C23.0451 20.9365 22.5781 20.8886 22.1275 20.982C21.677 21.0753 21.2632 21.3057 20.9383 21.6441C20.6135 21.9824 20.3923 22.4135 20.3027 22.8828C20.2131 23.3522 20.2591 23.8386 20.4349 24.2807C20.6106 24.7228 20.9083 25.1006 21.2903 25.3665Z" fill="black"/>
</svg>
