<svg width="16" height="16" viewBox="0 0 16 16" fill="none" xmlns="http://www.w3.org/2000/svg">
<path fill-rule="evenodd" clip-rule="evenodd" d="M14 8C14.5523 8 15 8.44772 15 9V14C15 14.5523 14.5523 15 14 15H9C8.44772 15 8 14.5523 8 14V9C8 8.44772 8.44772 8 9 8H14ZM14 13H9V14H14V13ZM14 11H9V12H14V11ZM14 9H9V10H14V9Z" fill="black"/>
<path d="M13.5 1.5C14.0523 1.5 14.5 1.94772 14.5 2.5V7H13.5V2.5H2.5V13.5H7V14.5H2.5C1.94772 14.5 1.5 14.0523 1.5 13.5V2.5C1.5 1.94772 1.94772 1.5 2.5 1.5H13.5Z" fill="black"/>
</svg>
