<svg width="24" height="24" viewBox="0 0 24 24" fill="none" xmlns="http://www.w3.org/2000/svg">
<path fill-rule="evenodd" clip-rule="evenodd" d="M21 12C21.8284 12 22.5 12.6716 22.5 13.5V21C22.5 21.8284 21.8284 22.5 21 22.5H13.5C12.6716 22.5 12 21.8284 12 21V13.5C12 12.6716 12.6716 12 13.5 12H21ZM21 19.5H13.5V21H21V19.5ZM21 16.5H13.5V18H21V16.5ZM21 13.5H13.5V15H21V13.5Z" fill="black"/>
<path d="M20.25 2.25C21.0784 2.25 21.75 2.92157 21.75 3.75V10.5H20.25V3.75H3.75V20.25H10.5V21.75H3.75C2.92157 21.75 2.25 21.0784 2.25 20.25V3.75C2.25 2.92157 2.92157 2.25 3.75 2.25H20.25Z" fill="black"/>
</svg>
