<?xml version="1.0" encoding="UTF-8"?>
<svg width="16px" height="16px" viewBox="0 0 16 16" version="1.1" xmlns="http://www.w3.org/2000/svg" xmlns:xlink="http://www.w3.org/1999/xlink">
    <title>icon/digital experience/elements/typography/rich text/16</title>
    <g id="icon/digital-experience/elements/typography/rich-text/16" stroke="none" stroke-width="1" fill="none" fill-rule="evenodd">
        <path d="M13.5,9 C14.0522847,9 14.5,9.44771525 14.5,10 L14.5,12 C14.5,12.5522847 14.0522847,13 13.5,13 L2.5,13 C1.94771525,13 1.5,12.5522847 1.5,12 L1.5,10 C1.5,9.44771525 1.94771525,9 2.5,9 L13.5,9 Z M13.5,10 L2.5,10 L2.5,12 L13.5,12 L13.5,10 Z M10,6 L10,7 L6,7 L6,6 L10,6 Z M4.5,3 L4.5,4 L3.5,4 L3.5,7 L2.5,7 L2.5,4 L1.5,4 L1.5,3 L4.5,3 Z M14,3 L14,4 L6,4 L6,3 L14,3 Z" id="icon-color" fill="#3D5466"></path>
    </g>
</svg>