<?xml version="1.0" encoding="UTF-8"?>
<svg width="32px" height="32px" viewBox="0 0 32 32" version="1.1" xmlns="http://www.w3.org/2000/svg" xmlns:xlink="http://www.w3.org/1999/xlink">
    <title>icon/digital experience/elements/typography/rich text/32</title>
    <g id="icon/digital-experience/elements/typography/rich-text/32" stroke="none" stroke-width="1" fill="none" fill-rule="evenodd">
        <path d="M27,18 C28.1045695,18 29,18.8954305 29,20 L29,24 C29,25.1045695 28.1045695,26 27,26 L5,26 C3.8954305,26 3,25.1045695 3,24 L3,20 C3,18.8954305 3.8954305,18 5,18 L27,18 Z M27,20 L5,20 L5,24 L27,24 L27,20 Z M20,12 L20,14 L12,14 L12,12 L20,12 Z M9,6 L9,8 L7,8 L7,14 L5,14 L5,8 L3,8 L3,6 L9,6 Z M28,6 L28,8 L12,8 L12,6 L28,6 Z" id="icon-color" fill="#3D5466"></path>
    </g>
</svg>