<svg width="24" height="24" viewBox="0 0 24 24" fill="none" xmlns="http://www.w3.org/2000/svg">
<path d="M10.5 13.5V15H9V13.5H10.5Z" fill="black"/>
<path d="M3 15C3 15.3539 3.21064 16.5 4.5 16.5C4.5 16.5 4.5 16 4.5 15C3.5 15 3 15 3 15Z" fill="black"/>
<path d="M6 16.5C6.3539 16.5 7.5 16.2894 7.5 15C7.5 15 7 15 6 15C6 16 6 16.5 6 16.5Z" fill="black"/>
<path d="M6 12C6.3539 12 7.5 12.2106 7.5 13.5C7.5 13.5 7 13.5 6 13.5C6 12.5 6 12 6 12Z" fill="black"/>
<path d="M3 13.5C3 13.1461 3.21064 12 4.5 12C4.5 12 4.5 12.5 4.5 13.5C3.5 13.5 3 13.5 3 13.5Z" fill="black"/>
<path d="M19.5 6V7.5H9V6H19.5Z" fill="black"/>
<path fill-rule="evenodd" clip-rule="evenodd" d="M6.6 4.5C7.09706 4.5 7.5 4.90294 7.5 5.4V8.1C7.5 8.59706 7.09706 9 6.6 9H3.9C3.40294 9 3 8.59706 3 8.1V5.4C3 4.90294 3.40294 4.5 3.9 4.5H6.6ZM6 6H4.5V7.5H6V6Z" fill="black"/>
<path fill-rule="evenodd" clip-rule="evenodd" d="M21 12C21.8284 12 22.5 12.6716 22.5 13.5V21C22.5 21.8284 21.8284 22.5 21 22.5H13.5C12.6716 22.5 12 21.8284 12 21V13.5C12 12.6716 12.6716 12 13.5 12H21ZM21 19.5H13.5V21H21V19.5ZM13.5 16.5V18H21V16.5H13.5ZM13.5 15H21V13.5H13.5V15Z" fill="black"/>
</svg>
