<svg width="16" height="16" viewBox="0 0 16 16" fill="none" xmlns="http://www.w3.org/2000/svg">
<path d="M11 13.9994C12.7011 13.9994 14 12.8451 14 11.4994C14 10.4415 14 8.94145 14 8.00004C13.9984 7.42664 13.8534 6.89564 13.4786 6.52083C13.1017 6.14399 12.5771 5.99938 12 5.99938H9V3.99938C9 3.4075 8.79776 2.55568 8.27278 2.17701C8.09111 2.04597 7.852 2.00163 7.61331 2.00004C7.37504 1.99846 7.13719 2.03939 6.95734 2.17639C6.6578 2.40455 6.53393 2.76507 6.48216 3.055L6.02355 5.62339L5 7.36321V13.9994H11Z" fill="black"/>
<path d="M4 8.00004H2V14H4V8.00004Z" fill="black"/>
</svg>
