<svg width="32" height="32" viewBox="0 0 32 32" fill="none" xmlns="http://www.w3.org/2000/svg">
<path d="M22 27.9986C25.4021 27.9986 28 25.69 28 22.9986C28 20.8828 28 17.8828 28 16C27.9969 14.8532 27.7067 13.7912 26.9571 13.0415C26.2034 12.2879 25.1541 11.9986 24 11.9986H18V7.99863C18 6.81487 17.5955 5.11124 16.5456 4.3539C16.1822 4.09181 15.704 4.00315 15.2266 3.99997C14.7501 3.99679 14.2744 4.07865 13.9147 4.35265C13.3156 4.80898 13.0679 5.53002 12.9643 6.10989L12.0471 11.2466L10 14.7263V27.9986H22Z" fill="black"/>
<path d="M8 16H4V28H8V16Z" fill="black"/>
</svg>
