<svg width="24" height="24" viewBox="0 0 24 24" fill="none" xmlns="http://www.w3.org/2000/svg">
<path d="M1.5 1.5H4.5V4.5H1.5V1.5ZM7.5 1.5H10.5V4.5H7.5V1.5ZM13.5 1.5H16.5V4.5H13.5V1.5ZM19.5 1.5H22.5V4.5H19.5V1.5ZM1.5 7.5H4.5V10.5H1.5V7.5ZM7.5 7.5H10.5V10.5H7.5V7.5ZM13.5 7.5H16.5V10.5H13.5V7.5ZM19.5 7.5H22.5V10.5H19.5V7.5ZM1.5 13.5H4.5V16.5H1.5V13.5ZM7.5 13.5H10.5V16.5H7.5V13.5ZM13.5 13.5H16.5V16.5H13.5V13.5ZM19.5 13.5H22.5V16.5H19.5V13.5ZM1.5 19.5H4.5V22.5H1.5V19.5ZM7.5 19.5H10.5V22.5H7.5V19.5ZM13.5 19.5H16.5V22.5H13.5V19.5ZM19.5 19.5H22.5V22.5H19.5V19.5Z" fill="black"/>
</svg>
