<svg width="16" height="16" viewBox="0 0 16 16" fill="none" xmlns="http://www.w3.org/2000/svg">
<path d="M8.23705 1.05976C8.08906 0.980079 7.91094 0.980079 7.76295 1.05976L6 2.00905L7.05463 2.57692L8 2.06788L8.94537 2.57692L10 2.00905L8.23705 1.05976Z" fill="black"/>
<path d="M11.3739 3.88462L10 3.1448L11.0546 2.57692L12.4286 3.31674L11.3739 3.88462Z" fill="black"/>
<path d="M13.4832 3.88462L12.4286 4.45249L13.4454 5L12.3929 5.56674L13.4475 6.13462L14.7371 5.44024C14.899 5.35303 15 5.18394 15 5C15 4.81606 14.899 4.64697 14.7371 4.55976L13.4832 3.88462Z" fill="black"/>
<path d="M9.96429 6.87443L11.3382 6.13462L12.3929 6.70249L11.0189 7.44231L9.96429 6.87443Z" fill="black"/>
<path d="M9.96429 8.01019L8.90966 7.44231L8 7.93212L7.09034 7.44231L6.03571 8.01019L7.76295 8.94024C7.91094 9.01992 8.08906 9.01992 8.23705 8.94024L9.96429 8.01019Z" fill="black"/>
<path d="M4.98108 7.44231L6.03571 6.87443L4.66177 6.13462L3.60714 6.70249L4.98108 7.44231Z" fill="black"/>
<path d="M2.55463 5L3.60714 5.56674L2.55251 6.13462L1.26295 5.44024C1.101 5.35303 1 5.18394 1 5C1 4.81606 1.101 4.64697 1.26295 4.55976L2.5168 3.88462L3.57143 4.45249L2.55463 5Z" fill="black"/>
<path d="M6 3.1448L4.62606 3.88462L3.57143 3.31674L4.94537 2.57692L6 3.1448Z" fill="black"/>
<path d="M7.76294 11.9396C7.83575 11.9789 7.91722 11.9996 7.99999 11.9996C8.08273 11.9997 8.1642 11.9792 8.23704 11.9399L14.737 8.43992L14.2629 7.55957L7.99999 10.9317L1.73704 7.55957L1.26294 8.43957L7.76294 11.9396Z" fill="black"/>
<path d="M7.76294 14.9396C7.83575 14.9789 7.91722 14.9996 7.99999 14.9996C8.08273 14.9997 8.1642 14.9792 8.23704 14.9399L14.737 11.4399L14.2629 10.5596L7.99999 13.9317L1.73704 10.5596L1.26294 11.4396L7.76294 14.9396Z" fill="black"/>
</svg>
