<svg width="32" height="32" viewBox="0 0 32 32" fill="none" xmlns="http://www.w3.org/2000/svg">
<path d="M16.4741 2.11953C16.1781 1.96016 15.8219 1.96016 15.5259 2.11953L12 4.01809L14.1093 5.15385L16 4.13576L17.8907 5.15385L20 4.01809L16.4741 2.11953Z" fill="black"/>
<path d="M22.7479 7.76923L20 6.2896L22.1093 5.15385L24.8571 6.63347L22.7479 7.76923Z" fill="black"/>
<path d="M26.9664 7.76923L24.8571 8.90499L26.8907 10L24.7857 11.1335L26.895 12.2692L29.4741 10.8805C29.798 10.7061 30 10.3679 30 10C30 9.63212 29.798 9.29394 29.4741 9.11953L26.9664 7.76923Z" fill="black"/>
<path d="M19.9286 13.7489L22.6765 12.2692L24.7857 13.405L22.0378 14.8846L19.9286 13.7489Z" fill="black"/>
<path d="M19.9286 16.0204L17.8193 14.8846L16 15.8642L14.1807 14.8846L12.0714 16.0204L15.5259 17.8805C15.8219 18.0398 16.1781 18.0398 16.4741 17.8805L19.9286 16.0204Z" fill="black"/>
<path d="M9.96217 14.8846L12.0714 13.7489L9.32355 12.2692L7.21429 13.405L9.96217 14.8846Z" fill="black"/>
<path d="M5.10926 10L7.21429 11.1335L5.10502 12.2692L2.5259 10.8805C2.20199 10.7061 2 10.3679 2 10C2 9.63212 2.20199 9.29394 2.5259 9.11953L5.0336 7.76923L7.14286 8.90499L5.10926 10Z" fill="black"/>
<path d="M12 6.2896L9.25212 7.76923L7.14286 6.63347L9.89074 5.15385L12 6.2896Z" fill="black"/>
<path d="M15.5259 23.8791C15.6715 23.9579 15.8344 23.9991 16 23.9991C16.1655 23.9993 16.3284 23.9583 16.4741 23.8798L29.4741 16.8798L28.5259 15.1191L16 21.8634L3.47408 15.1191L2.52588 16.8791L15.5259 23.8791Z" fill="black"/>
<path d="M15.5259 29.8791C15.6715 29.9579 15.8344 29.9991 16 29.9991C16.1655 29.9993 16.3284 29.9583 16.4741 29.8798L29.4741 22.8798L28.5259 21.1191L16 27.8634L3.47408 21.1191L2.52588 22.8791L15.5259 29.8791Z" fill="black"/>
</svg>
