<svg width="32" height="32" viewBox="0 0 32 32" fill="none" xmlns="http://www.w3.org/2000/svg">
<path fill-rule="evenodd" clip-rule="evenodd" d="M28 16C29.1046 16 30 16.8954 30 18V28C30 29.1046 29.1046 30 28 30H18C16.8954 30 16 29.1046 16 28V18C16 16.8954 16.8954 16 18 16H28ZM28 26H18V28H28V26ZM28 22H18V24H28V22ZM28 18H18V20H28V18Z" fill="black"/>
<path d="M26 2C27.1046 2 28 2.89543 28 4V14H26V4H4V26H14V28H4C2.89543 28 2 27.1046 2 26V4C2 2.89543 2.89543 2 4 2H26Z" fill="black"/>
<path fill-rule="evenodd" clip-rule="evenodd" d="M10 16C11.1046 16 12 16.8954 12 18V20C12 21.1046 11.1046 22 10 22H8C6.89543 22 6 21.1046 6 20V18C6 16.8954 6.89543 16 8 16H10ZM10 18H8V20H10V18Z" fill="black"/>
<path fill-rule="evenodd" clip-rule="evenodd" d="M10 8C11.1046 8 12 8.89543 12 10V12C12 13.1046 11.1046 14 10 14H8C6.89543 14 6 13.1046 6 12V10C6 8.89543 6.89543 8 8 8H10ZM10 10H8V12H10V10Z" fill="black"/>
<path d="M24 10V12H14V10H24Z" fill="black"/>
</svg>
