<svg width="16" height="16" viewBox="0 0 16 16" fill="none" xmlns="http://www.w3.org/2000/svg">
<path fill-rule="evenodd" clip-rule="evenodd" d="M13.5 1.5001C14.0523 1.5001 14.5 1.94782 14.5 2.5001L14.4999 5.49994H13.4999L13.5 2.5001H6.50004V5.5001C6.50004 6.05239 6.05233 6.5001 5.50004 6.5001H2.50004V13.4999H6.00004V14.4999H2.50004C1.94776 14.4999 1.50004 14.0522 1.50004 13.4999V5.5001C1.49647 5.36712 1.55128 5.23923 1.65004 5.1501L5.15004 1.6501C5.23917 1.55134 5.36706 1.49653 5.50004 1.5001H13.5ZM5.50004 2.7001L2.70004 5.5001H5.50004V2.7001Z" fill="black"/>
<path fill-rule="evenodd" clip-rule="evenodd" d="M13.355 7.64784L14.855 9.14784C14.9019 9.19432 14.9391 9.24962 14.9645 9.31055C14.9899 9.37148 15.0029 9.43683 15.0029 9.50284C15.0029 9.56884 14.9899 9.6342 14.9645 9.69513C14.9391 9.75605 14.9019 9.81136 14.855 9.85784L10.205 14.5028H8.00005V12.2978L12.645 7.64784C12.6915 7.60097 12.7468 7.56378 12.8078 7.53839C12.8687 7.51301 12.934 7.49994 13 7.49994C13.0661 7.49994 13.1314 7.51301 13.1923 7.53839C13.2533 7.56378 13.3086 7.60097 13.355 7.64784ZM9.00005 13.5028H9.79504L12.295 11.0028L11.5 10.2078L9.00005 12.7078V13.5028ZM12.205 9.50284L13 10.2978L13.795 9.50284L13 8.70784L12.205 9.50284Z" fill="black"/>
</svg>
