<svg width="32" height="32" viewBox="0 0 32 32" fill="none" xmlns="http://www.w3.org/2000/svg">
<path fill-rule="evenodd" clip-rule="evenodd" d="M26.9998 3.00021C28.1044 3.00021 28.9998 3.89564 28.9998 5.00021L28.9995 10.9999H26.9995L26.9998 5.00021H12.9998V11.0002C12.9998 12.1048 12.1044 13.0002 10.9998 13.0002H4.99984V26.9999H11.9998V28.9999H4.99984C3.89527 28.9999 2.99984 28.1044 2.99984 26.9999V11.0002C2.9927 10.7342 3.10231 10.4785 3.29984 10.3002L10.2998 3.30021C10.4781 3.10268 10.7339 2.99306 10.9998 3.00021H26.9998ZM10.9998 5.40021L5.39984 11.0002H10.9998V5.40021Z" fill="black"/>
<path fill-rule="evenodd" clip-rule="evenodd" d="M26.7098 15.2957L29.7098 18.2957C29.8036 18.3886 29.878 18.4992 29.9287 18.6211C29.9795 18.743 30.0056 18.8737 30.0056 19.0057C30.0056 19.1377 29.9795 19.2684 29.9287 19.3903C29.878 19.5121 29.8036 19.6227 29.7098 19.7157L20.4099 29.0057H15.9998V24.5957L25.2898 15.2957C25.3828 15.2019 25.4934 15.1276 25.6153 15.0768C25.7371 15.026 25.8678 14.9999 25.9998 14.9999C26.1319 14.9999 26.2626 15.026 26.3844 15.0768C26.5063 15.1276 26.6169 15.2019 26.7098 15.2957ZM17.9998 27.0057H19.5898L24.5898 22.0057L22.9998 20.4157L17.9998 25.4157V27.0057ZM24.4099 19.0057L25.9998 20.5957L27.5898 19.0057L25.9998 17.4157L24.4099 19.0057Z" fill="black"/>
</svg>
