<?xml version="1.0" encoding="UTF-8"?>
<svg width="16px" height="16px" viewBox="0 0 16 16" version="1.1" xmlns="http://www.w3.org/2000/svg" xmlns:xlink="http://www.w3.org/1999/xlink">
    <title>icon/digital experience/elements/layout/container/16</title>
    <g id="icon/digital-experience/elements/layout/container/16" stroke="none" stroke-width="1" fill="none" fill-rule="evenodd">
        <path d="M14.5,11.5 L14.5,14.5 L13.5,14.5 L13.5,13.5 L12.5,13.5 L12.5,12.5 L13.5,12.5 L13.5,11.5 L14.5,11.5 Z M2.5,11.5 L2.5,12.5 L3.5,12.5 L3.5,13.5 L2.5,13.5 L2.5,14.5 L1.5,14.5 L1.5,11.5 L2.5,11.5 Z M5.5,12.5 L5.5,13.5 L4.5,13.5 L4.5,12.5 L5.5,12.5 Z M7.5,12.5 L7.5,13.5 L6.5,13.5 L6.5,12.5 L7.5,12.5 Z M9.5,12.5 L9.5,13.5 L8.5,13.5 L8.5,12.5 L9.5,12.5 Z M11.5,12.5 L11.5,13.5 L10.5,13.5 L10.5,12.5 L11.5,12.5 Z M13.5,1.5 C14.0522847,1.5 14.5,1.94771525 14.5,2.5 L14.5,8.5 C14.5,9.05228475 14.0522847,9.5 13.5,9.5 L2.5,9.5 C1.94771525,9.5 1.5,9.05228475 1.5,8.5 L1.5,2.5 C1.5,1.94771525 1.94771525,1.5 2.5,1.5 L13.5,1.5 Z M13.5,2.5 L2.5,2.5 L2.5,8.5 L13.5,8.5 L13.5,2.5 Z" id="icon-color" fill="#3D5466"></path>
    </g>
</svg>