<?xml version="1.0" encoding="UTF-8"?>
<svg width="24px" height="24px" viewBox="0 0 24 24" version="1.1" xmlns="http://www.w3.org/2000/svg" xmlns:xlink="http://www.w3.org/1999/xlink">
    <title>icon/digital experience/elements/layout/container/24</title>
    <g id="icon/digital-experience/elements/layout/container/24" stroke="none" stroke-width="1" fill="none" fill-rule="evenodd">
        <path d="M21.75,17.25 L21.75,21.75 L20.25,21.75 L20.25,20.25 L18.75,20.25 L18.75,18.75 L20.25,18.75 L20.25,17.25 L21.75,17.25 Z M3.75,17.25 L3.75,18.75 L5.25,18.75 L5.25,20.25 L3.75,20.25 L3.75,21.75 L2.25,21.75 L2.25,17.25 L3.75,17.25 Z M8.25,18.75 L8.25,20.25 L6.75,20.25 L6.75,18.75 L8.25,18.75 Z M11.25,18.75 L11.25,20.25 L9.75,20.25 L9.75,18.75 L11.25,18.75 Z M14.25,18.75 L14.25,20.25 L12.75,20.25 L12.75,18.75 L14.25,18.75 Z M17.25,18.75 L17.25,20.25 L15.75,20.25 L15.75,18.75 L17.25,18.75 Z M20.25,2.25 C21.0784271,2.25 21.75,2.92157288 21.75,3.75 L21.75,12.75 C21.75,13.5784271 21.0784271,14.25 20.25,14.25 L3.75,14.25 C2.92157288,14.25 2.25,13.5784271 2.25,12.75 L2.25,3.75 C2.25,2.92157288 2.92157288,2.25 3.75,2.25 L20.25,2.25 Z M20.25,3.75 L3.75,3.75 L3.75,12.75 L20.25,12.75 L20.25,3.75 Z" id="icon-color" fill="#3D5466"></path>
    </g>
</svg>