<svg width="16" height="16" viewBox="0 0 16 16" fill="none" xmlns="http://www.w3.org/2000/svg">
<path d="M14.295 1L15 1.705L13.9659 2.74021C13.9881 2.82306 14 2.91014 14 3V3.5H13.204L3.5 13.205V14H3C2.91051 14 2.82376 13.9882 2.74122 13.9662L1.705 15L1 14.295L14.295 1Z" fill="black"/>
<path d="M5.5 13V14H4.5V13H5.5Z" fill="black"/>
<path d="M7.5 13V14H6.5V13H7.5Z" fill="black"/>
<path d="M9.5 13V14H8.5V13H9.5Z" fill="black"/>
<path d="M11.5 13V14H10.5V13H11.5Z" fill="black"/>
<path d="M14 12.5V13C14 13.5523 13.5523 14 13 14H12.5V13H13V12.5H14Z" fill="black"/>
<path d="M14 10.5V11.5H13V10.5H14Z" fill="black"/>
<path d="M3 10.5V11L2.5 11.5H2V10.5H3Z" fill="black"/>
<path d="M14 8.5V9.5H13V8.5H14Z" fill="black"/>
<path d="M3 8.5V9.5H2V8.5H3Z" fill="black"/>
<path d="M14 6.5V7.5H13V6.5H14Z" fill="black"/>
<path d="M3 6.5V7.5H2V6.5H3Z" fill="black"/>
<path d="M14 4.5V5.5H13V4.5H14Z" fill="black"/>
<path d="M3 4.5V5.5H2V4.5H3Z" fill="black"/>
<path d="M3.5 2V3H3V3.5H2V3C2 2.44772 2.44772 2 3 2H3.5Z" fill="black"/>
<path d="M5.5 2V3H4.5V2H5.5Z" fill="black"/>
<path d="M7.5 2V3H6.5V2H7.5Z" fill="black"/>
<path d="M9.5 2V3H8.5V2H9.5Z" fill="black"/>
<path d="M11.5 2V2.5L11 3H10.5V2H11.5Z" fill="black"/>
</svg>
