<svg width="24" height="24" viewBox="0 0 24 24" fill="none" xmlns="http://www.w3.org/2000/svg">
<path d="M21.4425 1.5L22.5 2.5575L20.9489 4.11032C20.9822 4.23458 21 4.36522 21 4.5V5.25H19.806L5.25 19.8075V21H4.5C4.36576 21 4.23565 20.9824 4.11184 20.9493L2.5575 22.5L1.5 21.4425L21.4425 1.5Z" fill="black"/>
<path d="M8.25 19.5V21H6.75V19.5H8.25Z" fill="black"/>
<path d="M11.25 19.5V21H9.75V19.5H11.25Z" fill="black"/>
<path d="M14.25 19.5V21H12.75V19.5H14.25Z" fill="black"/>
<path d="M17.25 19.5V21H15.75V19.5H17.25Z" fill="black"/>
<path d="M21 18.75V19.5C21 20.3284 20.3284 21 19.5 21H18.75V19.5H19.5V18.75H21Z" fill="black"/>
<path d="M21 15.75V17.25H19.5V15.75H21Z" fill="black"/>
<path d="M4.5 15.75V16.5L3.75 17.25H3V15.75H4.5Z" fill="black"/>
<path d="M21 12.75V14.25H19.5V12.75H21Z" fill="black"/>
<path d="M4.5 12.75V14.25H3V12.75H4.5Z" fill="black"/>
<path d="M21 9.75V11.25H19.5V9.75H21Z" fill="black"/>
<path d="M4.5 9.75V11.25H3V9.75H4.5Z" fill="black"/>
<path d="M21 6.75V8.25H19.5V6.75H21Z" fill="black"/>
<path d="M4.5 6.75V8.25H3V6.75H4.5Z" fill="black"/>
<path d="M5.25 3V4.5H4.5V5.25H3V4.5C3 3.67157 3.67157 3 4.5 3H5.25Z" fill="black"/>
<path d="M8.25 3V4.5H6.75V3H8.25Z" fill="black"/>
<path d="M11.25 3V4.5H9.75V3H11.25Z" fill="black"/>
<path d="M14.25 3V4.5H12.75V3H14.25Z" fill="black"/>
<path d="M17.25 3V3.75L16.5 4.5H15.75V3H17.25Z" fill="black"/>
</svg>
