<svg width="16" height="16" viewBox="0 0 16 16" fill="none" xmlns="http://www.w3.org/2000/svg">
<path fill-rule="evenodd" clip-rule="evenodd" d="M8 6C8.29667 6 8.58667 5.91202 8.83334 5.7472C9.08002 5.58238 9.2723 5.34811 9.38583 5.07402C9.49936 4.79993 9.52907 4.49833 9.47119 4.20736C9.41331 3.91639 9.27045 3.64912 9.06067 3.43934C8.85089 3.22956 8.5836 3.0867 8.29263 3.02882C8.00166 2.97095 7.70005 3.00065 7.42596 3.11418C7.15188 3.22771 6.91763 3.41997 6.75281 3.66664C6.58799 3.91332 6.5 4.20333 6.5 4.5C6.5 4.89782 6.65803 5.27936 6.93933 5.56066C7.22064 5.84196 7.60218 6 8 6ZM8 4C8.09889 4 8.19555 4.02933 8.27777 4.08427C8.36 4.13921 8.4241 4.21729 8.46194 4.30866C8.49979 4.40002 8.50968 4.50055 8.49039 4.59754C8.47109 4.69454 8.42347 4.78363 8.35355 4.85355C8.28362 4.92348 8.19452 4.9711 8.09753 4.99039C8.00054 5.00968 7.90002 4.99978 7.80865 4.96194C7.71729 4.9241 7.6392 4.86001 7.58426 4.77779C7.52932 4.69556 7.5 4.59889 7.5 4.5C7.5 4.36739 7.55269 4.24021 7.64645 4.14645C7.74022 4.05268 7.86739 4 8 4Z" fill="black"/>
<path fill-rule="evenodd" clip-rule="evenodd" d="M2 1H11.5C11.7652 1 12.0196 1.10536 12.2071 1.29289C12.3946 1.48043 12.5 1.73478 12.5 2V3H14C14.5523 3 15 3.44772 15 4V14C15 14.5523 14.5523 15 14 15H4C3.44772 15 3 14.5523 3 14V12.5H2C1.73478 12.5 1.48044 12.3946 1.29291 12.2071C1.10537 12.0196 1 11.7652 1 11.5V2C1 1.73478 1.10537 1.48043 1.29291 1.29289C1.48044 1.10536 1.73478 1 2 1ZM4 12.5V14H14V4H12.5V11.5C12.5 11.7652 12.3946 12.0196 12.2071 12.2071C12.0196 12.3946 11.7652 12.5 11.5 12.5H4ZM2 11.5H11.5V11L9 8.5L8.20499 9.295C8.01762 9.48125 7.76419 9.58579 7.5 9.58579C7.23581 9.58579 6.98238 9.48125 6.79501 9.295L4 6.5L2 8.5V11.5ZM9.70499 7.795L11.5 9.585V2H2V7.085L3.29501 5.795C3.48238 5.60875 3.73581 5.50421 4 5.50421C4.26419 5.50421 4.51762 5.60875 4.70499 5.795L7.5 8.585L8.29501 7.795C8.48238 7.60875 8.73581 7.50421 9 7.50421C9.26419 7.50421 9.51762 7.60875 9.70499 7.795Z" fill="black"/>
</svg>
