<svg width="32" height="32" viewBox="0 0 32 32" fill="none" xmlns="http://www.w3.org/2000/svg">
<path fill-rule="evenodd" clip-rule="evenodd" d="M16 12C16.5933 12 17.1733 11.824 17.6667 11.4944C18.16 11.1648 18.5446 10.6962 18.7717 10.148C18.9987 9.59987 19.0581 8.99667 18.9424 8.41472C18.8266 7.83278 18.5409 7.29823 18.1213 6.87868C17.7018 6.45912 17.1672 6.1734 16.5853 6.05765C16.0033 5.94189 15.4001 6.0013 14.8519 6.22836C14.3038 6.45542 13.8353 6.83994 13.5056 7.33329C13.176 7.82664 13 8.40665 13 9C13 9.79565 13.3161 10.5587 13.8787 11.1213C14.4413 11.6839 15.2044 12 16 12ZM16 8C16.1978 8 16.3911 8.05865 16.5555 8.16853C16.72 8.27841 16.8482 8.43459 16.9239 8.61732C16.9996 8.80004 17.0194 9.00111 16.9808 9.19509C16.9422 9.38907 16.8469 9.56725 16.7071 9.70711C16.5672 9.84696 16.389 9.94219 16.1951 9.98078C16.0011 10.0194 15.8 9.99957 15.6173 9.92388C15.4346 9.84819 15.2784 9.72002 15.1685 9.55557C15.0586 9.39112 15 9.19778 15 9C15 8.73478 15.1054 8.48043 15.2929 8.29289C15.4804 8.10535 15.7348 8 16 8Z" fill="black"/>
<path fill-rule="evenodd" clip-rule="evenodd" d="M4 2H23C23.5304 2 24.0391 2.21071 24.4142 2.58578C24.7893 2.96086 25 3.46957 25 4V6H28C29.1046 6 30 6.89543 30 8V28C30 29.1046 29.1046 30 28 30H8C6.89543 30 6 29.1046 6 28V25H4C3.46957 25 2.96089 24.7893 2.58582 24.4142C2.21074 24.0391 2 23.5304 2 23V4C2 3.46957 2.21074 2.96086 2.58582 2.58578C2.96089 2.21071 3.46957 2 4 2ZM8 25V28H28V8H25V23C25 23.5304 24.7893 24.0391 24.4142 24.4142C24.0391 24.7893 23.5304 25 23 25H8ZM4 23H23V22L18 17L16.41 18.59C16.0352 18.9625 15.5284 19.1716 15 19.1716C14.4716 19.1716 13.9648 18.9625 13.59 18.59L8 13L4 17V23ZM19.41 15.59L23 19.17V4H4V14.17L6.59003 11.59C6.96475 11.2175 7.47163 11.0084 8 11.0084C8.52837 11.0084 9.03525 11.2175 9.40997 11.59L15 17.17L16.59 15.59C16.9648 15.2175 17.4716 15.0084 18 15.0084C18.5284 15.0084 19.0352 15.2175 19.41 15.59Z" fill="black"/>
</svg>
