<?xml version="1.0" encoding="UTF-8"?>
<svg width="16px" height="16px" viewBox="0 0 16 16" version="1.1" xmlns="http://www.w3.org/2000/svg" xmlns:xlink="http://www.w3.org/1999/xlink">
    <title>icon/digital experience/elements/form/input/16</title>
    <g id="icon/digital-experience/elements/form/input/16" stroke="none" stroke-width="1" fill="none" fill-rule="evenodd">
        <path d="M14,4.5 C14.5522847,4.5 15,4.94771525 15,5.5 L15,10.5 C15,11.0522847 14.5522847,11.5 14,11.5 L2,11.5 C1.44771525,11.5 1,11.0522847 1,10.5 L1,5.5 C1,4.94771525 1.44771525,4.5 2,4.5 L14,4.5 Z M14,5.5 L2,5.5 L2,10.5 L14,10.5 L14,5.5 Z M5.5,6.5 L5.5,7.5 L4.75,7.5 L4.75,9.5 L3.75,9.5 L3.75,7.5 L3,7.5 L3,6.5 L5.5,6.5 Z" id="icon-color" fill="#3D5466"></path>
    </g>
</svg>