<?xml version="1.0" encoding="UTF-8"?>
<svg width="24px" height="24px" viewBox="0 0 24 24" version="1.1" xmlns="http://www.w3.org/2000/svg" xmlns:xlink="http://www.w3.org/1999/xlink">
    <title>icon/digital experience/elements/form/input/24</title>
    <g id="icon/digital-experience/elements/form/input/24" stroke="none" stroke-width="1" fill="none" fill-rule="evenodd">
        <path d="M21,6.75 C21.8284271,6.75 22.5,7.42157288 22.5,8.25 L22.5,15.75 C22.5,16.5784271 21.8284271,17.25 21,17.25 L3,17.25 C2.17157288,17.25 1.5,16.5784271 1.5,15.75 L1.5,8.25 C1.5,7.42157288 2.17157288,6.75 3,6.75 L21,6.75 Z M21,8.25 L3,8.25 L3,15.75 L21,15.75 L21,8.25 Z M8.25,9.75 L8.25,11.25 L7.125,11.25 L7.125,14.25 L5.625,14.25 L5.625,11.25 L4.5,11.25 L4.5,9.75 L8.25,9.75 Z" id="icon-color" fill="#3D5466"></path>
    </g>
</svg>