<svg width="16" height="16" viewBox="0 0 16 16" fill="none" xmlns="http://www.w3.org/2000/svg">
<path fill-rule="evenodd" clip-rule="evenodd" d="M1.5 10.4443C1.5006 9.92303 1.95828 9.50055 2.52305 9.5H13.477C14.0417 9.50055 14.4994 9.923 14.5 10.4443V13.5556C14.4994 14.077 14.0417 14.4994 13.477 14.5H2.52305C1.95828 14.4994 1.5006 14.077 1.5 13.5556V10.4443ZM13.5 10.5V13.5H2.5V10.5H13.5Z" fill="black"/>
<path d="M4.5 1.5V2.5H3.5V1.5H4.5Z" fill="black"/>
<path d="M6.5 1.5V2.5H5.5V1.5H6.5Z" fill="black"/>
<path d="M8.5 1.5V2.5H7.5V1.5H8.5Z" fill="black"/>
<path d="M10.5 1.5V2.5H9.5V1.5H10.5Z" fill="black"/>
<path d="M12.5 1.5V2.5H11.5V1.5H12.5Z" fill="black"/>
<path d="M2.5 1.5V2.5H1.5C1.5 1.83579 1.95623 1.60098 2.27247 1.52855L2.3773 1.5093C2.39348 1.50707 2.40893 1.50529 2.42353 1.50392L2.5 1.5Z" fill="black"/>
<path d="M13.6128 1.50461C14.372 1.56837 14.5 2.27479 14.5 2.5H13.5V1.5L13.6128 1.50461Z" fill="black"/>
<path d="M2.5 3.5V4.5H1.5V3.5H2.5Z" fill="black"/>
<path d="M14.5 3.5V4.5H13.5V3.5H14.5Z" fill="black"/>
<path d="M2.5 5.5V6.5H1.5V5.5H2.5Z" fill="black"/>
<path d="M14.5 5.5V6.5H13.5V5.5H14.5Z" fill="black"/>
<path d="M2.5 7.5V8.5H1.5V7.5H2.5Z" fill="black"/>
<path d="M14.5 7.5V8.5H13.5V7.5H14.5Z" fill="black"/>
</svg>
