<svg width="24" height="24" viewBox="0 0 24 24" fill="none" xmlns="http://www.w3.org/2000/svg">
<path fill-rule="evenodd" clip-rule="evenodd" d="M2.25 15.6665C2.2509 14.8845 2.93742 14.2508 3.78457 14.25H20.2154C21.0625 14.2508 21.7491 14.8845 21.75 15.6664V20.3335C21.7491 21.1155 21.0626 21.7492 20.2154 21.75H3.78457C2.93742 21.7492 2.2509 21.1155 2.25 20.3335V15.6665ZM20.25 15.75V20.25H3.75V15.75H20.25Z" fill="black"/>
<path d="M6.75 2.25V3.75H5.25V2.25H6.75Z" fill="black"/>
<path d="M9.75 2.25V3.75H8.25V2.25H9.75Z" fill="black"/>
<path d="M12.75 2.25V3.75H11.25V2.25H12.75Z" fill="black"/>
<path d="M15.75 2.25V3.75H14.25V2.25H15.75Z" fill="black"/>
<path d="M18.75 2.25V3.75H17.25V2.25H18.75Z" fill="black"/>
<path d="M3.75 2.25V3.75H2.25C2.25 2.75368 2.93435 2.40146 3.4087 2.29283L3.56595 2.26395C3.59021 2.26061 3.61339 2.25794 3.6353 2.25588L3.75 2.25Z" fill="black"/>
<path d="M20.4192 2.25692C21.5581 2.35255 21.75 3.41219 21.75 3.75H20.25V2.25L20.4192 2.25692Z" fill="black"/>
<path d="M3.75 5.25V6.75H2.25V5.25H3.75Z" fill="black"/>
<path d="M21.75 5.25V6.75H20.25V5.25H21.75Z" fill="black"/>
<path d="M3.75 8.25V9.75H2.25V8.25H3.75Z" fill="black"/>
<path d="M21.75 8.25V9.75H20.25V8.25H21.75Z" fill="black"/>
<path d="M3.75 11.25V12.75H2.25V11.25H3.75Z" fill="black"/>
<path d="M21.75 11.25V12.75H20.25V11.25H21.75Z" fill="black"/>
</svg>
