<svg width="16" height="16" viewBox="0 0 16 16" fill="none" xmlns="http://www.w3.org/2000/svg">
<path d="M2.5 8.5V7.5H1.5V8.5H2.5Z" fill="black"/>
<path d="M2.5 6.5V5.5H1.5V6.5H2.5Z" fill="black"/>
<path d="M2.5 4.5V3.5H1.5V4.5H2.5Z" fill="black"/>
<path d="M4.5 2.5V1.5H3.5V2.5H4.5Z" fill="black"/>
<path d="M6.5 2.5V1.5H5.5V2.5H6.5Z" fill="black"/>
<path d="M8.5 2.5V1.5H7.5V2.5H8.5Z" fill="black"/>
<path d="M10.5 2.5V1.5H9.5V2.5H10.5Z" fill="black"/>
<path d="M12.5 2.5V1.5H11.5V2.5H12.5Z" fill="black"/>
<path d="M14.5 6.5V5.5H13.5V6.5H14.5Z" fill="black"/>
<path d="M14.5 4.5V3.5H13.5V4.5H14.5Z" fill="black"/>
<path d="M2.5 2.5V1.5L2.42353 1.50392C2.40893 1.50529 2.39348 1.50707 2.3773 1.5093L2.27247 1.52855C1.95623 1.60098 1.5 1.83579 1.5 2.5H2.5Z" fill="black"/>
<path d="M14.5 2.5C14.5 2.27479 14.372 1.56837 13.6128 1.50461L13.5 1.5V2.5H14.5Z" fill="black"/>
<path fill-rule="evenodd" clip-rule="evenodd" d="M14 15C14.5523 15 15 14.5523 15 14V9C15 8.44772 14.5523 8 14 8H9C8.44772 8 8 8.44772 8 9V14C8 14.5523 8.44772 15 9 15H14ZM14 10H9V9H14V10ZM9 12V11H14V12H9ZM9 13H14V14H9V13Z" fill="black"/>
<path d="M1.50207 13.5C1.50497 13.5914 1.50642 13.6371 1.50642 13.6371C1.51885 13.7147 1.52507 13.7535 1.52507 13.7535C1.54549 13.8359 1.5557 13.8771 1.5557 13.8771C1.58171 13.9301 1.59471 13.9566 1.59471 13.9566C1.61774 14.0032 1.62925 14.0265 1.62925 14.0265C1.6554 14.0669 1.66847 14.0871 1.66847 14.0871C1.71403 14.1484 1.73682 14.1791 1.73682 14.1791C1.78516 14.2319 1.80933 14.2583 1.80933 14.2583C1.89539 14.3201 1.93841 14.351 1.93841 14.351C2.00567 14.389 2.0393 14.408 2.0393 14.408C2.12627 14.4421 2.16975 14.4591 2.16975 14.4591C2.25897 14.4817 2.30357 14.493 2.30357 14.493L2.51098 14.5037L7.00347 14.493V13.5H2.51098V10.5L7.00347 10.49V9.5C4.00848 9.5 2.51098 9.5 2.51098 9.5C2.46521 9.50342 2.44232 9.50513 2.44232 9.50513C2.37185 9.50578 2.33661 9.5061 2.33661 9.5061C2.25166 9.52087 2.20919 9.52826 2.20919 9.52826C2.14293 9.55035 2.10981 9.5614 2.10981 9.5614C2.03075 9.59718 1.99123 9.61507 1.99123 9.61507C1.94363 9.6488 1.91983 9.66567 1.91983 9.66567C1.86045 9.70725 1.83076 9.72804 1.83076 9.72804C1.79324 9.76416 1.77447 9.78222 1.77447 9.78222C1.73543 9.82171 1.71591 9.84146 1.71591 9.84146C1.67344 9.89892 1.6522 9.92764 1.6522 9.92764C1.61197 10.0105 1.59186 10.0519 1.59186 10.0519C1.5556 10.1348 1.53747 10.1763 1.53747 10.1763C1.51876 10.2718 1.5094 10.3195 1.5094 10.3195L1.5 10.49C1.50138 12.4967 1.50207 13.5 1.50207 13.5Z" fill="black"/>
</svg>
