<svg width="32" height="32" viewBox="0 0 32 32" fill="none" xmlns="http://www.w3.org/2000/svg">
<path d="M5 17V15H3V17H5Z" fill="black"/>
<path d="M5 13V11H3V13H5Z" fill="black"/>
<path d="M5 9V7H3V9H5Z" fill="black"/>
<path d="M9 5V3H7V5H9Z" fill="black"/>
<path d="M13 5V3H11V5H13Z" fill="black"/>
<path d="M17 5V3H15V5H17Z" fill="black"/>
<path d="M21 5V3H19V5H21Z" fill="black"/>
<path d="M25 5V3H23V5H25Z" fill="black"/>
<path d="M29 13V11H27V13H29Z" fill="black"/>
<path d="M29 9V7H27V9H29Z" fill="black"/>
<path d="M5 5V3L4.84706 3.00783C4.81786 3.01059 4.78695 3.01414 4.75459 3.0186L4.54494 3.05711C3.91246 3.20195 3 3.67157 3 5H5Z" fill="black"/>
<path d="M29 5C29 4.54959 28.7441 3.13674 27.2256 3.00923L27 3V5H29Z" fill="black"/>
<path fill-rule="evenodd" clip-rule="evenodd" d="M28 30C29.1046 30 30 29.1046 30 28V18C30 16.8954 29.1046 16 28 16H18C16.8954 16 16 16.8954 16 18V28C16 29.1046 16.8954 30 18 30H28ZM28 20H18V18H28V20ZM18 24V22H28V24H18ZM18 26H28V28H18V26Z" fill="black"/>
<path d="M3.00413 27C3.00994 27.1828 3.01285 27.2742 3.01285 27.2742C3.0377 27.4294 3.05013 27.507 3.05013 27.507C3.09098 27.6718 3.11141 27.7542 3.11141 27.7542C3.16341 27.8602 3.18941 27.9133 3.18941 27.9133C3.23548 28.0064 3.25851 28.053 3.25851 28.053C3.31079 28.1339 3.33693 28.1743 3.33693 28.1743C3.42807 28.2968 3.47363 28.3581 3.47363 28.3581C3.57032 28.4638 3.61867 28.5167 3.61867 28.5167C3.79077 28.6402 3.87682 28.702 3.87682 28.702C4.01134 28.778 4.0786 28.8161 4.0786 28.8161C4.25254 28.8841 4.3395 28.9182 4.3395 28.9182C4.51793 28.9634 4.60715 28.986 4.60715 28.986L5.02196 29.0073L14.0069 28.986V27H5.02196V21L14.0069 20.9801V19C8.01695 19 5.02196 19 5.02196 19C4.93041 19.0068 4.88464 19.0103 4.88464 19.0103C4.74369 19.0116 4.67321 19.0122 4.67321 19.0122C4.50332 19.0417 4.41838 19.0565 4.41838 19.0565C4.28587 19.1007 4.21961 19.1228 4.21961 19.1228C4.06151 19.1944 3.98245 19.2301 3.98245 19.2301C3.88726 19.2976 3.83967 19.3313 3.83967 19.3313C3.7209 19.4145 3.66152 19.4561 3.66152 19.4561C3.58647 19.5283 3.54895 19.5644 3.54895 19.5644C3.47086 19.6434 3.43182 19.6829 3.43182 19.6829C3.34687 19.7978 3.3044 19.8553 3.3044 19.8553C3.22394 20.0209 3.18371 20.1037 3.18371 20.1037C3.11119 20.2696 3.07493 20.3526 3.07493 20.3526C3.03751 20.5435 3.0188 20.639 3.0188 20.639L3 20.9801C3.00275 24.9934 3.00413 27 3.00413 27Z" fill="black"/>
</svg>
