<svg width="16" height="16" viewBox="0 0 16 16" fill="none" xmlns="http://www.w3.org/2000/svg">
<path d="M11 3H2V4H11V3Z" fill="black"/>
<path d="M11 6H2V7H11V6Z" fill="black"/>
<path d="M7 9H2V10H7V9Z" fill="black"/>
<path d="M7 12H2V13H7V12Z" fill="black"/>
<path d="M13 12.295L12 11.295V10H11V11.705L12.295 13L13 12.295Z" fill="black"/>
<path fill-rule="evenodd" clip-rule="evenodd" d="M9.5555 14.4101C10.1311 14.7947 10.8078 15 11.5 15C12.4283 15 13.3185 14.6313 13.9749 13.9749C14.6313 13.3185 15 12.4283 15 11.5C15 10.8078 14.7947 10.1311 14.4101 9.55552C14.0256 8.97995 13.4789 8.53133 12.8394 8.26643C12.1999 8.00152 11.4961 7.9322 10.8172 8.06725C10.1383 8.2023 9.51461 8.53565 9.02512 9.02514C8.53564 9.51462 8.2023 10.1383 8.06725 10.8172C7.93221 11.4961 8.00151 12.1999 8.26642 12.8394C8.53133 13.4789 8.97993 14.0256 9.5555 14.4101ZM10.1111 9.42133C10.5222 9.14663 11.0055 9.00001 11.5 9.00001C12.163 9.00001 12.7989 9.2634 13.2678 9.73225C13.7366 10.2011 14 10.837 14 11.5C14 11.9945 13.8534 12.4778 13.5787 12.8889C13.304 13.3001 12.9135 13.6205 12.4567 13.8097C11.9999 13.9989 11.4972 14.0484 11.0123 13.952C10.5273 13.8555 10.0819 13.6174 9.73223 13.2678C9.3826 12.9181 9.1445 12.4727 9.04804 11.9877C8.95157 11.5028 9.00108 11.0001 9.1903 10.5433C9.37952 10.0865 9.69995 9.69604 10.1111 9.42133Z" fill="black"/>
</svg>
