<svg width="32" height="32" viewBox="0 0 32 32" fill="none" xmlns="http://www.w3.org/2000/svg">
<path d="M22 6H4V8H22V6Z" fill="black"/>
<path d="M22 12H4V14H22V12Z" fill="black"/>
<path d="M14 18H4V20H14V18Z" fill="black"/>
<path d="M14 24H4V26H14V24Z" fill="black"/>
<path d="M26 24.59L24 22.59V20H22V23.41L24.59 26L26 24.59Z" fill="black"/>
<path fill-rule="evenodd" clip-rule="evenodd" d="M19.111 28.8203C20.2622 29.5895 21.6155 30 23 30C24.8565 30 26.637 29.2625 27.9498 27.9498C29.2625 26.637 30 24.8565 30 23C30 21.6155 29.5895 20.2622 28.8203 19.111C28.0511 17.9599 26.9579 17.0627 25.6788 16.5329C24.3997 16.003 22.9922 15.8644 21.6344 16.1345C20.2765 16.4046 19.0292 17.0713 18.0502 18.0503C17.0713 19.0292 16.4046 20.2765 16.1345 21.6344C15.8644 22.9923 16.003 24.3997 16.5328 25.6788C17.0627 26.9579 17.9599 28.0511 19.111 28.8203ZM20.2222 18.8427C21.0444 18.2933 22.0111 18 23 18C24.3261 18 25.5979 18.5268 26.5355 19.4645C27.4732 20.4022 28 21.6739 28 23C28 23.9889 27.7068 24.9556 27.1574 25.7779C26.6079 26.6001 25.8271 27.241 24.9134 27.6194C23.9998 27.9978 22.9945 28.0969 22.0246 27.9039C21.0546 27.711 20.1637 27.2348 19.4645 26.5355C18.7652 25.8363 18.289 24.9454 18.0961 23.9755C17.9031 23.0056 18.0022 22.0002 18.3806 21.0866C18.759 20.173 19.3999 19.3921 20.2222 18.8427Z" fill="black"/>
</svg>
