<?xml version="1.0" encoding="UTF-8"?>
<svg width="16px" height="16px" viewBox="0 0 16 16" version="1.1" xmlns="http://www.w3.org/2000/svg" xmlns:xlink="http://www.w3.org/1999/xlink">
    <title>icon/digital experience/elements/basic/list item/16</title>
    <g id="icon/digital-experience/elements/basic/list-item/16" stroke="none" stroke-width="1" fill="none" fill-rule="evenodd">
        <path d="M2,13 L2,13.1597222 L2,13.1597222 L2,14 C1.19415206,14 1.02036276,13.3284546 1.00178694,13.0501106 L1,13 L2,13 Z M4,13 L4,14 L3,14 L3,13 L4,13 Z M6,13 C6,13.8058479 5.32845465,13.9796372 5.05011064,13.9982131 L5,14 L5,13 L6,13 Z M15,11 L15,12 L14,12 L14,11 L15,11 Z M13,11 L13,12 L12,12 L12,11 L13,11 Z M11,11 L11,12 L10,12 L10,11 L11,11 Z M9,11 L9,12 L8,12 L8,11 L9,11 Z M2,11 L2,12 L1,12 L1,11 L2,11 Z M6,11 L6,12 L5,12 L5,11 L6,11 Z M5,9 C5.23593062,9 6,9.14042886 6,10 L5,10 L5,9 Z M4,9 L4,10 L3,10 L3,9 L4,9 Z M2,9 L2,9.84027778 L2,10 L2,10 L1,10 L1,10 C1,9.76406938 1.14042886,9 2,9 Z M5,2 C5.55228475,2 6,2.44771525 6,3 L6,6 C6,6.55228475 5.55228475,7 5,7 L2,7 C1.44771525,7 1,6.55228475 1,6 L1,3 C1,2.44771525 1.44771525,2 2,2 L5,2 Z M5,3 L2,3 L2,6 L5,6 L5,3 Z M15,4 L15,5 L8,5 L8,4 L15,4 Z" id="icon-color" fill="#3D5466"></path>
    </g>
</svg>