<?xml version="1.0" encoding="UTF-8"?>
<svg width="24px" height="24px" viewBox="0 0 24 24" version="1.1" xmlns="http://www.w3.org/2000/svg" xmlns:xlink="http://www.w3.org/1999/xlink">
    <title>icon/digital experience/elements/basic/list item/24</title>
    <g id="icon/digital-experience/elements/basic/list-item/24" stroke="none" stroke-width="1" fill="none" fill-rule="evenodd">
        <path d="M3,19.5 L3,21 C1.76925042,21 1.52137814,19.9557192 1.50138716,19.5529869 L1.5,19.5 L3,19.5 Z M6,19.5 L6,21 L4.5,21 L4.5,19.5 L6,19.5 Z M9,19.5 C9,20.7307496 7.95571922,20.9786219 7.55298688,20.9986128 L7.5,21 L7.5,19.5 L9,19.5 Z M22.5,16.5 L22.5,18 L21,18 L21,16.5 L22.5,16.5 Z M19.5,16.5 L19.5,18 L18,18 L18,16.5 L19.5,16.5 Z M16.5,16.5 L16.5,18 L15,18 L15,16.5 L16.5,16.5 Z M13.5,16.5 L13.5,18 L12,18 L12,16.5 L13.5,16.5 Z M3,16.5 L3,18 L1.5,18 L1.5,16.5 L3,16.5 Z M9,16.5 L9,18 L7.5,18 L7.5,16.5 L9,16.5 Z M7.5,13.5 C7.85389593,13.5 9,13.7106433 9,15 L7.5,15 L7.5,13.5 Z M6,13.5 L6,15 L4.5,15 L4.5,13.5 L6,13.5 Z M3,13.5 L3,15 L1.5,15 C1.5,14.6461041 1.7106433,13.5 3,13.5 Z M7.5,3 C8.32842712,3 9,3.67157288 9,4.5 L9,9 C9,9.82842712 8.32842712,10.5 7.5,10.5 L3,10.5 C2.17157288,10.5 1.5,9.82842712 1.5,9 L1.5,4.5 C1.5,3.67157288 2.17157288,3 3,3 L7.5,3 Z M7.5,4.5 L3,4.5 L3,9 L7.5,9 L7.5,4.5 Z M22.5,6 L22.5,7.5 L12,7.5 L12,6 L22.5,6 Z" id="icon-color" fill="#3D5466"></path>
    </g>
</svg>