<?xml version="1.0" encoding="UTF-8"?>
<svg width="24px" height="24px" viewBox="0 0 24 24" version="1.1" xmlns="http://www.w3.org/2000/svg" xmlns:xlink="http://www.w3.org/1999/xlink">
    <title>icon/digital experience/elements/typography/h5/24</title>
    <g id="icon/digital-experience/elements/typography/h5/24" stroke="none" stroke-width="1" fill="none" fill-rule="evenodd">
        <path d="M19.5,6.75 L19.5,8.25 L15,8.25 L15,11.25 L18,11.25 C18.8284271,11.25 19.5,11.9215729 19.5,12.75 L19.5,15.75 C19.5,16.5784271 18.8284271,17.25 18,17.25 L13.5,17.25 L13.5,15.75 L18,15.75 L18,12.75 L13.5,12.75 L13.5,6.75 L19.5,6.75 Z M6,6.75 L6,11.25 L9,11.25 L9,6.75 L10.5,6.75 L10.5,17.25 L9,17.25 L9,12.75 L6,12.75 L6,17.25 L4.5,17.25 L4.5,6.75 L6,6.75 Z" id="icon-color" fill="#3D5466"></path>
    </g>
</svg>