<svg width="16" height="16" viewBox="0 0 16 16" fill="none" xmlns="http://www.w3.org/2000/svg">
<path fill-rule="evenodd" clip-rule="evenodd" d="M8 2.00004C7.71743 1.9998 7.42557 1.99781 7.15439 2.0882C6.76895 2.21668 6.51675 2.54604 6.5009 2.95324L6.02241 5.8242L4.7169 8.00004H2V14H11C12.7011 14 14 12.8457 14 11.5L14 7.99998C13.9984 7.42658 13.8534 6.8963 13.4786 6.52149C13.1017 6.14465 12.5771 6.00004 12 6.00004H10V4.00004C10 3.42297 9.85539 2.89833 9.47855 2.52149C9.10171 2.14465 8.57707 2.00004 8 2.00004ZM7.66607 3.00675C7.76363 3.00025 7.87144 3.00004 8 3.00004C8.42293 3.00004 8.64829 3.10544 8.77145 3.2286C8.89461 3.35176 9 3.57712 9 4.00004V7.00004H12C12.4229 7.00004 12.6483 7.10544 12.7714 7.2286C12.8946 7.35176 13 7.57712 13 8.00004C13 9.16671 13 10.3334 13 11.5C13 12.1544 12.2989 13 11 13H5.5V8.63854L6.97759 6.17589L7.49152 3.09232C7.50741 2.99698 7.57691 3.01269 7.66607 3.00675ZM4.5 9.00004H3V13H4.5V9.00004Z" fill="black"/>
</svg>
