<svg width="32" height="32" viewBox="0 0 32 32" fill="none" xmlns="http://www.w3.org/2000/svg">
<path fill-rule="evenodd" clip-rule="evenodd" d="M16 4.00009C15.4349 3.9996 14.8511 3.99562 14.3088 4.17641C13.5379 4.43337 13.0335 5.09208 13.0018 5.90648L12.0448 11.6484L9.43381 16.0001H4V28.0001H22C25.4021 28.0001 28 25.6914 28 23.0001L28 16C27.9969 14.8532 27.7067 13.7926 26.9571 13.043C26.2034 12.2893 25.1541 12.0001 24 12.0001H20V8.00009C20 6.84594 19.7108 5.79666 18.9571 5.04298C18.2034 4.2893 17.1541 4.00009 16 4.00009ZM15.3321 6.0135C15.5273 6.00049 15.7429 6.00009 16 6.00009C16.8459 6.00009 17.2966 6.21088 17.5429 6.4572C17.7892 6.70352 18 7.15423 18 8.00009V14.0001H24C24.8459 14.0001 25.2966 14.2109 25.5429 14.4572C25.7892 14.7035 26 15.1542 26 16.0001C26 18.3334 26 20.6669 26 23.0001C26 24.3087 24.5979 26.0001 22 26.0001H11V17.2771L13.9552 12.3518L14.983 6.18463C15.0148 5.99396 15.1538 6.02539 15.3321 6.0135ZM9 18.0001H6V26.0001H9V18.0001Z" fill="black"/>
</svg>
