<svg width="16" height="16" viewBox="0 0 16 16" fill="none" xmlns="http://www.w3.org/2000/svg">
<g clip-path="url(#clip0_1345_101756)">
<path fill-rule="evenodd" clip-rule="evenodd" d="M13.5 9C14.0523 9 14.5 9.44772 14.5 10V12C14.5 12.5523 14.0523 13 13.5 13H2.5C1.94772 13 1.5 12.5523 1.5 12V10C1.5 9.44772 1.94772 9 2.5 9H13.5ZM13.5 10H2.5V12H13.5V10ZM10 6V7H6V6H10ZM14 3V4H6V3H14ZM4.5 3V4H3.5V7H2.5V4H1.5V3H4.5Z" fill="black"/>
</g>
<defs>
<clipPath id="clip0_1345_101756">
<rect width="16" height="16" fill="white"/>
</clipPath>
</defs>
</svg>
