<svg width="24" height="24" viewBox="0 0 24 24" fill="none" xmlns="http://www.w3.org/2000/svg">
<g clip-path="url(#clip0_1345_101758)">
<path fill-rule="evenodd" clip-rule="evenodd" d="M20.25 13.5C21.0784 13.5 21.75 14.1716 21.75 15V18C21.75 18.8284 21.0784 19.5 20.25 19.5H3.75C2.92157 19.5 2.25 18.8284 2.25 18V15C2.25 14.1716 2.92157 13.5 3.75 13.5H20.25ZM20.25 15H3.75V18H20.25V15ZM15 9V10.5H9V9H15ZM21 4.5V6H9V4.5H21ZM6.75 4.5V6H5.25V10.5H3.75V6H2.25V4.5H6.75Z" fill="black"/>
</g>
<defs>
<clipPath id="clip0_1345_101758">
<rect width="24" height="24" fill="white"/>
</clipPath>
</defs>
</svg>
