<svg width="16" height="16" viewBox="0 0 16 16" fill="none" xmlns="http://www.w3.org/2000/svg">
<path d="M14.5 9V10H1.5V9H14.5Z" fill="black"/>
<path d="M9 12V13H1.5V12H9Z" fill="black"/>
<path d="M3.5 3V3.6708C2.6133 3.71563 2.16996 4.18199 2.16996 5.06987L2.172 5H3.5V6C3.5 6.55228 3.05228 7 2.5 7H1.5V5L1.50413 4.8247C1.56198 3.60823 2.22727 3 3.5 3Z" fill="black"/>
<path d="M6.5 3V3.6708C5.6133 3.71563 5.16996 4.18199 5.16996 5.06987L5.172 5H6.5V6C6.5 6.55228 6.05228 7 5.5 7H4.5V5L4.50413 4.8247C4.56198 3.60823 5.22727 3 6.5 3Z" fill="black"/>
</svg>
