<svg width="32" height="32" viewBox="0 0 32 32" fill="none" xmlns="http://www.w3.org/2000/svg">
<path d="M29 18V20H3V18H29Z" fill="black"/>
<path d="M18 24V26H3V24H18Z" fill="black"/>
<path d="M7 6V7.34159C5.22661 7.43127 4.33991 8.36399 4.33991 10.1397L4.344 10H7V12C7 13.1046 6.10457 14 5 14H3V10L3.00826 9.64939C3.12397 7.21646 4.45455 6 7 6Z" fill="black"/>
<path d="M13 6V7.34159C11.2266 7.43127 10.3399 8.36399 10.3399 10.1397L10.344 10H13V12C13 13.1046 12.1046 14 11 14H9V10L9.00826 9.64939C9.12397 7.21646 10.4545 6 13 6Z" fill="black"/>
</svg>
