<svg width="16" height="16" viewBox="0 0 16 16" fill="none" xmlns="http://www.w3.org/2000/svg">
<path d="M1.5 10.9999H2.5V11.9999H1.5V10.9999Z" fill="black"/>
<path d="M2.5 13.9999C2.26407 13.9999 1.5 13.8595 1.5 12.9999C1.5 12.9999 1.83333 12.9999 2.5 12.9999C2.5 13.6666 2.5 13.9999 2.5 13.9999Z" fill="black"/>
<path d="M3.5 12.9999H4.5V13.9999H3.5V12.9999Z" fill="black"/>
<path d="M5.5 12.9999H6.5V13.9999H5.5V12.9999Z" fill="black"/>
<path d="M7.5 12.9999H8.5V13.9999H7.5V12.9999Z" fill="black"/>
<path d="M9.5 12.9999H10.5V13.9999H9.5V12.9999Z" fill="black"/>
<path d="M11.5 12.9999H12.5V13.9999H11.5V12.9999Z" fill="black"/>
<path d="M14.5 12.9999C14.5 13.2359 14.3596 13.9999 13.5 13.9999C13.5 13.9999 13.5 13.6666 13.5 12.9999C14.1667 12.9999 14.5 12.9999 14.5 12.9999Z" fill="black"/>
<path d="M13.5 10.9999H14.5V11.9999H13.5V10.9999Z" fill="black"/>
<path d="M13.5 8.99994C13.7359 8.99994 14.5 9.14037 14.5 9.99994C14.5 9.99994 14.1667 9.99994 13.5 9.99994C13.5 9.33327 13.5 8.99994 13.5 8.99994Z" fill="black"/>
<path d="M11.5 8.99994H12.5V9.99994H11.5V8.99994Z" fill="black"/>
<path d="M9.5 8.99994H10.5V9.99994H9.5V8.99994Z" fill="black"/>
<path d="M7.5 8.99994H8.5V9.99994H7.5V8.99994Z" fill="black"/>
<path d="M5.5 8.99994H6.5V9.99994H5.5V8.99994Z" fill="black"/>
<path d="M3.5 8.99994H4.5V9.99994H3.5V8.99994Z" fill="black"/>
<path d="M1.5 9.99994C1.5 9.76401 1.64043 8.99994 2.5 8.99994C2.5 8.99994 2.5 9.33327 2.5 9.99994C1.83333 9.99994 1.5 9.99994 1.5 9.99994Z" fill="black"/>
<path fill-rule="evenodd" clip-rule="evenodd" d="M13.5 1.99994C14.0523 1.99994 14.5 2.44765 14.5 2.99994V5.99994C14.5 6.55222 14.0523 6.99994 13.5 6.99994H2.5C1.94772 6.99994 1.5 6.55222 1.5 5.99994V2.99994C1.5 2.44765 1.94772 1.99994 2.5 1.99994H13.5ZM13.5 2.99994H2.5V5.99994H13.5V2.99994Z" fill="black"/>
</svg>
