<svg width="32" height="32" viewBox="0 0 32 32" fill="none" xmlns="http://www.w3.org/2000/svg">
<path d="M3 21.9999H5V23.9999H3V21.9999Z" fill="black"/>
<path d="M5 27.9999C4.52814 27.9999 3 27.719 3 25.9999C3 25.9999 3.66667 25.9999 5 25.9999C5 27.3332 5 27.9999 5 27.9999Z" fill="black"/>
<path d="M7 25.9999H9V27.9999H7V25.9999Z" fill="black"/>
<path d="M11 25.9999H13V27.9999H11V25.9999Z" fill="black"/>
<path d="M15 25.9999H17V27.9999H15V25.9999Z" fill="black"/>
<path d="M19 25.9999H21V27.9999H19V25.9999Z" fill="black"/>
<path d="M23 25.9999H25V27.9999H23V25.9999Z" fill="black"/>
<path d="M29 25.9999C29 26.4717 28.7191 27.9999 27 27.9999C27 27.9999 27 27.3332 27 25.9999C28.3333 25.9999 29 25.9999 29 25.9999Z" fill="black"/>
<path d="M27 21.9999H29V23.9999H27V21.9999Z" fill="black"/>
<path d="M27 17.9999C27.4719 17.9999 29 18.2807 29 19.9999C29 19.9999 28.3333 19.9999 27 19.9999C27 18.6665 27 17.9999 27 17.9999Z" fill="black"/>
<path d="M23 17.9999H25V19.9999H23V17.9999Z" fill="black"/>
<path d="M19 17.9999H21V19.9999H19V17.9999Z" fill="black"/>
<path d="M15 17.9999H17V19.9999H15V17.9999Z" fill="black"/>
<path d="M11 17.9999H13V19.9999H11V17.9999Z" fill="black"/>
<path d="M7 17.9999H9V19.9999H7V17.9999Z" fill="black"/>
<path d="M3 19.9999C3 19.528 3.28086 17.9999 5 17.9999C5 17.9999 5 18.6665 5 19.9999C3.66667 19.9999 3 19.9999 3 19.9999Z" fill="black"/>
<path fill-rule="evenodd" clip-rule="evenodd" d="M27 3.99988C28.1046 3.99988 29 4.89531 29 5.99988V11.9999C29 13.1044 28.1046 13.9999 27 13.9999H5C3.89543 13.9999 3 13.1044 3 11.9999V5.99988C3 4.89531 3.89543 3.99988 5 3.99988H27ZM27 5.99988H5V11.9999H27V5.99988Z" fill="black"/>
</svg>
