<?xml version="1.0" encoding="UTF-8"?>
<svg width="16" height="16" viewBox="0 0 16 16" fill="none" xmlns="http://www.w3.org/2000/svg">
<path fill-rule="evenodd" clip-rule="evenodd" d="M10.5642 3.5C10.5642 2.119 9.41643 1 8.00002 1C6.58361 1 5.43591 2.119 5.43591 3.5C5.43591 4.881 6.58361 6 8.00002 6C9.41643 6 10.5642 4.881 10.5642 3.5ZM7.99999 5C7.15178 5 6.46153 4.327 6.46153 3.5C6.46153 2.673 7.15178 2 7.99999 2C8.84819 2 9.53845 2.673 9.53845 3.5C9.53845 4.327 8.84819 5 7.99999 5Z" fill="black"/>
<path fill-rule="evenodd" clip-rule="evenodd" d="M4.41029 11C5.8267 11 6.9744 9.881 6.9744 8.5C6.9744 7.119 5.8267 6 4.41029 6C2.99388 6 1.84619 7.119 1.84619 8.5C1.84619 9.881 2.99388 11 4.41029 11ZM4.41029 7C5.25849 7 5.94875 7.673 5.94875 8.5C5.94875 9.327 5.25849 10 4.41029 10C3.56208 10 2.87183 9.327 2.87183 8.5C2.87183 7.673 3.56208 7 4.41029 7Z" fill="black"/>
<path d="M3.89748 12H4.92312C6.33748 12 7.48722 13.121 7.48722 14.5V15H6.46158V14.5C6.46158 13.673 5.77132 13 4.92312 13H3.89748C3.04927 13 2.35902 13.673 2.35902 14.5V15H1.33337V14.5C1.33337 13.121 2.48312 12 3.89748 12Z" fill="black"/>
<path fill-rule="evenodd" clip-rule="evenodd" d="M9.02563 8.5C9.02563 9.881 10.1734 11 11.5898 11C13.0062 11 14.1539 9.881 14.1539 8.5C14.1539 7.119 13.0062 6 11.5898 6C10.1734 6 9.02563 7.119 9.02563 8.5ZM11.5898 7C12.438 7 13.1282 7.673 13.1282 8.5C13.1282 9.327 12.438 10 11.5898 10C10.7415 10 10.0513 9.327 10.0513 8.5C10.0513 7.673 10.7415 7 11.5898 7Z" fill="black"/>
<path d="M11.077 12H12.1026C13.517 12 14.6667 13.121 14.6667 14.5V15H13.6411V14.5C13.6411 13.673 12.9508 13 12.1026 13H11.077C10.2288 13 9.53846 13.673 9.53846 14.5V15H8.51282V14.5C8.51282 13.121 9.66256 12 11.077 12Z" fill="black"/>
</svg>
