<?xml version="1.0" encoding="UTF-8"?>
<svg width="24" height="24" viewBox="0 0 24 24" fill="none" xmlns="http://www.w3.org/2000/svg">
<path fill-rule="evenodd" clip-rule="evenodd" d="M15.8463 5.25C15.8463 3.1785 14.1247 1.5 12.0001 1.5C9.87548 1.5 8.15393 3.1785 8.15393 5.25C8.15393 7.3215 9.87548 9 12.0001 9C14.1247 9 15.8463 7.3215 15.8463 5.25ZM12.0001 7.5C10.7277 7.5 9.69236 6.4905 9.69236 5.25C9.69236 4.0095 10.7277 3 12.0001 3C13.2724 3 14.3077 4.0095 14.3077 5.25C14.3077 6.4905 13.2724 7.5 12.0001 7.5Z" fill="black"/>
<path fill-rule="evenodd" clip-rule="evenodd" d="M6.61544 16.5C8.74005 16.5 10.4616 14.8215 10.4616 12.75C10.4616 10.6785 8.74005 9 6.61544 9C4.49082 9 2.76929 10.6785 2.76929 12.75C2.76929 14.8215 4.49082 16.5 6.61544 16.5ZM6.61544 10.5C7.88774 10.5 8.92313 11.5095 8.92313 12.75C8.92313 13.9905 7.88774 15 6.61544 15C5.34312 15 4.30775 13.9905 4.30775 12.75C4.30775 11.5095 5.34312 10.5 6.61544 10.5Z" fill="black"/>
<path d="M5.84616 18H7.38462C9.50616 18 11.2308 19.6815 11.2308 21.75V22.5H9.69231V21.75C9.69231 20.5095 8.65692 19.5 7.38462 19.5H5.84616C4.57385 19.5 3.53847 20.5095 3.53847 21.75V22.5H2V21.75C2 19.6815 3.72462 18 5.84616 18Z" fill="black"/>
<path fill-rule="evenodd" clip-rule="evenodd" d="M13.5386 12.75C13.5386 14.8215 15.2602 16.5 17.3848 16.5C19.5094 16.5 21.2309 14.8215 21.2309 12.75C21.2309 10.6785 19.5094 9 17.3848 9C15.2602 9 13.5386 10.6785 13.5386 12.75ZM17.3848 10.5C18.6571 10.5 19.6924 11.5095 19.6924 12.75C19.6924 13.9905 18.6571 15 17.3848 15C16.1123 15 15.077 13.9905 15.077 12.75C15.077 11.5095 16.1123 10.5 17.3848 10.5Z" fill="black"/>
<path d="M16.6155 18H18.1539C20.2755 18 22 19.6815 22 21.75V22.5H20.4616V21.75C20.4616 20.5095 19.4262 19.5 18.1539 19.5H16.6155C15.3432 19.5 14.3077 20.5095 14.3077 21.75V22.5H12.7693V21.75C12.7693 19.6815 14.4939 18 16.6155 18Z" fill="black"/>
</svg>
