<svg width="16" height="16" viewBox="0 0 16 16" fill="none" xmlns="http://www.w3.org/2000/svg">
<g clip-path="url(#clip0_3701_67102)">
<path fill-rule="evenodd" clip-rule="evenodd" d="M7.00014 0.680313H6.18014V1.50031H5.82014V0.500313C5.82014 0.400813 5.90064 0.320312 6.00014 0.320312H7.00014V0.680313ZM8.32364 0.320312H10.0886V0.680312H8.32364V0.320312ZM13.1761 0.320312H11.4116V0.680312H13.1761V0.320312ZM14.5001 0.320312H15.5001C15.5996 0.320312 15.6801 0.400813 15.6806 0.500313V1.50031H15.3201V0.680313H14.5001V0.320312ZM15.6806 6.79431H15.3201V8.91181H15.6806V6.79431ZM15.3201 3.08828H15.6806V5.20578H15.3201V3.08828ZM15.3201 11.3203H14.5001V11.6808H15.5001C15.5996 11.6808 15.6801 11.6003 15.6801 11.5008V10.5008H15.3201V11.3203ZM12.0506 11.3203H13.4506V11.6808H12.0506V11.3203ZM6.18014 4.4701V3.50034H5.82014V4.39228C5.55108 4.34505 5.27402 4.32049 4.99105 4.32049C2.40853 4.32049 0.320312 6.41832 0.320312 9.01273C0.320312 11.6071 2.40853 13.705 4.99105 13.705C6.19657 13.705 7.35716 13.2519 8.18178 12.4348L11.5519 15.8205L11.8203 15.5509L8.44499 12.16C9.18069 11.3468 9.66178 10.2524 9.66178 9.01273C9.66178 6.78566 8.18458 4.98657 6.18014 4.4701ZM11.0001 11.6803H9.50031V11.3203H11.0001V11.6803ZM4.99105 4.7018C2.61816 4.7018 0.699875 6.62892 0.699875 9.01273C0.699875 11.3965 2.61816 13.3237 4.99105 13.3237C6.15551 13.3237 7.26366 12.8657 8.01562 12.0599L8.01981 12.0554C8.77796 11.2938 9.28222 10.2291 9.28222 9.01273C9.28222 6.57742 7.3654 4.7018 4.99105 4.7018ZM6.43813 7.23567L4.99105 8.68942L3.54343 7.23567L3.2751 7.50577L4.72219 8.95952L3.2751 10.4133L3.54343 10.6834L4.99105 9.22961L6.43813 10.6834L6.70699 10.4133L5.2599 8.95952L6.70699 7.50577L6.43813 7.23567Z" fill="black"/>
</g>
<defs>
<clipPath id="clip0_3701_67102">
<rect width="16" height="16" fill="white"/>
</clipPath>
</defs>
</svg>
