<svg width="24" height="24" viewBox="0 0 24 24" fill="none" xmlns="http://www.w3.org/2000/svg">
<g clip-path="url(#clip0_3701_67106)">
<path fill-rule="evenodd" clip-rule="evenodd" d="M10.5002 1.01949H9.2702V2.24949H8.7302V0.749492C8.7302 0.600242 8.85095 0.479492 9.0002 0.479492H10.5002V1.01949ZM12.4855 0.479492H15.133V1.01949H12.4855V0.479492ZM19.7642 0.479492H17.1175V1.01949H19.7642V0.479492ZM21.7502 0.479492H23.2502C23.3995 0.479492 23.5202 0.600242 23.521 0.749492V2.24949H22.9802V1.01949H21.7502V0.479492ZM23.521 10.1905H22.9802V13.3667H23.521V10.1905ZM22.9802 4.63145H23.521V7.8077H22.9802V4.63145ZM22.9802 16.9795H21.7502V17.5203H23.2502C23.3995 17.5203 23.5202 17.3995 23.5202 17.2503V15.7503H22.9802V16.9795ZM18.076 16.9795H20.176V17.5202H18.076V16.9795ZM9.2702 6.70418V5.24954H8.7302V6.58744C8.32663 6.5166 7.91103 6.47976 7.48657 6.47976C3.6128 6.47976 0.480469 9.62651 0.480469 13.5181C0.480469 17.4097 3.6128 20.5565 7.48657 20.5565C9.29485 20.5565 11.0357 19.8769 12.2727 18.6513L17.3279 23.7298L17.7305 23.3253L12.6675 18.239C13.771 17.0193 14.4927 15.3777 14.4927 13.5181C14.4927 10.1775 12.2769 7.47887 9.2702 6.70418ZM16.5002 17.5195H14.2505V16.9795H16.5002V17.5195ZM7.48657 7.05172C3.92724 7.05172 1.04981 9.9424 1.04981 13.5181C1.04981 17.0938 3.92724 19.9845 7.48657 19.9845C9.23326 19.9845 10.8955 19.2976 12.0234 18.0889L12.0297 18.0822C13.1669 16.9397 13.9233 15.3427 13.9233 13.5181C13.9233 9.86515 11.0481 7.05172 7.48657 7.05172ZM9.6572 10.8525L7.48657 13.0332L5.31515 10.8525L4.91266 11.2577L7.08328 13.4383L4.91266 15.6189L5.31515 16.0241L7.48657 13.8434L9.6572 16.0241L10.0605 15.6189L7.88985 13.4383L10.0605 11.2577L9.6572 10.8525Z" fill="black"/>
</g>
<defs>
<clipPath id="clip0_3701_67106">
<rect width="24" height="24" fill="white"/>
</clipPath>
</defs>
</svg>
