<svg width="16" height="16" viewBox="0 0 16 16" fill="none" xmlns="http://www.w3.org/2000/svg">
<path d="M10.935 3.91998L10.065 3.41998L8 6.99998C7.80222 6.99998 7.60888 7.05863 7.44443 7.16851C7.27998 7.27839 7.15181 7.43457 7.07612 7.6173C7.00043 7.80003 6.98063 8.00109 7.01922 8.19507C7.0578 8.38905 7.15304 8.56724 7.29289 8.70709C7.43275 8.84694 7.61093 8.94218 7.80491 8.98077C7.99889 9.01935 8.19996 8.99955 8.38268 8.92386C8.56541 8.84817 8.72159 8.72 8.83147 8.55555C8.94135 8.3911 9 8.19776 9 7.99998C8.99969 7.82435 8.95313 7.6519 8.865 7.49998L10.935 3.91998Z" fill="black"/>
<path d="M8 1C6.61553 1 5.26216 1.41054 4.11101 2.17971C2.95987 2.94888 2.06266 4.04213 1.53285 5.32122C1.00303 6.6003 0.86441 8.00777 1.13451 9.36563C1.4046 10.7235 2.07129 11.9708 3.05026 12.9497C4.02922 13.9287 5.2765 14.5954 6.63437 14.8655C7.99224 15.1356 9.3997 14.997 10.6788 14.4672C11.9579 13.9373 13.0511 13.0401 13.8203 11.889C14.5895 10.7378 15 9.38447 15 8C15 6.14348 14.2625 4.36301 12.9497 3.05025C11.637 1.7375 9.85652 1 8 1ZM8 2C9.20775 2.00139 10.387 2.36723 11.3834 3.04967C12.3799 3.73212 13.1472 4.6994 13.585 5.825C12.9903 5.52763 12.3735 5.27687 11.74 5.075L11.24 5.96C12.1899 6.23866 13.0993 6.64041 13.945 7.155C14.0317 7.715 14.0317 8.285 13.945 8.845C12.1519 9.92988 10.0957 10.5023 8 10.5C5.90768 10.5005 3.85516 9.92812 2.065 8.845C1.97834 8.285 1.97834 7.715 2.065 7.155C3.70797 6.1535 5.5777 5.58415 7.5 5.5V4.5C5.7321 4.56859 3.9989 5.01169 2.415 5.8C2.85678 4.67907 3.62579 3.71711 4.62192 3.03935C5.61805 2.36159 6.79516 1.99942 8 2ZM8 14C6.79225 13.9986 5.61304 13.6328 4.61658 12.9503C3.62012 12.2679 2.85281 11.3006 2.415 10.175C4.14793 11.046 6.0605 11.4997 8 11.5C9.9395 11.4997 11.8521 11.046 13.585 10.175C13.1472 11.3006 12.3799 12.2679 11.3834 12.9503C10.387 13.6328 9.20775 13.9986 8 14Z" fill="black"/>
</svg>
