<svg width="24" height="24" viewBox="0 0 24 24" fill="none" xmlns="http://www.w3.org/2000/svg">
<path d="M16.4025 5.88L15.0975 5.13L12 10.5C11.7033 10.5 11.4133 10.588 11.1666 10.7528C10.92 10.9176 10.7277 11.1519 10.6142 11.426C10.5006 11.7001 10.4709 12.0017 10.5288 12.2926C10.5867 12.5836 10.7296 12.8509 10.9393 13.0607C11.1491 13.2704 11.4164 13.4133 11.7074 13.4712C11.9983 13.5291 12.2999 13.4994 12.574 13.3858C12.8481 13.2723 13.0824 13.08 13.2472 12.8334C13.412 12.5867 13.5 12.2967 13.5 12C13.4995 11.7366 13.4297 11.4779 13.2975 11.25L16.4025 5.88Z" fill="black"/>
<path d="M12 1.5C9.9233 1.5 7.89323 2.11581 6.16652 3.26957C4.4398 4.42332 3.09399 6.0632 2.29927 7.98182C1.50455 9.90045 1.29661 12.0116 1.70176 14.0484C2.1069 16.0852 3.10693 17.9562 4.57538 19.4246C6.04383 20.8931 7.91476 21.8931 9.95156 22.2982C11.9884 22.7034 14.0996 22.4955 16.0182 21.7007C17.9368 20.906 19.5767 19.5602 20.7304 17.8335C21.8842 16.1068 22.5 14.0767 22.5 12C22.5 9.21523 21.3938 6.54451 19.4246 4.57538C17.4555 2.60625 14.7848 1.5 12 1.5ZM12 3C13.8116 3.00208 15.5805 3.55085 17.0751 4.57451C18.5698 5.59818 19.7208 7.04909 20.3775 8.7375C19.4855 8.29144 18.5602 7.91531 17.61 7.6125L16.86 8.94C18.2849 9.35799 19.649 9.96061 20.9175 10.7325C21.0475 11.5725 21.0475 12.4275 20.9175 13.2675C18.2279 14.8948 15.1436 15.7534 12 15.75C8.86152 15.7507 5.78274 14.8922 3.0975 13.2675C2.9675 12.4275 2.9675 11.5725 3.0975 10.7325C5.56195 9.23025 8.36655 8.37623 11.25 8.25V6.75C8.59816 6.85288 5.99835 7.51753 3.6225 8.7C4.28517 7.01861 5.43868 5.57567 6.93288 4.55902C8.42708 3.54238 10.1927 2.99913 12 3ZM12 21C10.1884 20.9979 8.41956 20.4492 6.92487 19.4255C5.43018 18.4018 4.27922 16.9509 3.6225 15.2625C6.22189 16.569 9.09075 17.2496 12 17.25C14.9093 17.2496 17.7781 16.569 20.3775 15.2625C19.7208 16.9509 18.5698 18.4018 17.0751 19.4255C15.5805 20.4492 13.8116 20.9979 12 21Z" fill="black"/>
</svg>
