<?xml version="1.0" encoding="utf-8"?>
<!-- Generator: Adobe Illustrator 25.0.0, SVG Export Plug-In . SVG Version: 6.00 Build 0)  -->
<svg version="1.1" id="Layer_1" xmlns="http://www.w3.org/2000/svg" xmlns:xlink="http://www.w3.org/1999/xlink" x="0px" y="0px"
	 viewBox="0 0 16 16" style="enable-background:new 0 0 16 16;" xml:space="preserve">
<style type="text/css">
	.st0{fill-rule:evenodd;clip-rule:evenodd;fill:#3D5466;}
</style>
<path class="st0" d="M13.5,1.5h-8c-0.1,0-0.3,0.1-0.3,0.2L1.7,5.2C1.6,5.2,1.5,5.4,1.5,5.5v8c0,0.6,0.4,1,1,1h11c0.6,0,1-0.4,1-1
	v-11C14.5,1.9,14.1,1.5,13.5,1.5z M5.5,2.7v1.2v1.6H2.7L5.5,2.7z M13.5,13.5h-8h-3v-7h3c0.6,0,1-0.4,1-1v-3h7V13.5z"/>
</svg>
