<?xml version="1.0" encoding="utf-8"?>
<!-- Generator: Adobe Illustrator 25.0.0, SVG Export Plug-In . SVG Version: 6.00 Build 0)  -->
<svg version="1.1" id="Layer_1" xmlns="http://www.w3.org/2000/svg" xmlns:xlink="http://www.w3.org/1999/xlink" x="0px" y="0px"
	 viewBox="0 0 24 24" style="enable-background:new 0 0 24 24;" xml:space="preserve">
<style type="text/css">
	.st0{fill-rule:evenodd;clip-rule:evenodd;fill:#3D5466;}
</style>
<path class="st0" d="M20.3,2.3h-12c-0.2,0-0.4,0.1-0.5,0.2L2.5,7.7C2.3,7.9,2.2,8.1,2.3,8.3v12c0,0.8,0.7,1.5,1.5,1.5h16.5
	c0.8,0,1.5-0.7,1.5-1.5V3.8C21.8,2.9,21.1,2.3,20.3,2.3z M8.3,4.1v1.8v2.4H4.1L8.3,4.1z M20.3,20.3h-12H3.8V9.8h4.5
	c0.8,0,1.5-0.7,1.5-1.5V3.8h10.5V20.3z"/>
</svg>
