<?xml version="1.0" encoding="utf-8"?>
<!-- Generator: Adobe Illustrator 25.0.0, SVG Export Plug-In . SVG Version: 6.00 Build 0)  -->
<svg version="1.1" id="Layer_1" xmlns="http://www.w3.org/2000/svg" xmlns:xlink="http://www.w3.org/1999/xlink" x="0px" y="0px"
	 viewBox="0 0 32 32" style="enable-background:new 0 0 32 32;" xml:space="preserve">
<style type="text/css">
	.st0{fill-rule:evenodd;clip-rule:evenodd;fill:#3D5466;}
</style>
<path class="st0" d="M27,3H11c-0.3,0-0.5,0.1-0.7,0.3l-7,7C3.1,10.5,3,10.7,3,11v16c0,1.1,0.9,2,2,2h22c1.1,0,2-0.9,2-2V5
	C29,3.9,28.1,3,27,3z M11,5.4v2.4V11H5.4L11,5.4z M27,27H11H5V13h6c1.1,0,2-0.9,2-2V5h14V27z"/>
</svg>
