<svg width="16" height="16" viewBox="0 0 16 16" fill="none" xmlns="http://www.w3.org/2000/svg">
<path d="M5.80502 14.96C5.7027 14.9168 5.61767 14.8408 5.56335 14.7439C5.50902 14.647 5.4885 14.5348 5.50502 14.425L6.41502 8.5H4.00002C3.92346 8.50206 3.84744 8.4865 3.77785 8.45453C3.70825 8.42255 3.64693 8.37502 3.59861 8.31559C3.5503 8.25616 3.51628 8.18643 3.49918 8.11177C3.48209 8.03711 3.48238 7.95953 3.50002 7.885L5.00002 1.385C5.02641 1.27313 5.09054 1.17377 5.18161 1.10365C5.27268 1.03353 5.38512 0.996924 5.50002 0.999996H10.5C10.5747 0.999742 10.6485 1.01623 10.716 1.04824C10.7835 1.08026 10.843 1.12699 10.89 1.185C10.9377 1.24366 10.9715 1.31239 10.9889 1.386C11.0062 1.45962 11.0066 1.5362 10.99 1.61L10.125 5.5H12.5C12.5937 5.49981 12.6856 5.52596 12.7652 5.57547C12.8447 5.62497 12.9088 5.69584 12.95 5.78C12.9858 5.86076 12.9996 5.94959 12.99 6.03742C12.9803 6.12525 12.9476 6.20895 12.895 6.28L6.39502 14.78C6.35109 14.8451 6.29243 14.899 6.22381 14.9372C6.15518 14.9754 6.07851 14.9969 6.00002 15C5.93312 14.9987 5.86701 14.9852 5.80502 14.96ZM8.87502 6.5L9.87502 2H5.90002L4.63002 7.5H7.58502L6.79002 12.64L11.5 6.5H8.87502Z" fill="black"/>
</svg>
