<svg width="24" height="24" viewBox="0 0 24 24" fill="none" xmlns="http://www.w3.org/2000/svg">
<path d="M8.70753 22.44C8.55405 22.3752 8.4265 22.2612 8.34502 22.1159C8.26354 21.9706 8.23275 21.8023 8.25753 21.6375L9.62253 12.75H6.00003C5.88519 12.7531 5.77117 12.7298 5.66677 12.6818C5.56237 12.6339 5.47039 12.5626 5.39792 12.4734C5.32544 12.3843 5.27442 12.2797 5.24878 12.1677C5.22314 12.0557 5.22356 11.9393 5.25003 11.8275L7.50003 2.07752C7.53962 1.90973 7.63581 1.76069 7.77242 1.65551C7.90902 1.55033 8.07769 1.49542 8.25003 1.50002H15.75C15.8621 1.49964 15.9728 1.52437 16.074 1.57239C16.1753 1.62041 16.2644 1.69051 16.335 1.77752C16.4066 1.86552 16.4573 1.96861 16.4833 2.07904C16.5093 2.18946 16.5099 2.30434 16.485 2.41502L15.1875 8.25002H18.75C18.8906 8.24974 19.0284 8.28897 19.1478 8.36323C19.2671 8.43749 19.3632 8.5438 19.425 8.67002C19.4788 8.79118 19.4995 8.92441 19.485 9.05615C19.4705 9.1879 19.4213 9.31345 19.3425 9.42002L9.59253 22.17C9.52663 22.2677 9.43865 22.3485 9.33571 22.4058C9.23277 22.4632 9.11777 22.4954 9.00003 22.5C8.89967 22.4981 8.80052 22.4778 8.70753 22.44ZM13.3125 9.75002L14.8125 3.00002H8.85003L6.94503 11.25H11.3775L10.185 18.96L17.25 9.75002H13.3125Z" fill="black"/>
</svg>
