<?xml version="1.0" encoding="UTF-8"?>
<svg width="16px" height="16px" viewBox="0 0 16 16" version="1.1" xmlns="http://www.w3.org/2000/svg" xmlns:xlink="http://www.w3.org/1999/xlink">
    <title>icon/digital experience/elements/wcm/content list/16</title>
    <g id="icon/digital-experience/elements/wcm/content-list/16" stroke="none" stroke-width="1" fill="none" fill-rule="evenodd">
        <path d="M14,8 C14.5522847,8 15,8.44771525 15,9 L15,14 C15,14.5522847 14.5522847,15 14,15 L9,15 C8.44771525,15 8,14.5522847 8,14 L8,9 C8,8.44771525 8.44771525,8 9,8 L14,8 Z M13,1 C13.5522847,1 14,1.44771525 14,2 L14,7 L13,7 L13,2 L2,2 L2,13 L7,13 L7,14 L2,14 C1.44771525,14 1,13.5522847 1,13 L1,2 C1,1.44771525 1.44771525,1 2,1 L13,1 Z M14,13 L9,13 L9,14 L14,14 L14,13 Z M14,11 L9,11 L9,12 L14,12 L14,11 Z M5,8 C5.55228475,8 6,8.44771525 6,9 L6,10 C6,10.5522847 5.55228475,11 5,11 L4,11 C3.44771525,11 3,10.5522847 3,10 L3,9 C3,8.44771525 3.44771525,8 4,8 L5,8 Z M5,9 L4,9 L4,10 L5,10 L5,9 Z M14,9 L9,9 L9,10 L14,10 L14,9 Z M5,4 C5.55228475,4 6,4.44771525 6,5 L6,6 C6,6.55228475 5.55228475,7 5,7 L4,7 C3.44771525,7 3,6.55228475 3,6 L3,5 C3,4.44771525 3.44771525,4 4,4 L5,4 Z M12,5 L12,6 L7,6 L7,5 L12,5 Z M5,5 L4,5 L4,6 L5,6 L5,5 Z" id="icon-color" fill="#3D5466"></path>
    </g>
</svg>