<?xml version="1.0" encoding="UTF-8"?>
<svg width="24px" height="24px" viewBox="0 0 24 24" version="1.1" xmlns="http://www.w3.org/2000/svg" xmlns:xlink="http://www.w3.org/1999/xlink">
    <title>icon/digital experience/elements/wcm/content list/24</title>
    <g id="icon/digital-experience/elements/wcm/content-list/24" stroke="none" stroke-width="1" fill="none" fill-rule="evenodd">
        <path d="M21,12 C21.8284271,12 22.5,12.6715729 22.5,13.5 L22.5,21 C22.5,21.8284271 21.8284271,22.5 21,22.5 L13.5,22.5 C12.6715729,22.5 12,21.8284271 12,21 L12,13.5 C12,12.6715729 12.6715729,12 13.5,12 L21,12 Z M19.5,1.5 C20.3284271,1.5 21,2.17157288 21,3 L21,10.5 L19.5,10.5 L19.5,3 L3,3 L3,19.5 L10.5,19.5 L10.5,21 L3,21 C2.17157288,21 1.5,20.3284271 1.5,19.5 L1.5,3 C1.5,2.17157288 2.17157288,1.5 3,1.5 L19.5,1.5 Z M21,19.5 L13.5,19.5 L13.5,21 L21,21 L21,19.5 Z M21,16.5 L13.5,16.5 L13.5,18 L21,18 L21,16.5 Z M7.5,12 C8.32842712,12 9,12.6715729 9,13.5 L9,15 C9,15.8284271 8.32842712,16.5 7.5,16.5 L6,16.5 C5.17157288,16.5 4.5,15.8284271 4.5,15 L4.5,13.5 C4.5,12.6715729 5.17157288,12 6,12 L7.5,12 Z M7.5,13.5 L6,13.5 L6,15 L7.5,15 L7.5,13.5 Z M21,13.5 L13.5,13.5 L13.5,15 L21,15 L21,13.5 Z M7.5,6 C8.32842712,6 9,6.67157288 9,7.5 L9,9 C9,9.82842712 8.32842712,10.5 7.5,10.5 L6,10.5 C5.17157288,10.5 4.5,9.82842712 4.5,9 L4.5,7.5 C4.5,6.67157288 5.17157288,6 6,6 L7.5,6 Z M18,7.5 L18,9 L10.5,9 L10.5,7.5 L18,7.5 Z M7.5,7.5 L6,7.5 L6,9 L7.5,9 L7.5,7.5 Z" id="icon-color" fill="#3D5466"></path>
    </g>
</svg>