<?xml version="1.0" encoding="UTF-8"?>
<svg width="32px" height="32px" viewBox="0 0 32 32" version="1.1" xmlns="http://www.w3.org/2000/svg" xmlns:xlink="http://www.w3.org/1999/xlink">
    <title>icon/digital experience/elements/wcm/content list/32</title>
    <g id="icon/digital-experience/elements/wcm/content-list/32" stroke="none" stroke-width="1" fill="none" fill-rule="evenodd">
        <path d="M28,16 C29.1045695,16 30,16.8954305 30,18 L30,28 C30,29.1045695 29.1045695,30 28,30 L18,30 C16.8954305,30 16,29.1045695 16,28 L16,18 C16,16.8954305 16.8954305,16 18,16 L28,16 Z M26,2 C27.1045695,2 28,2.8954305 28,4 L28,14 L26,14 L26,4 L4,4 L4,26 L14,26 L14,28 L4,28 C2.8954305,28 2,27.1045695 2,26 L2,4 C2,2.8954305 2.8954305,2 4,2 L26,2 Z M28,26 L18,26 L18,28 L28,28 L28,26 Z M28,22 L18,22 L18,24 L28,24 L28,22 Z M10,16 C11.1045695,16 12,16.8954305 12,18 L12,20 C12,21.1045695 11.1045695,22 10,22 L8,22 C6.8954305,22 6,21.1045695 6,20 L6,18 C6,16.8954305 6.8954305,16 8,16 L10,16 Z M10,18 L8,18 L8,20 L10,20 L10,18 Z M28,18 L18,18 L18,20 L28,20 L28,18 Z M10,8 C11.1045695,8 12,8.8954305 12,10 L12,12 C12,13.1045695 11.1045695,14 10,14 L8,14 C6.8954305,14 6,13.1045695 6,12 L6,10 C6,8.8954305 6.8954305,8 8,8 L10,8 Z M24,10 L24,12 L14,12 L14,10 L24,10 Z M10,10 L8,10 L8,12 L10,12 L10,10 Z" id="icon-color" fill="#3D5466"></path>
    </g>
</svg>