<?xml version="1.0" encoding="UTF-8"?>
<svg width="24px" height="24px" viewBox="0 0 24 24" version="1.1" xmlns="http://www.w3.org/2000/svg" xmlns:xlink="http://www.w3.org/1999/xlink">
    <title>icon/digital experience/elements/wcm/content container/24</title>
    <g id="icon/digital-experience/elements/wcm/content-container/24" stroke="none" stroke-width="1" fill="none" fill-rule="evenodd">
        <path d="M21,12 C21.8284271,12 22.5,12.6715729 22.5,13.5 L22.5,21 C22.5,21.8284271 21.8284271,22.5 21,22.5 L13.5,22.5 C12.6715729,22.5 12,21.8284271 12,21 L12,13.5 C12,12.6715729 12.6715729,12 13.5,12 L21,12 Z M19.5,1.5 C20.3284271,1.5 21,2.17157288 21,3 L21,10.5 L19.5,10.5 L19.5,3 L3,3 L3,19.5 L10.5,19.5 L10.5,21 L3,21 C2.17157288,21 1.5,20.3284271 1.5,19.5 L1.5,3 C1.5,2.17157288 2.17157288,1.5 3,1.5 L19.5,1.5 Z M21,19.5 L13.5,19.5 L13.5,21 L21,21 L21,19.5 Z M21,16.5 L13.5,16.5 L13.5,18 L21,18 L21,16.5 Z M8.25,12 C9.07842712,12 9.75,12.6715729 9.75,13.5 L9.75,15.75 C9.75,16.5784271 9.07842712,17.25 8.25,17.25 L6,17.25 C5.17157288,17.25 4.5,16.5784271 4.5,15.75 L4.5,13.5 C4.5,12.6715729 5.17157288,12 6,12 L8.25,12 Z M8.25,13.5 L6,13.5 L6,15.75 L8.25,15.75 L8.25,13.5 Z M21,13.5 L13.5,13.5 L13.5,15 L21,15 L21,13.5 Z M16.5,5.25 C17.3284271,5.25 18,5.92157288 18,6.75 L18,9 C18,9.82842712 17.3284271,10.5 16.5,10.5 L6,10.5 C5.17157288,10.5 4.5,9.82842712 4.5,9 L4.5,6.75 C4.5,5.92157288 5.17157288,5.25 6,5.25 L16.5,5.25 Z M16.5,6.75 L6,6.75 L6,9 L16.5,9 L16.5,6.75 Z" id="icon-color" fill="#3D5466"></path>
    </g>
</svg>