<?xml version="1.0" encoding="UTF-8"?>
<svg width="32px" height="32px" viewBox="0 0 32 32" version="1.1" xmlns="http://www.w3.org/2000/svg" xmlns:xlink="http://www.w3.org/1999/xlink">
    <title>icon/digital experience/elements/wcm/content container/32</title>
    <g id="icon/digital-experience/elements/wcm/content-container/32" stroke="none" stroke-width="1" fill="none" fill-rule="evenodd">
        <path d="M28,16 C29.1045695,16 30,16.8954305 30,18 L30,28 C30,29.1045695 29.1045695,30 28,30 L18,30 C16.8954305,30 16,29.1045695 16,28 L16,18 C16,16.8954305 16.8954305,16 18,16 L28,16 Z M26,2 C27.1045695,2 28,2.8954305 28,4 L28,14 L26,14 L26,4 L4,4 L4,26 L14,26 L14,28 L4,28 C2.8954305,28 2,27.1045695 2,26 L2,4 C2,2.8954305 2.8954305,2 4,2 L26,2 Z M28,26 L18,26 L18,28 L28,28 L28,26 Z M28,22 L18,22 L18,24 L28,24 L28,22 Z M11,16 C12.1045695,16 13,16.8954305 13,18 L13,21 C13,22.1045695 12.1045695,23 11,23 L8,23 C6.8954305,23 6,22.1045695 6,21 L6,18 C6,16.8954305 6.8954305,16 8,16 L11,16 Z M11,18 L8,18 L8,21 L11,21 L11,18 Z M28,18 L18,18 L18,20 L28,20 L28,18 Z M22,7 C23.1045695,7 24,7.8954305 24,9 L24,12 C24,13.1045695 23.1045695,14 22,14 L8,14 C6.8954305,14 6,13.1045695 6,12 L6,9 C6,7.8954305 6.8954305,7 8,7 L22,7 Z M22,9 L8,9 L8,12 L22,12 L22,9 Z" id="icon-color" fill="#3D5466"></path>
    </g>
</svg>