<?xml version="1.0" encoding="UTF-8"?>
<svg width="16px" height="16px" viewBox="0 0 16 16" version="1.1" xmlns="http://www.w3.org/2000/svg" xmlns:xlink="http://www.w3.org/1999/xlink">
    <title>icon/digital experience/components/navigation/16</title>
    <g id="icon/digital-experience/components/navigation/16" stroke="none" stroke-width="1" fill="none" fill-rule="evenodd">
        <path d="M14,4 C14.5522847,4 15,4.44771525 15,5 L15,11 C15,11.5522847 14.5522847,12 14,12 L2,12 C1.44771525,12 1,11.5522847 1,11 L1,5 C1,4.44771525 1.44771525,4 2,4 L14,4 Z M14,5 L2,5 L2,11 L14,11 L14,5 Z M13,9 L13,10 L10,10 L10,9 L13,9 Z M13,7.5 L13,8.5 L10,8.5 L10,7.5 L13,7.5 Z M13,6 L13,7 L10,7 L10,6 L13,6 Z" id="icon-color" fill="#3D5466"></path>
    </g>
</svg>