<?xml version="1.0" encoding="UTF-8"?>
<svg width="24px" height="24px" viewBox="0 0 24 24" version="1.1" xmlns="http://www.w3.org/2000/svg" xmlns:xlink="http://www.w3.org/1999/xlink">
    <title>icon/digital experience/components/navigation/24</title>
    <g id="icon/digital-experience/components/navigation/24" stroke="none" stroke-width="1" fill="none" fill-rule="evenodd">
        <path d="M21,6 C21.8284271,6 22.5,6.67157288 22.5,7.5 L22.5,16.5 C22.5,17.3284271 21.8284271,18 21,18 L3,18 C2.17157288,18 1.5,17.3284271 1.5,16.5 L1.5,7.5 C1.5,6.67157288 2.17157288,6 3,6 L21,6 Z M21,7.5 L3,7.5 L3,16.5 L21,16.5 L21,7.5 Z M19.5,13.5 L19.5,15 L15,15 L15,13.5 L19.5,13.5 Z M19.5,11.25 L19.5,12.75 L15,12.75 L15,11.25 L19.5,11.25 Z M19.5,9 L19.5,10.5 L15,10.5 L15,9 L19.5,9 Z" id="icon-color" fill="#3D5466"></path>
    </g>
</svg>