<?xml version="1.0" encoding="UTF-8"?>
<svg width="32px" height="32px" viewBox="0 0 32 32" version="1.1" xmlns="http://www.w3.org/2000/svg" xmlns:xlink="http://www.w3.org/1999/xlink">
    <title>icon/digital experience/components/navigation/32</title>
    <g id="icon/digital-experience/components/navigation/32" stroke="none" stroke-width="1" fill="none" fill-rule="evenodd">
        <path d="M28,8 C29.1045695,8 30,8.8954305 30,10 L30,22 C30,23.1045695 29.1045695,24 28,24 L4,24 C2.8954305,24 2,23.1045695 2,22 L2,10 C2,8.8954305 2.8954305,8 4,8 L28,8 Z M28,10 L4,10 L4,22 L28,22 L28,10 Z M26,18 L26,20 L20,20 L20,18 L26,18 Z M26,15 L26,17 L20,17 L20,15 L26,15 Z M26,12 L26,14 L20,14 L20,12 L26,12 Z" id="icon-color" fill="#3D5466"></path>
    </g>
</svg>