<svg width="16" height="16" viewBox="0 0 16 16" fill="none" xmlns="http://www.w3.org/2000/svg">
<path d="M11.7501 11H4.25005C3.44825 10.995 2.67663 10.6937 2.08354 10.1541C1.49045 9.61449 1.11776 8.87471 1.03712 8.07697C0.956473 7.27922 1.17357 6.47982 1.64668 5.83246C2.11978 5.18509 2.81549 4.73547 3.60005 4.57003C3.81591 3.56329 4.37047 2.66102 5.17121 2.01376C5.97195 1.36651 6.97043 1.01343 8.00005 1.01343C9.02967 1.01343 10.0282 1.36651 10.8289 2.01376C11.6296 2.66102 12.1842 3.56329 12.4001 4.57003C13.1846 4.73547 13.8803 5.18509 14.3534 5.83246C14.8265 6.47982 15.0436 7.27922 14.963 8.07697C14.8823 8.87471 14.5096 9.61449 13.9166 10.1541C13.3235 10.6937 12.5518 10.995 11.7501 11ZM8.00005 2.00003C7.14686 2.00088 6.32337 2.31334 5.68436 2.87868C5.04536 3.44402 4.63487 4.2233 4.53005 5.07003L4.50005 5.50003H4.07005C3.47331 5.5239 2.9105 5.78384 2.50542 6.22268C2.10034 6.66151 1.88618 7.24329 1.91005 7.84003C1.93392 8.43677 2.19387 8.99958 2.6327 9.40466C3.07154 9.80974 3.65331 10.0239 4.25005 10H11.7501C12.3468 10.0239 12.9286 9.80974 13.3674 9.40466C13.8062 8.99958 14.0662 8.43677 14.0901 7.84003C14.1139 7.24329 13.8998 6.66151 13.4947 6.22268C13.0896 5.78384 12.5268 5.5239 11.9301 5.50003H11.5001L11.4501 5.09003C11.3502 4.24309 10.9445 3.46175 10.3092 2.89278C9.67398 2.3238 8.85284 2.00634 8.00005 2.00003ZM7.00005 15C6.92161 15.001 6.84421 14.982 6.77505 14.945C6.65729 14.8851 6.56804 14.781 6.52682 14.6554C6.4856 14.5299 6.49575 14.3931 6.55505 14.275L7.55505 12.275C7.58148 12.2116 7.62072 12.1542 7.67031 12.1066C7.71991 12.059 7.77879 12.0221 7.84328 11.9983C7.90778 11.9744 7.97649 11.9641 8.04514 11.9681C8.11378 11.972 8.18088 11.99 8.24224 12.021C8.3036 12.0521 8.3579 12.0954 8.40175 12.1484C8.4456 12.2013 8.47806 12.2628 8.49709 12.3288C8.51612 12.3949 8.52133 12.4642 8.51237 12.5324C8.50342 12.6005 8.4805 12.6661 8.44505 12.725L7.44505 14.725C7.4035 14.8075 7.33993 14.8768 7.26138 14.9254C7.18284 14.9739 7.09238 14.9997 7.00005 15ZM10.0001 15C9.92161 15.001 9.84421 14.982 9.77505 14.945C9.65729 14.8851 9.56804 14.781 9.52682 14.6554C9.4856 14.5299 9.49575 14.3931 9.55505 14.275L10.5551 12.275C10.5815 12.2116 10.6207 12.1542 10.6703 12.1066C10.7199 12.059 10.7788 12.0221 10.8433 11.9983C10.9078 11.9744 10.9765 11.9641 11.0451 11.9681C11.1138 11.972 11.1809 11.99 11.2422 12.021C11.3036 12.0521 11.3579 12.0954 11.4018 12.1484C11.4456 12.2013 11.4781 12.2628 11.4971 12.3288C11.5161 12.3949 11.5213 12.4642 11.5124 12.5324C11.5034 12.6005 11.4805 12.6661 11.4451 12.725L10.4451 14.725C10.4035 14.8075 10.3399 14.8768 10.2614 14.9254C10.1828 14.9739 10.0924 14.9997 10.0001 15ZM4.00005 15C3.92161 15.001 3.84421 14.982 3.77505 14.945C3.65729 14.8851 3.56804 14.781 3.52682 14.6554C3.4856 14.5299 3.49575 14.3931 3.55505 14.275L4.55505 12.275C4.58148 12.2116 4.62072 12.1542 4.67032 12.1066C4.71991 12.059 4.77879 12.0221 4.84328 11.9983C4.90778 11.9744 4.97649 11.9641 5.04514 11.9681C5.11378 11.972 5.18088 11.99 5.24224 12.021C5.3036 12.0521 5.3579 12.0954 5.40175 12.1484C5.4456 12.2013 5.47806 12.2628 5.49709 12.3288C5.51612 12.3949 5.52133 12.4642 5.51237 12.5324C5.50342 12.6005 5.4805 12.6661 5.44505 12.725L4.44505 14.725C4.4035 14.8075 4.33993 14.8768 4.26138 14.9254C4.18284 14.9739 4.09238 14.9997 4.00005 15Z" fill="black"/>
</svg>
