<svg width="24" height="24" viewBox="0 0 24 24" fill="none" xmlns="http://www.w3.org/2000/svg">
<path d="M17.625 16.5H6.37502C5.17232 16.4924 4.01489 16.0404 3.12525 15.2311C2.23562 14.4217 1.67658 13.312 1.55561 12.1154C1.43465 10.9188 1.7603 9.71967 2.46996 8.74862C3.17961 7.77758 4.22318 7.10315 5.40002 6.85498C5.7238 5.34487 6.55564 3.99146 7.75675 3.02058C8.95786 2.04971 10.4556 1.52008 12 1.52008C13.5444 1.52008 15.0422 2.04971 16.2433 3.02058C17.4444 3.99146 18.2762 5.34487 18.6 6.85498C19.7769 7.10315 20.8204 7.77758 21.5301 8.74862C22.2397 9.71967 22.5654 10.9188 22.4444 12.1154C22.3235 13.312 21.7644 14.4217 20.8748 15.2311C19.9851 16.0404 18.8277 16.4924 17.625 16.5ZM12 2.99998C10.7202 3.00126 9.48499 3.46995 8.52649 4.31797C7.56799 5.16598 6.95225 6.3349 6.79502 7.60498L6.75002 8.24998H6.10502C5.20991 8.28579 4.36569 8.67571 3.75807 9.33396C3.15045 9.99221 2.82921 10.8649 2.86502 11.76C2.90082 12.6551 3.29074 13.4993 3.94899 14.1069C4.60724 14.7145 5.47991 15.0358 6.37502 15H17.625C18.5201 15.0358 19.3928 14.7145 20.051 14.1069C20.7093 13.4993 21.0992 12.6551 21.135 11.76C21.1708 10.8649 20.8496 9.99221 20.242 9.33396C19.6343 8.67571 18.7901 8.28579 17.895 8.24998H17.25L17.175 7.63498C17.0252 6.36457 16.4167 5.19256 15.4638 4.3391C14.5109 3.48564 13.2792 3.00945 12 2.99998ZM10.5 22.5C10.3824 22.5014 10.2663 22.473 10.1625 22.4175C9.98587 22.3276 9.852 22.1714 9.79017 21.9831C9.72833 21.7948 9.74356 21.5896 9.83252 21.4125L11.3325 18.4125C11.3722 18.3173 11.431 18.2313 11.5054 18.1598C11.5798 18.0884 11.6681 18.0331 11.7649 17.9973C11.8616 17.9616 11.9647 17.9461 12.0676 17.952C12.1706 17.9579 12.2713 17.985 12.3633 18.0315C12.4553 18.078 12.5368 18.143 12.6026 18.2225C12.6683 18.3019 12.717 18.3941 12.7456 18.4932C12.7741 18.5923 12.7819 18.6962 12.7685 18.7985C12.7551 18.9007 12.7207 18.9991 12.6675 19.0875L11.1675 22.0875C11.1052 22.2112 11.0098 22.3152 10.892 22.388C10.7742 22.4608 10.6385 22.4996 10.5 22.5ZM15 22.5C14.8824 22.5014 14.7663 22.473 14.6625 22.4175C14.4859 22.3276 14.352 22.1714 14.2902 21.9831C14.2283 21.7948 14.2436 21.5896 14.3325 21.4125L15.8325 18.4125C15.8722 18.3173 15.931 18.2313 16.0054 18.1598C16.0798 18.0884 16.1681 18.0331 16.2649 17.9973C16.3616 17.9616 16.4647 17.9461 16.5676 17.952C16.6706 17.9579 16.7713 17.985 16.8633 18.0315C16.9553 18.078 17.0368 18.143 17.1026 18.2225C17.1683 18.3019 17.217 18.3941 17.2456 18.4932C17.2741 18.5923 17.2819 18.6962 17.2685 18.7985C17.2551 18.9007 17.2207 18.9991 17.1675 19.0875L15.6675 22.0875C15.6052 22.2112 15.5098 22.3152 15.392 22.388C15.2742 22.4608 15.1385 22.4996 15 22.5ZM6.00002 22.5C5.88236 22.5014 5.76626 22.473 5.66252 22.4175C5.48587 22.3276 5.352 22.1714 5.29017 21.9831C5.22833 21.7948 5.24356 21.5896 5.33252 21.4125L6.83252 18.4125C6.87216 18.3173 6.93102 18.2313 7.00541 18.1598C7.0798 18.0884 7.16813 18.0331 7.26487 17.9973C7.3616 17.9616 7.46468 17.9461 7.56764 17.952C7.67061 17.9579 7.77126 17.985 7.8633 18.0315C7.95534 18.078 8.03679 18.143 8.10256 18.2225C8.16834 18.3019 8.21702 18.3941 8.24557 18.4932C8.27412 18.5923 8.28193 18.6962 8.2685 18.7985C8.25507 18.9007 8.22069 18.9991 8.16752 19.0875L6.66752 22.0875C6.60519 22.2112 6.50983 22.3152 6.39201 22.388C6.2742 22.4608 6.13852 22.4996 6.00002 22.5Z" fill="black"/>
</svg>
