<?xml version="1.0" encoding="UTF-8"?>
<svg width="16px" height="16px" viewBox="0 0 16 16" version="1.1" xmlns="http://www.w3.org/2000/svg" xmlns:xlink="http://www.w3.org/1999/xlink">
    <title>icon/digital experience/elements/form/form/16</title>
    <g id="icon/digital-experience/elements/form/form/16" stroke="none" stroke-width="1" fill="none" fill-rule="evenodd">
        <path d="M13.5,1.5 C14.0522847,1.5 14.5,1.94771525 14.5,2.5 L14.5,13.5 C14.5,14.0522847 14.0522847,14.5 13.5,14.5 L2.5,14.5 C1.94771525,14.5 1.5,14.0522847 1.5,13.5 L1.5,2.5 C1.5,1.94771525 1.94771525,1.5 2.5,1.5 L13.5,1.5 Z M13.5,2.5 L2.5,2.5 L2.5,13.5 L13.5,13.5 L13.5,2.5 Z M12,11.5 C12.2761424,11.5 12.5,11.7238576 12.5,12 C12.5,12.2454599 12.3231248,12.4496084 12.0898756,12.4919443 L12,12.5 L8.5,12.5 C8.22385763,12.5 8,12.2761424 8,12 C8,11.7545401 8.17687516,11.5503916 8.41012437,11.5080557 L8.5,11.5 L12,11.5 Z M11.5,7.5 C12.0522847,7.5 12.5,7.94771525 12.5,8.5 L12.5,9.5 C12.5,10.0522847 12.0522847,10.5 11.5,10.5 L4.5,10.5 C3.94771525,10.5 3.5,10.0522847 3.5,9.5 L3.5,8.5 C3.5,7.94771525 3.94771525,7.5 4.5,7.5 L11.5,7.5 Z M11.5,8.5 L4.5,8.5 L4.5,9.5 L11.5,9.5 L11.5,8.5 Z M11.5,3.5 C12.0522847,3.5 12.5,3.94771525 12.5,4.5 L12.5,5.5 C12.5,6.05228475 12.0522847,6.5 11.5,6.5 L4.5,6.5 C3.94771525,6.5 3.5,6.05228475 3.5,5.5 L3.5,4.5 C3.5,3.94771525 3.94771525,3.5 4.5,3.5 L11.5,3.5 Z M11.5,4.5 L4.5,4.5 L4.5,5.5 L11.5,5.5 L11.5,4.5 Z" id="icon-color" fill="#3D5466"></path>
    </g>
</svg>