<?xml version="1.0" encoding="UTF-8"?>
<svg width="32px" height="32px" viewBox="0 0 32 32" version="1.1" xmlns="http://www.w3.org/2000/svg" xmlns:xlink="http://www.w3.org/1999/xlink">
    <title>icon/digital experience/elements/form/form/32</title>
    <g id="icon/digital-experience/elements/form/form/32" stroke="none" stroke-width="1" fill="none" fill-rule="evenodd">
        <path d="M27,3 C28.1045695,3 29,3.8954305 29,5 L29,27 C29,28.1045695 28.1045695,29 27,29 L5,29 C3.8954305,29 3,28.1045695 3,27 L3,5 C3,3.8954305 3.8954305,3 5,3 L27,3 Z M27,5 L5,5 L5,27 L27,27 L27,5 Z M24,23 C24.5522847,23 25,23.4477153 25,24 C25,24.4909198 24.6462497,24.8992167 24.1797513,24.9838887 L24,25 L17,25 C16.4477153,25 16,24.5522847 16,24 C16,23.5090802 16.3537503,23.1007833 16.8202487,23.0161113 L17,23 L24,23 Z M23,15 C24.1045695,15 25,15.8954305 25,17 L25,19 C25,20.1045695 24.1045695,21 23,21 L9,21 C7.8954305,21 7,20.1045695 7,19 L7,17 C7,15.8954305 7.8954305,15 9,15 L23,15 Z M23,17 L9,17 L9,19 L23,19 L23,17 Z M23,7 C24.1045695,7 25,7.8954305 25,9 L25,11 C25,12.1045695 24.1045695,13 23,13 L9,13 C7.8954305,13 7,12.1045695 7,11 L7,9 C7,7.8954305 7.8954305,7 9,7 L23,7 Z M23,9 L9,9 L9,11 L23,11 L23,9 Z" id="icon-color" fill="#3D5466"></path>
    </g>
</svg>