<svg width="16" height="16" viewBox="0 0 16 16" fill="none" xmlns="http://www.w3.org/2000/svg">
<path d="M7.99999 14.0002H1.99999C1.86658 14.0083 1.73298 13.9879 1.60802 13.9405C1.48306 13.8931 1.36958 13.8197 1.27508 13.7252C1.18057 13.6306 1.10718 13.5172 1.05976 13.3922C1.01235 13.2672 0.991974 13.1337 0.999994 13.0002V7.00024C0.991974 6.86682 1.01235 6.73323 1.05976 6.60827C1.10718 6.48331 1.18057 6.36983 1.27508 6.27532C1.36958 6.18081 1.48306 6.10743 1.60802 6.06001C1.73298 6.01259 1.86658 5.99222 1.99999 6.00024H7.99999C8.13341 5.99222 8.267 6.01259 8.39196 6.06001C8.51692 6.10743 8.6304 6.18081 8.72491 6.27532C8.81942 6.36983 8.89281 6.48331 8.94022 6.60827C8.98764 6.73323 9.00801 6.86682 8.99999 7.00024V13.0002C9.00801 13.1337 8.98764 13.2672 8.94022 13.3922C8.89281 13.5172 8.81942 13.6306 8.72491 13.7252C8.6304 13.8197 8.51692 13.8931 8.39196 13.9405C8.267 13.9879 8.13341 14.0083 7.99999 14.0002ZM1.99999 7.00024V13.0002H7.99999V7.00024H1.99999Z" fill="black"/>
<path d="M11 9.50024H9.99999V5.00024H4.99999V4.00024H9.99999C10.1334 3.99222 10.267 4.01259 10.392 4.06001C10.5169 4.10743 10.6304 4.18081 10.7249 4.27532C10.8194 4.36983 10.8928 4.48331 10.9402 4.60827C10.9876 4.73323 11.008 4.86682 11 5.00024V9.50024Z" fill="black"/>
<path d="M13 7.00024H12V3.00024H7.99999V2.00024H12C12.1334 1.99222 12.267 2.01259 12.392 2.06001C12.5169 2.10743 12.6304 2.18081 12.7249 2.27532C12.8194 2.36983 12.8928 2.48331 12.9402 2.60827C12.9876 2.73323 13.008 2.86682 13 3.00024V7.00024Z" fill="black"/>
<path d="M12 8.50024V9.50024H13.4L11 12.2002V11.0002H9.99999V14.0002H13V13.0002H11.6L14 10.3002V11.5002H15V8.50024H12Z" fill="black"/>
</svg>
