<svg width="32" height="32" viewBox="0 0 32 32" fill="none" xmlns="http://www.w3.org/2000/svg">
<path d="M16 28H3.99999C3.73316 28.016 3.46597 27.9753 3.21605 27.8804C2.96613 27.7856 2.73917 27.6388 2.55015 27.4498C2.36113 27.2608 2.21436 27.0338 2.11953 26.7839C2.02469 26.534 1.98395 26.2668 1.99999 26V14C1.98395 13.7332 2.02469 13.466 2.11953 13.216C2.21436 12.9661 2.36113 12.7392 2.55015 12.5501C2.73917 12.3611 2.96613 12.2144 3.21605 12.1195C3.46597 12.0247 3.73316 11.9839 3.99999 12H16C16.2668 11.9839 16.534 12.0247 16.7839 12.1195C17.0338 12.2144 17.2608 12.3611 17.4498 12.5501C17.6388 12.7392 17.7856 12.9661 17.8804 13.216C17.9753 13.466 18.016 13.7332 18 14V26C18.016 26.2668 17.9753 26.534 17.8804 26.7839C17.7856 27.0338 17.6388 27.2608 17.4498 27.4498C17.2608 27.6388 17.0338 27.7856 16.7839 27.8804C16.534 27.9753 16.2668 28.016 16 28ZM3.99999 14V26H16V14H3.99999Z" fill="black"/>
<path d="M22 19H20V9.99999H9.99999V7.99999H20C20.2668 7.98395 20.534 8.02469 20.7839 8.11953C21.0338 8.21436 21.2608 8.36113 21.4498 8.55015C21.6388 8.73917 21.7856 8.96613 21.8804 9.21605C21.9753 9.46597 22.016 9.73316 22 9.99999V19Z" fill="black"/>
<path d="M26 14H24V5.99999H16V3.99999H24C24.2668 3.98395 24.534 4.02469 24.7839 4.11953C25.0338 4.21436 25.2608 4.36113 25.4498 4.55015C25.6388 4.73917 25.7856 4.96613 25.8804 5.21605C25.9753 5.46597 26.016 5.73316 26 5.99999V14Z" fill="black"/>
<path d="M24 17V19H26.8L22 24.4V22H20V28H26V26H23.2L28 20.6V23H30V17H24Z" fill="black"/>
</svg>
