<?xml version="1.0" encoding="UTF-8"?>
<svg width="16px" height="16px" viewBox="0 0 16 16" version="1.1" xmlns="http://www.w3.org/2000/svg" xmlns:xlink="http://www.w3.org/1999/xlink">
    <title>icon/digital experience/elements/layout/section/16</title>
    <g id="icon/digital-experience/elements/layout/section/16" stroke="none" stroke-width="1" fill="none" fill-rule="evenodd">
        <path d="M2.5,13 L2.5,13.9930556 L2.5,14 C2.26406938,14 1.5,13.8595711 1.5,13 L2.5,13 Z M4.5,13 L4.5,14 L3.5,14 L3.5,13 L4.5,13 Z M6.5,13 L6.5,14 L5.5,14 L5.5,13 L6.5,13 Z M8.5,13 L8.5,14 L7.5,14 L7.5,13 L8.5,13 Z M10.5,13 L10.5,14 L9.5,14 L9.5,13 L10.5,13 Z M12.5,13 L12.5,14 L11.5,14 L11.5,13 L12.5,13 Z M14.5,13 C14.5,13.2359306 14.3595711,14 13.5,14 L13.5,13 L14.5,13 Z M2.5,11 L2.5,12 L1.5,12 L1.5,11 L2.5,11 Z M14.5,11 L14.5,12 L13.5,12 L13.5,11 L14.5,11 Z M13.5,9 C13.7359306,9 14.5,9.14042886 14.5,10 L13.5,10 L13.5,9 Z M12.5,9 L12.5,10 L11.5,10 L11.5,9 L12.5,9 Z M10.5,9 L10.5,10 L9.5,10 L9.5,9 L10.5,9 Z M8.5,9 L8.5,10 L7.5,10 L7.5,9 L8.5,9 Z M6.5,9 L6.5,10 L5.5,10 L5.5,9 L6.5,9 Z M4.5,9 L4.5,10 L3.5,10 L3.5,9 L4.5,9 Z M2.5,9 L2.5,10 L1.5,10 C1.5,9.76406938 1.64042886,9 2.5,9 Z M13.5,2 C14.0522847,2 14.5,2.44771525 14.5,3 L14.5,6 C14.5,6.55228475 14.0522847,7 13.5,7 L2.5,7 C1.94771525,7 1.5,6.55228475 1.5,6 L1.5,3 C1.5,2.44771525 1.94771525,2 2.5,2 L13.5,2 Z M13.5,3 L2.5,3 L2.5,6 L13.5,6 L13.5,3 Z" id="icon-color" fill="#3D5466"></path>
    </g>
</svg>