<?xml version="1.0" encoding="UTF-8"?>
<svg width="24px" height="24px" viewBox="0 0 24 24" version="1.1" xmlns="http://www.w3.org/2000/svg" xmlns:xlink="http://www.w3.org/1999/xlink">
    <title>icon/digital experience/elements/layout/section/24</title>
    <g id="icon/digital-experience/elements/layout/section/24" stroke="none" stroke-width="1" fill="none" fill-rule="evenodd">
        <path d="M3.75,19.5 L3.75,20.9933333 C3.75,20.9977778 3.75,21 3.75,21 C3.39610407,21 2.25,20.7893567 2.25,19.5 L3.75,19.5 Z M6.75,19.5 L6.75,21 L5.25,21 L5.25,19.5 L6.75,19.5 Z M9.75,19.5 L9.75,21 L8.25,21 L8.25,19.5 L9.75,19.5 Z M12.75,19.5 L12.75,21 L11.25,21 L11.25,19.5 L12.75,19.5 Z M15.75,19.5 L15.75,21 L14.25,21 L14.25,19.5 L15.75,19.5 Z M18.75,19.5 L18.75,21 L17.25,21 L17.25,19.5 L18.75,19.5 Z M21.75,19.5 C21.75,19.8538959 21.5393567,21 20.25,21 L20.25,19.5 L21.75,19.5 Z M3.75,16.5 L3.75,18 L2.25,18 L2.25,16.5 L3.75,16.5 Z M21.75,16.5 L21.75,18 L20.25,18 L20.25,16.5 L21.75,16.5 Z M20.25,13.5 C20.6038959,13.5 21.75,13.7106433 21.75,15 L20.25,15 L20.25,13.5 Z M18.75,13.5 L18.75,15 L17.25,15 L17.25,13.5 L18.75,13.5 Z M15.75,13.5 L15.75,15 L14.25,15 L14.25,13.5 L15.75,13.5 Z M12.75,13.5 L12.75,15 L11.25,15 L11.25,13.5 L12.75,13.5 Z M9.75,13.5 L9.75,15 L8.25,15 L8.25,13.5 L9.75,13.5 Z M6.75,13.5 L6.75,15 L5.25,15 L5.25,13.5 L6.75,13.5 Z M3.75,13.5 L3.75,15 L2.25,15 C2.25,14.6461041 2.4606433,13.5 3.75,13.5 Z M20.25,3 C21.0784271,3 21.75,3.67157288 21.75,4.5 L21.75,9 C21.75,9.82842712 21.0784271,10.5 20.25,10.5 L3.75,10.5 C2.92157288,10.5 2.25,9.82842712 2.25,9 L2.25,4.5 C2.25,3.67157288 2.92157288,3 3.75,3 L20.25,3 Z M20.25,4.5 L3.75,4.5 L3.75,9 L20.25,9 L20.25,4.5 Z" id="icon-color" fill="#3D5466"></path>
    </g>
</svg>