<?xml version="1.0" encoding="UTF-8"?>
<svg width="16px" height="16px" viewBox="0 0 16 16" version="1.1" xmlns="http://www.w3.org/2000/svg" xmlns:xlink="http://www.w3.org/1999/xlink">
    <title>icon/digital experience/elements/layout/column item/16</title>
    <g id="icon/digital-experience/elements/layout/column-item/16" stroke="none" stroke-width="1" fill="none" fill-rule="evenodd">
        <path d="M10,13.5 L10,14.5 L10,14.5 C9.76406938,14.5 9,14.3595711 9,13.5 L10,13.5 Z M12,13.5 L12,14.5 L11,14.5 L11,13.5 L12,13.5 Z M14,13.5 C14,13.7359306 13.8595711,14.5 13,14.5 L13,13.5 L14,13.5 Z M6,1.5 C6.55228475,1.5 7,1.94771525 7,2.5 L7,13.5 C7,14.0522847 6.55228475,14.5 6,14.5 L3,14.5 C2.44771525,14.5 2,14.0522847 2,13.5 L2,2.5 C2,1.94771525 2.44771525,1.5 3,1.5 L6,1.5 Z M6,2.5 L3,2.5 L3,13.5 L6,13.5 L6,2.5 Z M10,11.5 L10,12.5 L9,12.5 L9,11.5 L10,11.5 Z M14,11.5 L14,12.5 L13,12.5 L13,11.5 L14,11.5 Z M10,9.5 L10,10.5 L9,10.5 L9,9.5 L10,9.5 Z M14,9.5 L14,10.5 L13,10.5 L13,9.5 L14,9.5 Z M10,7.5 L10,8.5 L9,8.5 L9,7.5 L10,7.5 Z M14,7.5 L14,8.5 L13,8.5 L13,7.5 L14,7.5 Z M10,5.5 L10,6.5 L9,6.5 L9,5.5 L10,5.5 Z M14,5.5 L14,6.5 L13,6.5 L13,5.5 L14,5.5 Z M10,3.5 L10,4.5 L9,4.5 L9,3.5 L10,3.5 Z M14,3.5 L14,4.5 L13,4.5 L13,3.5 L14,3.5 Z M13,1.5 C13.2359306,1.5 14,1.64042886 14,2.5 L13,2.5 L13,1.5 Z M12,1.5 L12,2.5 L11,2.5 L11,1.5 L12,1.5 Z M10,1.5 L10,2.5 L10,2.5 L9.00694444,2.5 L9,2.5 C9,2.26406938 9.14042886,1.5 10,1.5 Z" id="icon-color" fill="#3D5466"></path>
    </g>
</svg>