<?xml version="1.0" encoding="UTF-8"?>
<svg width="24px" height="24px" viewBox="0 0 24 24" version="1.1" xmlns="http://www.w3.org/2000/svg" xmlns:xlink="http://www.w3.org/1999/xlink">
    <title>icon/digital experience/elements/layout/column item/24</title>
    <g id="icon/digital-experience/elements/layout/column-item/24" stroke="none" stroke-width="1" fill="none" fill-rule="evenodd">
        <path d="M15,20.25 L15,21.75 L15,21.75 C14.6461041,21.75 13.5,21.5393567 13.5,20.25 L15,20.25 Z M18,20.25 L18,21.75 L16.5,21.75 L16.5,20.25 L18,20.25 Z M21,20.25 C21,20.6038959 20.7893567,21.75 19.5,21.75 L19.5,20.25 L21,20.25 Z M9,2.25 C9.82842712,2.25 10.5,2.92157288 10.5,3.75 L10.5,20.25 C10.5,21.0784271 9.82842712,21.75 9,21.75 L4.5,21.75 C3.67157288,21.75 3,21.0784271 3,20.25 L3,3.75 C3,2.92157288 3.67157288,2.25 4.5,2.25 L9,2.25 Z M9,3.75 L4.5,3.75 L4.5,20.25 L9,20.25 L9,3.75 Z M15,17.25 L15,18.75 L13.5,18.75 L13.5,17.25 L15,17.25 Z M21,17.25 L21,18.75 L19.5,18.75 L19.5,17.25 L21,17.25 Z M15,14.25 L15,15.75 L13.5,15.75 L13.5,14.25 L15,14.25 Z M21,14.25 L21,15.75 L19.5,15.75 L19.5,14.25 L21,14.25 Z M15,11.25 L15,12.75 L13.5,12.75 L13.5,11.25 L15,11.25 Z M21,11.25 L21,12.75 L19.5,12.75 L19.5,11.25 L21,11.25 Z M15,8.25 L15,9.75 L13.5,9.75 L13.5,8.25 L15,8.25 Z M21,8.25 L21,9.75 L19.5,9.75 L19.5,8.25 L21,8.25 Z M15,5.25 L15,6.75 L13.5,6.75 L13.5,5.25 L15,5.25 Z M21,5.25 L21,6.75 L19.5,6.75 L19.5,5.25 L21,5.25 Z M19.5,2.25 C19.8538959,2.25 21,2.4606433 21,3.75 L19.5,3.75 L19.5,2.25 Z M18,2.25 L18,3.75 L16.5,3.75 L16.5,2.25 L18,2.25 Z M15,2.25 L15,3.75 L13.5,3.75 C13.5,3.39610407 13.7106433,2.25 15,2.25 Z" id="icon-color" fill="#3D5466"></path>
    </g>
</svg>