<svg width="24" height="24" viewBox="0 0 24 24" fill="none" xmlns="http://www.w3.org/2000/svg">
<path d="M18 12H6V13.5H18V12Z" fill="black"/>
<path d="M6 15.3H13.5V16.8H6V15.3Z" fill="black"/>
<path fill-rule="evenodd" clip-rule="evenodd" d="M19.5 3H16.5V1.5H15V3H9V1.5H7.5V3H4.5C4.10218 3 3.72065 3.15804 3.43934 3.43934C3.15804 3.72065 3 4.10218 3 4.5V19.5C3 19.8978 3.15804 20.2794 3.43934 20.5607C3.72065 20.842 4.10218 21 4.5 21H19.5C19.8978 21 20.2794 20.842 20.5607 20.5607C20.842 20.2794 21 19.8978 21 19.5V4.5C21 4.10218 20.842 3.72065 20.5607 3.43934C20.2794 3.15804 19.8978 3 19.5 3ZM19.5 19.5H4.5V9H19.5V19.5ZM19.5 7.5H4.5V4.5H7.5V6H9V4.5H15V6H16.5V4.5H19.5V7.5Z" fill="black"/>
</svg>
