<svg width="32" height="32" viewBox="0 0 32 32" fill="none" xmlns="http://www.w3.org/2000/svg">
<path d="M24 16H8V18H24V16Z" fill="black"/>
<path d="M8 20.4H18V22.4H8V20.4Z" fill="black"/>
<path fill-rule="evenodd" clip-rule="evenodd" d="M26 4H22V2H20V4H12V2H10V4H6C5.46957 4 4.96086 4.21072 4.58579 4.58579C4.21072 4.96086 4 5.46957 4 6V26C4 26.5304 4.21072 27.0392 4.58579 27.4142C4.96086 27.7893 5.46957 28 6 28H26C26.5304 28 27.0392 27.7893 27.4142 27.4142C27.7893 27.0392 28 26.5304 28 26V6C28 5.46957 27.7893 4.96086 27.4142 4.58579C27.0392 4.21072 26.5304 4 26 4ZM26 26H6V12H26V26ZM26 10H6V6H10V8H12V6H20V8H22V6H26V10Z" fill="black"/>
</svg>
