<svg width="16" height="16" viewBox="0 0 16 16" fill="none" xmlns="http://www.w3.org/2000/svg">
<path fill-rule="evenodd" clip-rule="evenodd" d="M14 13.4999C14 14.0522 13.5523 14.4999 13 14.4999H10C9.44772 14.4999 9 14.0522 9 13.4999V2.49994C9 1.94765 9.44772 1.49994 10 1.49994H13C13.5523 1.49994 14 1.94765 14 2.49994V13.4999ZM13 13.4999V2.49994H10V13.4999H13Z" fill="black"/>
<path fill-rule="evenodd" clip-rule="evenodd" d="M7 13.4999C7 14.0522 6.55228 14.4999 6 14.4999H3C2.44772 14.4999 2 14.0522 2 13.4999V2.49994C2 1.94765 2.44772 1.49994 3 1.49994H6C6.55228 1.49994 7 1.94765 7 2.49994V13.4999ZM6 13.4999V2.49994H3V13.4999H6Z" fill="black"/>
</svg>
