<svg width="32" height="32" viewBox="0 0 32 32" fill="none" xmlns="http://www.w3.org/2000/svg">
<path fill-rule="evenodd" clip-rule="evenodd" d="M28 26.9999C28 28.1044 27.1046 28.9999 26 28.9999H20C18.8954 28.9999 18 28.1044 18 26.9999V4.99988C18 3.89531 18.8954 2.99988 20 2.99988H26C27.1046 2.99988 28 3.89531 28 4.99988V26.9999ZM26 26.9999V4.99988H20V26.9999H26Z" fill="black"/>
<path fill-rule="evenodd" clip-rule="evenodd" d="M14 26.9999C14 28.1044 13.1046 28.9999 12 28.9999H6C4.89543 28.9999 4 28.1044 4 26.9999V4.99988C4 3.89531 4.89543 2.99988 6 2.99988H12C13.1046 2.99988 14 3.89531 14 4.99988V26.9999ZM12 26.9999V4.99988H6V26.9999H12Z" fill="black"/>
</svg>
