<svg width="16" height="16" viewBox="0 0 16 16" fill="none" xmlns="http://www.w3.org/2000/svg">
<path fill-rule="evenodd" clip-rule="evenodd" d="M4 14H6V15H4C3.73478 15 3.48044 14.8946 3.29291 14.7071C3.10537 14.5196 3 14.2652 3 14V1.99998C3 1.73476 3.10537 1.48041 3.29291 1.29287C3.48044 1.10534 3.73478 0.999981 4 0.999981H9C9.06571 0.998216 9.13102 1.01071 9.19144 1.03661C9.25186 1.0625 9.30597 1.10118 9.35001 1.14998L12.85 4.64998C12.8988 4.69402 12.9375 4.74811 12.9634 4.80853C12.9893 4.86895 13.0018 4.93427 13 4.99998V6.99998H12V5.99998H9C8.73478 5.99998 8.48044 5.89462 8.29291 5.70709C8.10537 5.51955 8 5.2652 8 4.99998V1.99998H4V14ZM11.8 4.99998L9 2.19998V4.99998H11.8Z" fill="black"/>
<path fill-rule="evenodd" clip-rule="evenodd" d="M13.355 8.14491L14.855 9.64491C14.9019 9.69139 14.9391 9.74669 14.9644 9.80762C14.9898 9.86855 15.0029 9.9339 15.0029 9.99991C15.0029 10.0659 14.9898 10.1313 14.9644 10.1922C14.9391 10.2531 14.9019 10.3084 14.855 10.3549L10.205 14.9999H8V12.7949L12.645 8.14491C12.6915 8.09804 12.7468 8.06085 12.8077 8.03546C12.8686 8.01008 12.934 7.99701 13 7.99701C13.066 7.99701 13.1314 8.01008 13.1923 8.03546C13.2532 8.06085 13.3085 8.09804 13.355 8.14491ZM9 13.9999H9.795L12.295 11.4999L11.5 10.7049L9 13.2049V13.9999ZM12.205 9.99991L13 10.7949L13.795 9.99991L13 9.20491L12.205 9.99991Z" fill="black"/>
</svg>
