<svg width="32" height="32" viewBox="0 0 32 32" fill="none" xmlns="http://www.w3.org/2000/svg">
<path fill-rule="evenodd" clip-rule="evenodd" d="M8 28H12V30H8C7.46957 30 6.96089 29.7892 6.58582 29.4142C6.21074 29.0391 6 28.5304 6 28V3.99996C6 3.46953 6.21074 2.96082 6.58582 2.58575C6.96089 2.21067 7.46957 1.99996 8 1.99996H18C18.1314 1.99643 18.262 2.02142 18.3829 2.07321C18.5037 2.125 18.6119 2.20236 18.7 2.29996L25.7 9.29996C25.7976 9.38805 25.875 9.49622 25.9268 9.61707C25.9785 9.73791 26.0035 9.86854 26 9.99996V14H24V12H18C17.4696 12 16.9609 11.7892 16.5858 11.4142C16.2107 11.0391 16 10.5304 16 9.99996V3.99996H8V28ZM23.6 9.99996L18 4.39996V9.99996H23.6Z" fill="black"/>
<path fill-rule="evenodd" clip-rule="evenodd" d="M26.71 16.2898L29.71 19.2898C29.8037 19.3828 29.8781 19.4934 29.9289 19.6152C29.9797 19.7371 30.0058 19.8678 30.0058 19.9998C30.0058 20.1318 29.9797 20.2625 29.9289 20.3844C29.8781 20.5063 29.8037 20.6169 29.71 20.7098L20.41 29.9998H16V25.5898L25.29 16.2898C25.383 16.1961 25.4936 16.1217 25.6154 16.0709C25.7373 16.0202 25.868 15.994 26 15.994C26.132 15.994 26.2627 16.0202 26.3846 16.0709C26.5064 16.1217 26.617 16.1961 26.71 16.2898ZM18 27.9998H19.59L24.59 22.9998L23 21.4098L18 26.4098V27.9998ZM24.41 19.9998L26 21.5898L27.59 19.9998L26 18.4098L24.41 19.9998Z" fill="black"/>
</svg>
