<svg width="16" height="16" viewBox="0 0 16 16" fill="none" xmlns="http://www.w3.org/2000/svg">
<path d="M9 7.5C9.276 7.5 9.5 7.724 9.5 8V8.793L10.72 8.027C10.845 7.949 11 8.048 11 8.206V10.794C11 10.952 10.845 11.051 10.72 10.973L9.5 10.207V11C9.5 11.276 9.276 11.5 9 11.5H5.5C5.224 11.5 5 11.276 5 11V8C5 7.724 5.224 7.5 5.5 7.5H9Z" fill="black"/>
<path fill-rule="evenodd" clip-rule="evenodd" d="M13 2H11V1H10V2H6V1H5V2H3C2.44772 2 2 2.44772 2 3V13C2 13.5523 2.44772 14 3 14H13C13.5523 14 14 13.5523 14 13V3C14 2.44772 13.5523 2 13 2ZM13 13H3V6H13V13ZM5 3V4H6V3H10V4H11V3H13V5H3V3H5Z" fill="black"/>
</svg>
