<?xml version="1.0" encoding="UTF-8"?>
<svg width="16px" height="16px" viewBox="0 0 16 16" version="1.1" xmlns="http://www.w3.org/2000/svg" xmlns:xlink="http://www.w3.org/1999/xlink">
    <title>icon/digital experience/pages/16</title>
    <g id="icon/digital-experience/pages/16" stroke="none" stroke-width="1" fill="none" fill-rule="evenodd">
        <path d="M11.9956007,1.00016423 C12.5478855,1.00016423 12.9956007,1.44787948 12.9956007,2.00016423 L12.995,3 L14,3 C14.5522847,3 15,3.44771525 15,4 L15,14 C15,14.5522847 14.5522847,15 14,15 L4,15 C3.44771525,15 3,14.5522847 3,14 L3,13.003 L2.00016423,13.0036699 C1.44787948,13.0036699 1.00016423,12.5559547 1.00016423,12.0036699 L1.00016423,5.00016423 C0.996593352,4.86717907 1.05140196,4.73929232 1.15016423,4.65016423 L4.65016423,1.15016423 C4.73929232,1.05140196 4.86717907,0.996593352 5.00016423,1.00016423 L11.9956007,1.00016423 Z M12.9956007,12.0036699 C12.9956007,12.5559547 12.5478855,13.0036699 11.9956007,13.0036699 L4,13.003 L4,14 L14,14 L14,4 L12.995,4 L12.9956007,12.0036699 Z M12.0047874,2.00016423 L6.00016423,2.00016423 L6.00016423,5.00016423 C6.00016423,5.55244898 5.55244898,6.00016423 5.00016423,6.00016423 L2.00016423,6.00016423 L2.00016423,11.9960643 L12.0047874,11.9960643 L12.0047874,2.00016423 Z M5.00016423,2.20016423 L2.20016423,5.00016423 L5.00016423,5.00016423 L5.00016423,2.20016423 Z" id="icon-color" fill="#3D5466"></path>
    </g>
</svg>