<?xml version="1.0" encoding="UTF-8"?>
<svg width="32px" height="32px" viewBox="0 0 32 32" version="1.1" xmlns="http://www.w3.org/2000/svg" xmlns:xlink="http://www.w3.org/1999/xlink">
    <title>icon/digital experience/pages/32</title>
    <g id="icon/digital-experience/pages/32" stroke="none" stroke-width="1" fill="none" fill-rule="evenodd">
        <path d="M23.9912015,2.00032846 C25.095771,2.00032846 25.9912015,2.89575896 25.9912015,4.00032846 L25.991,6 L28,6 C29.1045695,6 30,6.8954305 30,8 L30,28 C30,29.1045695 29.1045695,30 28,30 L8,30 C6.8954305,30 6,29.1045695 6,28 L6,26.007 L4.00032846,26.0073399 C2.89575896,26.0073399 2.00032846,25.1119094 2.00032846,24.0073399 L2.00032846,10.0003285 C1.9931867,9.73435814 2.10280391,9.47858465 2.30032846,9.30032846 L9.30032846,2.30032846 C9.47858465,2.10280391 9.73435814,1.9931867 10.0003285,2.00032846 L23.9912015,2.00032846 Z M25.9912015,24.0073399 C25.9912015,25.1119094 25.095771,26.0073399 23.9912015,26.0073399 L8,26.007 L8,28 L28,28 L28,8 L25.991,8 L25.9912015,24.0073399 Z M24.0095748,4.00032846 L12.0003285,4.00032846 L12.0003285,10.0003285 C12.0003285,11.104898 11.104898,12.0003285 10.0003285,12.0003285 L4.00032846,12.0003285 L4.00032846,23.9921287 L24.0095748,23.9921287 L24.0095748,4.00032846 Z M10.0003285,4.40032846 L4.40032846,10.0003285 L10.0003285,10.0003285 L10.0003285,4.40032846 Z" id="icon-color" fill="#3D5466"></path>
    </g>
</svg>