<?xml version="1.0" encoding="UTF-8"?>
<svg width="16px" height="16px" viewBox="0 0 16 16" version="1.1" xmlns="http://www.w3.org/2000/svg" xmlns:xlink="http://www.w3.org/1999/xlink">
    <title>icon/digital experience/components/tabs/16</title>
    <g id="icon/digital-experience/components/tabs/16" stroke="none" stroke-width="1" fill="none" fill-rule="evenodd">
        <path d="M5,2.5 C5.55228475,2.5 6,2.94771525 6,3.5 L6,4.5 L14,4.5 C14.5522847,4.5 15,4.94771525 15,5.5 L15,12.5 C15,13.0522847 14.5522847,13.5 14,13.5 L2,13.5 C1.44771525,13.5 1,13.0522847 1,12.5 L1,3.5 C1,2.94771525 1.44771525,2.5 2,2.5 L5,2.5 Z M5,3.5 L2,3.5 L2,12.5 L14,12.5 L14,5.5 L5,5.5 L5,3.5 Z M14,2.5 L14,3.5 L11,3.5 L11,2.5 L14,2.5 Z M10,2.5 L10,3.5 L7,3.5 L7,2.5 L10,2.5 Z" id="icon-color" fill="#3D5466"></path>
    </g>
</svg>