<?xml version="1.0" encoding="UTF-8"?>
<svg width="24px" height="24px" viewBox="0 0 24 24" version="1.1" xmlns="http://www.w3.org/2000/svg" xmlns:xlink="http://www.w3.org/1999/xlink">
    <title>icon/digital experience/components/tabs/24</title>
    <g id="icon/digital-experience/components/tabs/24" stroke="none" stroke-width="1" fill="none" fill-rule="evenodd">
        <path d="M7.5,3.75 C8.32842712,3.75 9,4.42157288 9,5.25 L9,6.75 L21,6.75 C21.8284271,6.75 22.5,7.42157288 22.5,8.25 L22.5,18.75 C22.5,19.5784271 21.8284271,20.25 21,20.25 L3,20.25 C2.17157288,20.25 1.5,19.5784271 1.5,18.75 L1.5,5.25 C1.5,4.42157288 2.17157288,3.75 3,3.75 L7.5,3.75 Z M7.5,5.25 L3,5.25 L3,18.75 L21,18.75 L21,8.25 L7.5,8.25 L7.5,5.25 Z M21,3.75 L21,5.25 L16.5,5.25 L16.5,3.75 L21,3.75 Z M15,3.75 L15,5.25 L10.5,5.25 L10.5,3.75 L15,3.75 Z" id="icon-color" fill="#3D5466"></path>
    </g>
</svg>