<?xml version="1.0" encoding="UTF-8"?>
<svg width="32px" height="32px" viewBox="0 0 32 32" version="1.1" xmlns="http://www.w3.org/2000/svg" xmlns:xlink="http://www.w3.org/1999/xlink">
    <title>icon/digital experience/components/tabs/32</title>
    <g id="icon/digital-experience/components/tabs/32" stroke="none" stroke-width="1" fill="none" fill-rule="evenodd">
        <path d="M10,5 C11.1045695,5 12,5.8954305 12,7 L12,9 L28,9 C29.1045695,9 30,9.8954305 30,11 L30,25 C30,26.1045695 29.1045695,27 28,27 L4,27 C2.8954305,27 2,26.1045695 2,25 L2,7 C2,5.8954305 2.8954305,5 4,5 L10,5 Z M10,7 L4,7 L4,25 L28,25 L28,11 L10,11 L10,7 Z M28,5 L28,7 L22,7 L22,5 L28,5 Z M20,5 L20,7 L14,7 L14,5 L20,5 Z" id="icon-color" fill="#3D5466"></path>
    </g>
</svg>