<?xml version="1.0" encoding="UTF-8"?>
<svg width="16px" height="16px" viewBox="0 0 16 16" version="1.1" xmlns="http://www.w3.org/2000/svg" xmlns:xlink="http://www.w3.org/1999/xlink">
    <title>icon/digital experience/elements/typography/quote/16</title>
    <g id="icon/digital-experience/elements/typography/quote/16" stroke="none" stroke-width="1" fill="none" fill-rule="evenodd">
        <path d="M9,12 L9,13 L1.5,13 L1.5,12 L9,12 Z M14.5,9 L14.5,10 L1.5,10 L1.5,9 L14.5,9 Z M3.5,3 L3.5,3.67079671 C2.66872188,3.71283202 2.22710539,4.12534422 2.1751505,4.90833331 L2.172,5 L3.5,5 L3.5,6 C3.5,6.55228475 3.05228475,7 2.5,7 L1.5,7 L1.5,5 L1.50413223,4.82469612 C1.56198347,3.60823204 2.22727273,3 3.5,3 Z M6.5,3 L6.5,3.67079671 C5.66872188,3.71283202 5.22710539,4.12534422 5.1751505,4.90833331 L5.172,5 L6.5,5 L6.5,6 C6.5,6.55228475 6.05228475,7 5.5,7 L4.5,7 L4.5,5 L4.50413223,4.82469612 C4.56198347,3.60823204 5.22727273,3 6.5,3 Z" id="icon-color" fill="#3D5466"></path>
    </g>
</svg>