<?xml version="1.0" encoding="UTF-8"?>
<svg width="24px" height="24px" viewBox="0 0 24 24" version="1.1" xmlns="http://www.w3.org/2000/svg" xmlns:xlink="http://www.w3.org/1999/xlink">
    <title>icon/digital experience/elements/typography/quote/24</title>
    <g id="icon/digital-experience/elements/typography/quote/24" stroke="none" stroke-width="1" fill="none" fill-rule="evenodd">
        <path d="M13.5,18 L13.5,19.5 L2.25,19.5 L2.25,18 L13.5,18 Z M21.75,13.5 L21.75,15 L2.25,15 L2.25,13.5 L21.75,13.5 Z M5.25,4.5 L5.25,5.50619507 C3.98329049,5.57024886 3.31977599,6.20779977 3.25945649,7.4188478 L3.257,7.5 L5.25,7.5 L5.25,9 C5.25,9.82842712 4.57842712,10.5 3.75,10.5 L2.25,10.5 L2.25,7.5 L2.25382653,7.29318722 C2.32270408,5.43106241 3.32142857,4.5 5.25,4.5 Z M9.75,4.5 L9.75,5.50619507 C8.48329049,5.57024886 7.81977599,6.20779977 7.75945649,7.4188478 L7.757,7.5 L9.75,7.5 L9.75,9 C9.75,9.82842712 9.07842712,10.5 8.25,10.5 L6.75,10.5 L6.75,7.5 L6.75382653,7.29318722 C6.82270408,5.43106241 7.82142857,4.5 9.75,4.5 Z" id="icon-color" fill="#3D5466"></path>
    </g>
</svg>