<?xml version="1.0" encoding="UTF-8"?>
<svg width="16px" height="16px" viewBox="0 0 16 16" version="1.1" xmlns="http://www.w3.org/2000/svg" xmlns:xlink="http://www.w3.org/1999/xlink">
    <title>icon/digital experience/elements/basic/button/16</title>
    <g id="icon/digital-experience/elements/basic/button/16" stroke="none" stroke-width="1" fill="none" fill-rule="evenodd">
        <path d="M14,3.5 C14.5522847,3.5 15,3.94771525 15,4.5 L15,11.5 C15,12.0522847 14.5522847,12.5 14,12.5 L2,12.5 C1.44771525,12.5 1,12.0522847 1,11.5 L1,4.5 C1,3.94771525 1.44771525,3.5 2,3.5 L14,3.5 Z M14,4.5 L2,4.5 L2,11.5 L14,11.5 L14,4.5 Z M11,5.5 L11,5.645 L12,7.895 L12,5.5 L13,5.5 L13,10.5 L12,10.5 L12,10.356 L11,8.106 L11,10.5 L10,10.5 L10,5.5 L11,5.5 Z M9.5,5.5 L9.5,6.5 L8.5,6.5 L8.5,10.5 L7.5,10.5 L7.5,6.5 L6.5,6.5 L6.5,5.5 L9.5,5.5 Z M5,5.5 C5.55228475,5.5 6,5.94771525 6,6.5 L6,7.5 C6,7.68260372 5.9510565,7.85377607 5.86557226,8.0011143 C5.95127427,8.14698644 6,8.31780297 6,8.5 L6,9.5 C6,10.0522847 5.55228475,10.5 5,10.5 L3,10.5 L3,5.5 L5,5.5 Z M5,8.5 L4,8.5 L4,9.5 L5,9.5 L5,8.5 Z M5,6.5 L4,6.5 L4,7.5 L5,7.5 L5,6.5 Z" id="icon-color" fill="#3D5466"></path>
    </g>
</svg>