<?xml version="1.0" encoding="UTF-8"?>
<svg width="24px" height="24px" viewBox="0 0 24 24" version="1.1" xmlns="http://www.w3.org/2000/svg" xmlns:xlink="http://www.w3.org/1999/xlink">
    <title>icon/digital experience/elements/basic/button/24</title>
    <g id="icon/digital-experience/elements/basic/button/24" stroke="none" stroke-width="1" fill="none" fill-rule="evenodd">
        <path d="M21,5.25 C21.8284271,5.25 22.5,5.92157288 22.5,6.75 L22.5,17.25 C22.5,18.0784271 21.8284271,18.75 21,18.75 L3,18.75 C2.17157288,18.75 1.5,18.0784271 1.5,17.25 L1.5,6.75 C1.5,5.92157288 2.17157288,5.25 3,5.25 L21,5.25 Z M21,6.75 L3,6.75 L3,17.25 L21,17.25 L21,6.75 Z M16.5,8.25 L16.5,8.466 L18,11.841 L18,8.25 L19.5,8.25 L19.5,15.75 L18,15.75 L18,15.535 L16.5,12.16 L16.5,15.75 L15,15.75 L15,8.25 L16.5,8.25 Z M14.25,8.25 L14.25,9.75 L12.75,9.75 L12.75,15.75 L11.25,15.75 L11.25,9.75 L9.75,9.75 L9.75,8.25 L14.25,8.25 Z M7.5,8.25 C8.32842712,8.25 9,8.92157288 9,9.75 L9,11.25 C9,11.5238022 8.92664016,11.7804703 8.79850357,12.0014212 C8.92686129,12.220304 9,12.4766108 9,12.75 L9,14.25 C9,15.0784271 8.32842712,15.75 7.5,15.75 L4.5,15.75 L4.5,8.25 L7.5,8.25 Z M7.5,12.75 L6,12.75 L6,14.25 L7.5,14.25 L7.5,12.75 Z M7.5,9.75 L6,9.75 L6,11.25 L7.5,11.25 L7.5,9.75 Z" id="icon-color" fill="#3D5466"></path>
    </g>
</svg>