<svg width="24" height="24" viewBox="0 0 24 24" fill="none" xmlns="http://www.w3.org/2000/svg">
<path d="M12 9.00372C12.5933 9.00372 13.1734 9.17967 13.6667 9.50931C14.1601 9.83896 14.5446 10.3075 14.7716 10.8557C14.9987 11.4039 15.0581 12.0071 14.9424 12.589C14.8266 13.1709 14.5409 13.7055 14.1213 14.125C13.7018 14.5446 13.1672 14.8303 12.5853 14.9461C12.0033 15.0618 11.4001 15.0024 10.852 14.7754C10.3038 14.5483 9.83524 14.1638 9.50559 13.6704C9.17595 13.1771 9 12.5971 9 12.0037C9.0009 11.2083 9.31725 10.4458 9.87967 9.88339C10.4421 9.32097 11.2046 9.00462 12 9.00372ZM12 7.50372C11.11 7.50372 10.24 7.76764 9.49994 8.26211C8.75991 8.75658 8.18314 9.45938 7.84254 10.2816C7.50195 11.1039 7.41283 12.0087 7.58647 12.8816C7.7601 13.7545 8.18869 14.5564 8.81802 15.1857C9.44736 15.815 10.2492 16.2436 11.1221 16.4173C11.995 16.5909 12.8998 16.5018 13.7221 16.1612C14.5443 15.8206 15.2471 15.2438 15.7416 14.5038C16.2361 13.7638 16.5 12.8937 16.5 12.0037C16.5 10.8102 16.0259 9.66566 15.182 8.82174C14.3381 7.97783 13.1935 7.50372 12 7.50372Z" fill="black"/>
<path d="M4.04578 5.10974L5.10644 4.04908L7.73581 6.67846L6.67515 7.73912L4.04578 5.10974Z" fill="black"/>
<path d="M1.5 11.2537H5.25V12.7537H1.5V11.2537Z" fill="black"/>
<path d="M4.04578 18.8983L6.67515 16.2689L7.73581 17.3295L5.10644 19.9589L4.04578 18.8983Z" fill="black"/>
<path d="M11.25 18.7537H12.75V22.5037H11.25V18.7537Z" fill="black"/>
<path d="M16.2653 17.329L17.3259 16.2683L19.9553 18.8977L18.8946 19.9584L16.2653 17.329Z" fill="black"/>
<path d="M18.75 11.2537H22.5V12.7537H18.75V11.2537Z" fill="black"/>
<path d="M16.2653 6.67798L18.8946 4.0486L19.9553 5.10926L17.3259 7.73864L16.2653 6.67798Z" fill="black"/>
<path d="M11.25 1.50372H12.75V5.25372H11.25V1.50372Z" fill="black"/>
</svg>
