<svg width="16" height="16" viewBox="0 0 16 16" fill="none" xmlns="http://www.w3.org/2000/svg">
<g clip-path="url(#clip0_3053_179)">
<path fill-rule="evenodd" clip-rule="evenodd" d="M1.25 13.1498C0.55 13.1498 1.45391e-07 13.6498 9.18261e-08 14.3498C3.82608e-08 15.0498 0.65 15.5498 1.25 15.5498C1.95 15.5498 2.5 15.0498 2.5 14.3498C2.5 13.6498 1.95 13.1498 1.25 13.1498ZM8.04999 13.1498C7.34999 13.1498 6.79999 13.6498 6.79999 14.3498C6.79999 15.0498 7.29999 15.5498 8.04999 15.5498C8.74999 15.5498 9.29999 15.0498 9.29999 14.3498C9.29999 13.6498 8.74999 13.1498 8.04999 13.1498ZM14.7 13.1498C14 13.1498 13.45 13.6498 13.45 14.3498C13.45 15.0498 14 15.5498 14.75 15.5498C15.45 15.5498 16 15.0498 16 14.3498C16 13.6498 15.45 13.1498 14.7 13.1498ZM14.7 6.85C14 6.85 13.45 7.35 13.45 8.05C13.45 8.65 14 9.25 14.7 9.25C15.4 9.25 15.95 8.75 15.95 8.05C15.95 7.35 15.4 6.85 14.7 6.85ZM13.45 1.64961C13.45 0.949608 14 0.449608 14.7 0.449608C15.4 0.449608 15.95 0.949608 15.95 1.64961C15.95 2.34961 15.4 2.84961 14.7 2.84961C14 2.84961 13.45 2.34961 13.45 1.64961ZM6.79999 8.05C6.79999 7.35 7.34999 6.85 8.04999 6.85C8.74999 6.85 9.29999 7.35 9.29999 8.05C9.29999 8.75 8.74999 9.25 8.04999 9.25C7.29999 9.25 6.79999 8.65 6.79999 8.05Z" fill="black"/>
</g>
<defs>
<clipPath id="clip0_3053_179">
<rect width="16" height="16" fill="white" transform="translate(16 16) rotate(-180)"/>
</clipPath>
</defs>
</svg>
