<?xml version="1.0" encoding="UTF-8"?>
<svg xmlns="http://www.w3.org/2000/svg" xmlns:xlink="http://www.w3.org/1999/xlink" width="24px" height="24px" viewBox="0 0 24 24" version="1.1">
<g id="surface1">
<path style=" stroke:none;fill-rule:evenodd;fill:rgb(0%,0%,0%);fill-opacity:1;" d="M 1.875 19.726562 C 0.824219 19.726562 0 20.476562 0 21.523438 C 0 22.574219 0.976562 23.324219 1.875 23.324219 C 2.925781 23.324219 3.75 22.574219 3.75 21.523438 C 3.75 20.476562 2.925781 19.726562 1.875 19.726562 Z M 12.074219 19.726562 C 11.023438 19.726562 10.199219 20.476562 10.199219 21.523438 C 10.199219 22.574219 10.949219 23.324219 12.074219 23.324219 C 13.125 23.324219 13.949219 22.574219 13.949219 21.523438 C 13.949219 20.476562 13.125 19.726562 12.074219 19.726562 Z M 22.050781 19.726562 C 21 19.726562 20.175781 20.476562 20.175781 21.523438 C 20.175781 22.574219 21 23.324219 22.125 23.324219 C 23.175781 23.324219 24 22.574219 24 21.523438 C 24 20.476562 23.175781 19.726562 22.050781 19.726562 Z M 22.050781 10.273438 C 21 10.273438 20.175781 11.023438 20.175781 12.074219 C 20.175781 12.976562 21 13.875 22.050781 13.875 C 23.101562 13.875 23.925781 13.125 23.925781 12.074219 C 23.925781 11.023438 23.101562 10.273438 22.050781 10.273438 Z M 20.175781 2.472656 C 20.175781 1.425781 21 0.675781 22.050781 0.675781 C 23.101562 0.675781 23.925781 1.425781 23.925781 2.472656 C 23.925781 3.523438 23.101562 4.273438 22.050781 4.273438 C 21 4.273438 20.175781 3.523438 20.175781 2.472656 Z M 10.199219 12.074219 C 10.199219 11.023438 11.023438 10.273438 12.074219 10.273438 C 13.125 10.273438 13.949219 11.023438 13.949219 12.074219 C 13.949219 13.125 13.125 13.875 12.074219 13.875 C 10.949219 13.875 10.199219 12.976562 10.199219 12.074219 Z M 10.199219 12.074219 "/>
</g>
</svg>
