<svg width="16" height="16" viewBox="0 0 16 16" fill="none" xmlns="http://www.w3.org/2000/svg">
<path d="M13.075 2.40808C13.5859 2.40808 14 2.79786 14 3.27867V12.8316C14 13.0625 13.9025 13.2839 13.7291 13.4472C13.5556 13.6104 13.3203 13.7022 13.075 13.7022H2.925C2.67967 13.7022 2.4444 13.6104 2.27093 13.4472C2.09746 13.2839 2 13.0625 2 12.8316V3.27867C2 2.79786 2.41414 2.40808 2.925 2.40808H13.075ZM13 3.34926H3V12.761H13V3.34926ZM8.5 4.91789V7.58455H11.3333V8.52573H8.5V11.1924H7.5V8.52573H4.66667V7.58455H7.5V4.91789H8.5Z" fill="black"/>
</svg>
