<svg width="24" height="24" viewBox="0 0 24 24" fill="none" xmlns="http://www.w3.org/2000/svg">
<path d="M19.6125 3.61218C20.3788 3.61218 21 4.19685 21 4.91806V19.2475C21 19.5938 20.8538 19.926 20.5937 20.1709C20.3334 20.4157 19.9804 20.5534 19.6125 20.5534H4.3875C4.0195 20.5534 3.6666 20.4157 3.4064 20.1709C3.14619 19.926 3 19.5938 3 19.2475V4.91806C3 4.19685 3.62121 3.61218 4.3875 3.61218H19.6125ZM19.5 5.02395H4.5V19.1416H19.5V5.02395ZM12.75 7.37689V11.3769H16.9999V12.7887H12.75V16.7886H11.25V12.7887H7V11.3769H11.25V7.37689H12.75Z" fill="black"/>
</svg>
