<svg width="32" height="32" viewBox="0 0 32 32" fill="none" xmlns="http://www.w3.org/2000/svg">
<path d="M26.15 4.81616C27.1718 4.81616 28 5.59572 28 6.55734V25.6632C28 26.125 27.805 26.5679 27.4582 26.8945C27.1112 27.2209 26.6406 27.4044 26.15 27.4044H5.85C5.35934 27.4044 4.8888 27.2209 4.54186 26.8945C4.19492 26.5679 4 26.125 4 25.6632V6.55734C4 5.59572 4.82828 4.81616 5.85 4.81616H26.15ZM26 6.69852H6V25.5221H26V6.69852ZM17 9.83578V15.1691H22.6666V17.0515H17V22.3847H15V17.0515H9.33334V15.1691H15V9.83578H17Z" fill="black"/>
</svg>
