<svg width="24" height="24" viewBox="0 0 24 24" fill="none" xmlns="http://www.w3.org/2000/svg">
<path d="M13.5 9.75V3H12V4.5H9.75V6H12V9.75H9.75V11.25H15.75V9.75H13.5ZM12.375 15C12.8942 15 13.4017 15.154 13.8334 15.4424C14.2651 15.7308 14.6015 16.1408 14.8002 16.6205C14.9989 17.1001 15.0508 17.6279 14.9496 18.1371C14.8483 18.6463 14.5983 19.114 14.2312 19.4812C13.864 19.8483 13.3963 20.0983 12.8871 20.1996C12.3779 20.3008 11.8501 20.2489 11.3705 20.0502C10.8908 19.8515 10.4808 19.5151 10.1924 19.0834C9.90395 18.6517 9.75 18.1442 9.75 17.625C9.75 16.9288 10.0266 16.2611 10.5188 15.7688C11.0111 15.2766 11.6788 15 12.375 15ZM12.375 13.5C11.5592 13.5 10.7616 13.7419 10.0833 14.1952C9.40492 14.6484 8.87621 15.2927 8.564 16.0464C8.25179 16.8002 8.1701 17.6296 8.32926 18.4297C8.48843 19.2299 8.88129 19.9649 9.45818 20.5418C10.0351 21.1187 10.7701 21.5116 11.5703 21.6707C12.3704 21.8299 13.1998 21.7482 13.9536 21.436C14.7073 21.1238 15.3516 20.5951 15.8048 19.9167C16.2581 19.2384 16.5 18.4408 16.5 17.625C16.5 16.531 16.0654 15.4818 15.2918 14.7082C14.5182 13.9346 13.469 13.5 12.375 13.5ZM6 22.5H1.5V1.5H6V3H3V21H6V22.5ZM22.5 22.5H18V21H21V3H18V1.5H22.5V22.5Z" fill="black"/>
</svg>
