<?xml version="1.0" encoding="UTF-8"?>
<svg width="16px" height="16px" viewBox="0 0 16 16" version="1.1" xmlns="http://www.w3.org/2000/svg" xmlns:xlink="http://www.w3.org/1999/xlink">
    <title>icon/digital experience/elements/layout/body/16</title>
    <g id="icon/digital-experience/elements/layout/body/16" stroke="none" stroke-width="1" fill="none" fill-rule="evenodd">
        <path d="M13.5,1.5 C14.0522847,1.5 14.5,1.94771525 14.5,2.5 L14.5,13.5 C14.5,14.0522847 14.0522847,14.5 13.5,14.5 L2.5,14.5 C1.94771525,14.5 1.5,14.0522847 1.5,13.5 L1.5,2.5 C1.5,1.94771525 1.94771525,1.5 2.5,1.5 L13.5,1.5 Z M13.5,12.5 L2.5,12.5 L2.5,13.5 L13.5,13.5 L13.5,12.5 Z M13.5,4.5 L2.5,4.5 L2.5,11.5 L13.5,11.5 L13.5,4.5 Z M13.5,2.5 L2.5,2.5 L2.5,3.5 L13.5,3.5 L13.5,2.5 Z" id="icon-color" fill="#3D5466"></path>
    </g>
</svg>