<?xml version="1.0" encoding="UTF-8"?>
<svg width="24px" height="24px" viewBox="0 0 24 24" version="1.1" xmlns="http://www.w3.org/2000/svg" xmlns:xlink="http://www.w3.org/1999/xlink">
    <title>icon/digital experience/elements/layout/body/124</title>
    <g id="icon/digital-experience/elements/layout/body/124" stroke="none" stroke-width="1" fill="none" fill-rule="evenodd">
        <path d="M20.25,2.25 C21.0784271,2.25 21.75,2.92157288 21.75,3.75 L21.75,20.25 C21.75,21.0784271 21.0784271,21.75 20.25,21.75 L3.75,21.75 C2.92157288,21.75 2.25,21.0784271 2.25,20.25 L2.25,3.75 C2.25,2.92157288 2.92157288,2.25 3.75,2.25 L20.25,2.25 Z M20.25,18.75 L3.75,18.75 L3.75,20.25 L20.25,20.25 L20.25,18.75 Z M20.25,6.75 L3.75,6.75 L3.75,17.25 L20.25,17.25 L20.25,6.75 Z M20.25,3.75 L3.75,3.75 L3.75,5.25 L20.25,5.25 L20.25,3.75 Z" id="icon-color" fill="#3D5466"></path>
    </g>
</svg>