<svg width="16" height="16" viewBox="0 0 16 16" fill="none" xmlns="http://www.w3.org/2000/svg">
<g clip-path="url(#clip0_1345_101756)">
<path fill-rule="evenodd" clip-rule="evenodd" d="M7 14.0002H4V2.00016H8V5.00016C8 5.26538 8.10537 5.51974 8.29291 5.70727C8.48044 5.89481 8.73478 6.00016 9 6.00016H12V7.00016H13V5.00016C13.0018 4.93445 12.9893 4.86914 12.9634 4.80872C12.9375 4.7483 12.8988 4.69421 12.85 4.65017L9.35001 1.15017C9.30597 1.10136 9.25186 1.06268 9.19144 1.03679C9.13102 1.01089 9.06571 0.998399 9 1.00016H4C3.73478 1.00016 3.48044 1.10552 3.29291 1.29306C3.10537 1.48059 3 1.73495 3 2.00016V14.0002C3 14.2654 3.10537 14.5197 3.29291 14.7073C3.48044 14.8948 3.73478 15.0002 4 15.0002H7V14.0002ZM9 2.20016L11.8 5.00016H9V2.20016ZM13 12.2951L12 11.2951V10.0001H11V11.7051L12.295 13.0001L13 12.2951ZM9.5555 14.4103C10.1311 14.7949 10.8078 15.0001 11.5 15.0001C12.4283 15.0001 13.3185 14.6314 13.9749 13.975C14.6313 13.3186 15 12.4284 15 11.5001C15 10.8079 14.7947 10.1312 14.4101 9.55564C14.0256 8.98007 13.4789 8.53145 12.8394 8.26655C12.1999 8.00164 11.4961 7.93233 10.8172 8.06737C10.1383 8.20242 9.51461 8.53578 9.02512 9.02526C8.53564 9.51474 8.2023 10.1384 8.06725 10.8173C7.93221 11.4962 8.00151 12.2 8.26642 12.8395C8.53133 13.4791 8.97993 14.0257 9.5555 14.4103ZM10.1111 9.42145C10.5222 9.14675 11.0055 9.00013 11.5 9.00013C12.163 9.00013 12.7989 9.26353 13.2678 9.73237C13.7366 10.2012 14 10.8371 14 11.5001C14 11.9946 13.8534 12.4779 13.5787 12.8891C13.304 13.3002 12.9135 13.6206 12.4567 13.8098C11.9999 13.999 11.4972 14.0486 11.0123 13.9521C10.5273 13.8556 10.0819 13.6175 9.73223 13.2679C9.3826 12.9183 9.1445 12.4728 9.04804 11.9879C8.95157 11.5029 9.00108 11.0002 9.1903 10.5434C9.37952 10.0866 9.69995 9.69616 10.1111 9.42145Z" fill="black"/>
</g>
<defs>
<clipPath id="clip0_1345_101756">
<rect width="16" height="16" fill="white"/>
</clipPath>
</defs>
</svg>
