<svg width="32" height="32" viewBox="0 0 32 32" fill="none" xmlns="http://www.w3.org/2000/svg">
<g clip-path="url(#clip0_1345_101760)">
<path fill-rule="evenodd" clip-rule="evenodd" d="M14 28.0003H8V4.00033H16V10.0003C16 10.5308 16.2107 11.0395 16.5858 11.4145C16.9609 11.7896 17.4696 12.0003 18 12.0003H24V14.0003H26V10.0003C26.0035 9.8689 25.9785 9.73827 25.9268 9.61743C25.875 9.49659 25.7976 9.38841 25.7 9.30033L18.7 2.30033C18.6119 2.20273 18.5037 2.12537 18.3829 2.07358C18.262 2.02179 18.1314 1.9968 18 2.00033H8C7.46957 2.00033 6.96089 2.21104 6.58582 2.58611C6.21074 2.96119 6 3.46989 6 4.00033V28.0003C6 28.5308 6.21074 29.0395 6.58582 29.4145C6.96089 29.7896 7.46957 30.0003 8 30.0003H14V28.0003ZM18 4.40033L23.6 10.0003H18V4.40033ZM26 24.5902L24 22.5902V20.0002H22V23.4102L24.59 26.0002L26 24.5902ZM19.111 28.8205C20.2622 29.5897 21.6155 30.0003 23 30.0003C24.8565 30.0003 26.637 29.2627 27.9498 27.95C29.2625 26.6372 30 24.8568 30 23.0003C30 21.6158 29.5895 20.2624 28.8203 19.1113C28.0511 17.9601 26.9579 17.0629 25.6788 16.5331C24.3997 16.0033 22.9922 15.8647 21.6344 16.1347C20.2765 16.4048 19.0292 17.0716 18.0502 18.0505C17.0713 19.0295 16.4046 20.2768 16.1345 21.6346C15.8644 22.9925 16.003 24.3999 16.5328 25.679C17.0627 26.9581 17.9599 28.0514 19.111 28.8205ZM20.2222 18.8429C21.0444 18.2935 22.0111 18.0003 23 18.0003C24.3261 18.0003 25.5979 18.5271 26.5355 19.4647C27.4732 20.4024 28 21.6742 28 23.0003C28 23.9892 27.7068 24.9559 27.1574 25.7781C26.6079 26.6004 25.8271 27.2412 24.9134 27.6196C23.9998 27.9981 22.9945 28.0971 22.0246 27.9042C21.0546 27.7113 20.1637 27.235 19.4645 26.5358C18.7652 25.8365 18.289 24.9456 18.0961 23.9757C17.9031 23.0058 18.0022 22.0005 18.3806 21.0868C18.759 20.1732 19.3999 19.3923 20.2222 18.8429Z" fill="black"/>
</g>
<defs>
<clipPath id="clip0_1345_101760">
<rect width="32" height="32" fill="white"/>
</clipPath>
</defs>
</svg>
