<svg width="16" height="16" viewBox="0 0 16 16" fill="none" xmlns="http://www.w3.org/2000/svg">
<path d="M3.53788 10.7879H2L4.34327 4H6.19271L8.53266 10.7879H6.99479L5.29451 5.55113H5.24147L3.53788 10.7879ZM3.44176 8.11979H7.07433V9.24005H3.44176V8.11979Z" fill="black"/>
<path d="M11.3797 12.803C10.9223 12.803 10.5301 12.74 10.2031 12.6141C9.87833 12.4904 9.6198 12.3214 9.42753 12.107C9.23533 11.8927 9.11046 11.6518 9.05306 11.3845L10.3589 11.2088C10.3987 11.3104 10.4617 11.4055 10.5478 11.4938C10.634 11.5822 10.7478 11.653 10.8892 11.706C11.0329 11.7612 11.2074 11.7888 11.4129 11.7888C11.72 11.7888 11.973 11.7137 12.1719 11.5634C12.3729 11.4154 12.4735 11.1668 12.4735 10.8177V9.88637H12.4138C12.3519 10.0278 12.2591 10.1614 12.1354 10.2874C12.0117 10.4134 11.8526 10.5161 11.6581 10.5956C11.4637 10.6752 11.2317 10.715 10.9621 10.715C10.5799 10.715 10.2319 10.6266 9.91806 10.4498C9.60653 10.2708 9.35793 9.99795 9.17233 9.63115C8.98893 9.26215 8.89726 8.79593 8.89726 8.23248C8.89726 7.65577 8.99119 7.17409 9.17899 6.78741C9.36679 6.40073 9.61646 6.11127 9.92806 5.91903C10.2418 5.7268 10.5854 5.63068 10.9588 5.63068C11.2439 5.63068 11.4825 5.67929 11.6747 5.77651C11.8669 5.87153 12.0216 5.99085 12.1387 6.13447C12.2581 6.27589 12.3497 6.41509 12.4138 6.55208H12.4669V5.69697H13.8689V10.8376C13.8689 11.2707 13.7628 11.633 13.5507 11.9247C13.3385 12.2164 13.0447 12.4352 12.6691 12.581C12.2956 12.729 11.8659 12.803 11.3797 12.803ZM11.4096 9.65435C11.6371 9.65435 11.8294 9.59801 11.9863 9.48532C12.1453 9.37042 12.2669 9.20691 12.3509 8.99479C12.437 8.78046 12.4801 8.52415 12.4801 8.22585C12.4801 7.92755 12.4381 7.66903 12.3542 7.45029C12.2702 7.22933 12.1487 7.05808 11.9896 6.93655C11.8305 6.81503 11.6371 6.75426 11.4096 6.75426C11.1775 6.75426 10.982 6.81723 10.8229 6.94318C10.6638 7.06692 10.5434 7.23927 10.4617 7.46023C10.3799 7.68119 10.339 7.93639 10.339 8.22585C10.339 8.51973 10.3799 8.77383 10.4617 8.98816C10.5456 9.20029 10.6661 9.3649 10.8229 9.48201C10.982 9.59691 11.1775 9.65435 11.4096 9.65435Z" fill="black"/>
</svg>
