<svg width="32" height="32" viewBox="0 0 32 32" fill="none" xmlns="http://www.w3.org/2000/svg">
<path d="M7.07576 21.5758H4L8.68655 8H12.3854L17.0653 21.5758H13.9896L10.589 11.1023H10.4829L7.07576 21.5758ZM6.88352 16.2396H14.1487V18.4801H6.88352V16.2396Z" fill="black"/>
<path d="M22.7595 25.6061C21.8447 25.6061 21.0603 25.4801 20.4063 25.2282C19.7567 24.9807 19.2396 24.6427 18.8551 24.2141C18.4707 23.7854 18.2209 23.3037 18.1061 22.769L20.7179 22.4177C20.7973 22.6209 20.9233 22.811 21.0956 22.9877C21.268 23.1645 21.4956 23.3059 21.7784 23.4119C22.0657 23.5225 22.4148 23.5777 22.8257 23.5777C23.44 23.5777 23.946 23.4274 24.3437 23.1269C24.7459 22.8309 24.9469 22.3337 24.9469 21.6354V19.7727H24.8276C24.7039 20.0556 24.5183 20.3229 24.2708 20.5749C24.0233 20.8267 23.7052 21.0322 23.3163 21.1913C22.9275 21.3503 22.4633 21.4299 21.9243 21.4299C21.1597 21.4299 20.4637 21.2531 19.8361 20.8997C19.2131 20.5417 18.7159 19.9959 18.3447 19.2623C17.9779 18.5243 17.7945 17.5919 17.7945 16.465C17.7945 15.3115 17.9824 14.3482 18.358 13.5748C18.7336 12.8015 19.2329 12.2225 19.8561 11.8381C20.4836 11.4536 21.1708 11.2614 21.9176 11.2614C22.4877 11.2614 22.9649 11.3586 23.3495 11.553C23.7339 11.7431 24.0432 11.9817 24.2775 12.2689C24.5161 12.5518 24.6995 12.8302 24.8276 13.1042H24.9337V11.3939H27.7377V21.6753C27.7377 22.5414 27.5256 23.2661 27.1013 23.8494C26.6771 24.4327 26.0893 24.8703 25.3381 25.1619C24.5912 25.4581 23.7317 25.6061 22.7595 25.6061ZM22.8192 19.3087C23.2743 19.3087 23.6588 19.196 23.9725 18.9706C24.2907 18.7408 24.5337 18.4138 24.7017 17.9896C24.874 17.5609 24.9603 17.0483 24.9603 16.4517C24.9603 15.8551 24.8763 15.3381 24.7084 14.9006C24.5404 14.4587 24.2973 14.1162 23.9792 13.8731C23.6609 13.6301 23.2743 13.5085 22.8192 13.5085C22.3551 13.5085 21.964 13.6345 21.6459 13.8864C21.3276 14.1338 21.0868 14.4785 20.9233 14.9205C20.7597 15.3624 20.678 15.8728 20.678 16.4517C20.678 17.0395 20.7597 17.5477 20.9233 17.9763C21.0912 18.4006 21.3321 18.7298 21.6459 18.964C21.964 19.1938 22.3551 19.3087 22.8192 19.3087Z" fill="black"/>
</svg>
