<svg width="16" height="16" viewBox="0 0 16 16" fill="none" xmlns="http://www.w3.org/2000/svg">
<path fill-rule="evenodd" clip-rule="evenodd" d="M14 8C14.5523 8 15 8.44772 15 9V14C15 14.5523 14.5523 15 14 15H9C8.44772 15 8 14.5523 8 14V9C8 8.44772 8.44772 8 9 8H14ZM14 13H9V14H14V13ZM14 11H9V12H14V11ZM14 9H9V10H14V9Z" fill="black"/>
<path d="M13 1C13.5523 1 14 1.44772 14 2V7H13V2H2V13H7V14H2C1.44772 14 1 13.5523 1 13V2C1 1.44772 1.44772 1 2 1H13Z" fill="black"/>
<path fill-rule="evenodd" clip-rule="evenodd" d="M5.5 8C6.05228 8 6.5 8.44772 6.5 9V10.5C6.5 11.0523 6.05228 11.5 5.5 11.5H4C3.44772 11.5 3 11.0523 3 10.5V9C3 8.44772 3.44772 8 4 8H5.5ZM5.5 9H4V10.5H5.5V9Z" fill="black"/>
<path fill-rule="evenodd" clip-rule="evenodd" d="M11 3.5C11.5523 3.5 12 3.94772 12 4.5V6C12 6.55228 11.5523 7 11 7H4C3.44772 7 3 6.55228 3 6V4.5C3 3.94772 3.44772 3.5 4 3.5H11ZM11 4.5H4V6H11V4.5Z" fill="black"/>
</svg>
