<svg width="32" height="32" viewBox="0 0 32 32" fill="none" xmlns="http://www.w3.org/2000/svg">
<path fill-rule="evenodd" clip-rule="evenodd" d="M28 16C29.1046 16 30 16.8954 30 18V28C30 29.1046 29.1046 30 28 30H18C16.8954 30 16 29.1046 16 28V18C16 16.8954 16.8954 16 18 16H28ZM28 26H18V28H28V26ZM28 22H18V24H28V22ZM28 18H18V20H28V18Z" fill="black"/>
<path d="M26 2C27.1046 2 28 2.89543 28 4V14H26V4H4V26H14V28H4C2.89543 28 2 27.1046 2 26V4C2 2.89543 2.89543 2 4 2H26Z" fill="black"/>
<path fill-rule="evenodd" clip-rule="evenodd" d="M11 16C12.1046 16 13 16.8954 13 18V21C13 22.1046 12.1046 23 11 23H8C6.89543 23 6 22.1046 6 21V18C6 16.8954 6.89543 16 8 16H11ZM11 18H8V21H11V18Z" fill="black"/>
<path fill-rule="evenodd" clip-rule="evenodd" d="M22 7C23.1046 7 24 7.89543 24 9V12C24 13.1046 23.1046 14 22 14H8C6.89543 14 6 13.1046 6 12V9C6 7.89543 6.89543 7 8 7H22ZM22 9H8V12H22V9Z" fill="black"/>
</svg>
