<?xml version="1.0" encoding="utf-8"?>
<!-- Generator: Adobe Illustrator 25.0.0, SVG Export Plug-In . SVG Version: 6.00 Build 0)  -->
<svg version="1.1" id="Layer_1" xmlns="http://www.w3.org/2000/svg" xmlns:xlink="http://www.w3.org/1999/xlink" x="0px" y="0px"
	 viewBox="0 0 16 16" style="enable-background:new 0 0 16 16;" xml:space="preserve">
<style type="text/css">
	.st0{fill:none;}
	.st1{fill:#3D5466;}
</style>
<g>
	<path class="st0" d="M2.5,5.5h11V3.7V2.5h-11V5.5z M9.5,3.5h1.4h1.6v1h-3V3.5z M3.5,3.5h1V4v0.5h-1V3.5z"/>
	<polygon class="st1" points="12,9 11,9 11,11 9,11 9,12 11,12 11,14 12,14 12,12 14,12 14,11 12,11 	"/>
	<polygon class="st1" points="4.5,4 4.5,3.5 3.5,3.5 3.5,4.5 4.5,4.5 	"/>
	<polygon class="st1" points="12.5,3.5 10.9,3.5 9.5,3.5 9.5,4.5 12.5,4.5 	"/>
	<path class="st1" d="M13.5,1.5h-11c-0.5,0-1,0.5-1,1v11c0,0.6,0.5,1,1,1h5v-1h-5v-1h5v-1h-5v-5h11v1h1v-5C14.5,2,14.1,1.5,13.5,1.5
		z M13.5,3.7v1.8h-11v-3h11V3.7z"/>
</g>
</svg>
