<?xml version="1.0" encoding="utf-8"?>
<!-- Generator: Adobe Illustrator 25.0.0, SVG Export Plug-In . SVG Version: 6.00 Build 0)  -->
<svg version="1.1" id="Layer_1" xmlns="http://www.w3.org/2000/svg" xmlns:xlink="http://www.w3.org/1999/xlink" x="0px" y="0px"
	 viewBox="0 0 24 24" style="enable-background:new 0 0 24 24;" xml:space="preserve">
<style type="text/css">
	.st0{fill:none;}
	.st1{fill:#3D5466;}
</style>
<g>
	<path class="st0" d="M3.8,8.2h16.5V5.6V3.8H3.8V8.2z M14.2,5.2h2.1h2.4v1.5h-4.5V5.2z M5.2,5.2h1.5V6v0.8H5.2V5.2z"/>
	<polygon class="st1" points="18,13.5 16.5,13.5 16.5,16.5 13.5,16.5 13.5,18 16.5,18 16.5,21 18,21 18,18 21,18 21,16.5 18,16.5 	
		"/>
	<polygon class="st1" points="6.8,6 6.8,5.2 5.2,5.2 5.2,6.8 6.8,6.8 	"/>
	<polygon class="st1" points="18.8,5.2 16.3,5.2 14.2,5.2 14.2,6.8 18.8,6.8 	"/>
	<path class="st1" d="M20.2,2.2H3.8c-0.8,0-1.5,0.7-1.5,1.5v16.5c0,0.8,0.7,1.5,1.5,1.5h7.5v-1.5H3.8v-1.5h7.5v-1.5H3.8V9.8h16.5
		v1.5h1.5V3.8C21.8,2.9,21.1,2.2,20.2,2.2z M20.2,5.6v2.7H3.8V3.8h16.5V5.6z"/>
</g>
</svg>
