<?xml version="1.0" encoding="utf-8"?>
<!-- Generator: Adobe Illustrator 25.0.0, SVG Export Plug-In . SVG Version: 6.00 Build 0)  -->
<svg version="1.1" id="Layer_1" xmlns="http://www.w3.org/2000/svg" xmlns:xlink="http://www.w3.org/1999/xlink" x="0px" y="0px"
	 viewBox="0 0 32 32" style="enable-background:new 0 0 32 32;" xml:space="preserve">
<style type="text/css">
	.st0{fill:none;}
	.st1{fill:#3D5466;}
</style>
<g>
	<path class="st0" d="M5,11h22V7.4V5H5V11z M19,7h2.8H25v2h-6V7z M7,7h2v1v1H7V7z"/>
	<polygon class="st1" points="24,18 22,18 22,22 18,22 18,24 22,24 22,28 24,28 24,24 28,24 28,22 24,22 	"/>
	<polygon class="st1" points="9,8 9,7 7,7 7,9 9,9 	"/>
	<polygon class="st1" points="25,7 21.8,7 19,7 19,9 25,9 	"/>
	<path class="st1" d="M27,3H5C3.9,3,3,3.9,3,5v22c0,1.1,0.9,2,2,2h10v-2H5v-2h10v-2H5V13h22v2h2V5C29,3.9,28.1,3,27,3z M27,7.4V11H5
		V5h22V7.4z"/>
</g>
</svg>
