<svg width="16" height="16" viewBox="0 0 16 16" fill="none" xmlns="http://www.w3.org/2000/svg">
<path d="M7 4H4V7H5V5H7V4Z" fill="black"/>
<path d="M12 4V7H11V5H9V4L12 4Z" fill="black"/>
<path d="M9 12H12V9H11V11H9V12Z" fill="black"/>
<path d="M4 12L4 9H5V11H7V12H4Z" fill="black"/>
<path fill-rule="evenodd" clip-rule="evenodd" d="M13 14H3C2.73488 13.9997 2.4807 13.8942 2.29323 13.7068C2.10576 13.5193 2.0003 13.2651 2 13V3C2.0003 2.73488 2.10576 2.4807 2.29323 2.29323C2.4807 2.10576 2.73488 2.0003 3 2H13C13.2651 2.0003 13.5193 2.10576 13.7068 2.29323C13.8942 2.4807 13.9997 2.73488 14 3V13C13.9997 13.2651 13.8942 13.5193 13.7068 13.7068C13.5193 13.8942 13.2651 13.9997 13 14ZM3 3V13H13.0006L13 3H3Z" fill="black"/>
</svg>
