<svg width="32" height="32" viewBox="0 0 32 32" fill="none" xmlns="http://www.w3.org/2000/svg">
<path d="M14 8H8V14H10V10H14V8Z" fill="black"/>
<path d="M24 8V14H22V10H18V8L24 8Z" fill="black"/>
<path d="M18 24H24V18H22V22H18V24Z" fill="black"/>
<path d="M8 24L8 18H10V22H14V24H8Z" fill="black"/>
<path fill-rule="evenodd" clip-rule="evenodd" d="M26 28H6C5.46975 27.9994 4.9614 27.7885 4.58646 27.4135C4.21152 27.0386 4.00061 26.5302 4 26V6C4.00061 5.46975 4.21152 4.9614 4.58646 4.58646C4.9614 4.21152 5.46975 4.00061 6 4H26C26.5302 4.00061 27.0386 4.21152 27.4135 4.58646C27.7885 4.9614 27.9994 5.46975 28 6V26C27.9994 26.5302 27.7885 27.0386 27.4135 27.4135C27.0386 27.7885 26.5302 27.9994 26 28ZM6 6V26H26.0012L26 6H6Z" fill="black"/>
</svg>
