<svg width="16" height="16" viewBox="0 0 16 16" fill="none" xmlns="http://www.w3.org/2000/svg">
<path d="M14 11H15V12H14V11Z" fill="black"/>
<path d="M12 11H13V12H12V11Z" fill="black"/>
<path d="M10 11H11V12H10V11Z" fill="black"/>
<path d="M8 11H9V12H8V11Z" fill="black"/>
<path d="M2 11V12H1V11H2Z" fill="black"/>
<path d="M1 13C1 13.2359 1.14043 14 2 14C2 14 2 13.6667 2 13C1.33333 13 1 13 1 13Z" fill="black"/>
<path d="M4 13V14H3V13H4Z" fill="black"/>
<path d="M5 14C5.23593 14 6 13.8596 6 13C6 13 5.66667 13 5 13C5 13.6667 5 14 5 14Z" fill="black"/>
<path d="M6 11V12H5V11H6Z" fill="black"/>
<path d="M5 9C5.23593 9 6 9.14043 6 10C6 10 5.66667 10 5 10C5 9.33333 5 9 5 9Z" fill="black"/>
<path d="M4 9V10H3V9H4Z" fill="black"/>
<path d="M1 10C1 9.76407 1.14043 9 2 9C2 9 2 9.33333 2 10C1.33333 10 1 10 1 10Z" fill="black"/>
<path d="M15 4V5H8V4H15Z" fill="black"/>
<path fill-rule="evenodd" clip-rule="evenodd" d="M5 2C5.55228 2 6 2.44772 6 3V6C6 6.55228 5.55228 7 5 7H2C1.44772 7 1 6.55228 1 6V3C1 2.44772 1.44772 2 2 2H5ZM5 3H2V6H5V3Z" fill="black"/>
</svg>
