<svg width="24" height="24" viewBox="0 0 24 24" fill="none" xmlns="http://www.w3.org/2000/svg">
<path d="M21 16.5H22.5V18H21V16.5Z" fill="black"/>
<path d="M18 16.5H19.5V18H18V16.5Z" fill="black"/>
<path d="M15 16.5H16.5V18H15V16.5Z" fill="black"/>
<path d="M12 16.5H13.5V18H12V16.5Z" fill="black"/>
<path d="M3 16.5V18H1.5V16.5H3Z" fill="black"/>
<path d="M1.5 19.5C1.5 19.8539 1.71064 21 3 21C3 21 3 20.5 3 19.5C2 19.5 1.5 19.5 1.5 19.5Z" fill="black"/>
<path d="M6 19.5V21H4.5V19.5H6Z" fill="black"/>
<path d="M7.5 21C7.8539 21 9 20.7894 9 19.5C9 19.5 8.5 19.5 7.5 19.5C7.5 20.5 7.5 21 7.5 21Z" fill="black"/>
<path d="M9 16.5V18H7.5V16.5H9Z" fill="black"/>
<path d="M7.5 13.5C7.8539 13.5 9 13.7106 9 15C9 15 8.5 15 7.5 15C7.5 14 7.5 13.5 7.5 13.5Z" fill="black"/>
<path d="M6 13.5V15H4.5V13.5H6Z" fill="black"/>
<path d="M1.5 15C1.5 14.6461 1.71064 13.5 3 13.5C3 13.5 3 14 3 15C2 15 1.5 15 1.5 15Z" fill="black"/>
<path d="M22.5 6V7.5H12V6H22.5Z" fill="black"/>
<path fill-rule="evenodd" clip-rule="evenodd" d="M7.5 3C8.32843 3 9 3.67157 9 4.5V9C9 9.82843 8.32843 10.5 7.5 10.5H3C2.17157 10.5 1.5 9.82843 1.5 9V4.5C1.5 3.67157 2.17157 3 3 3H7.5ZM7.5 4.5H3V9H7.5V4.5Z" fill="black"/>
</svg>
