<svg width="32" height="32" viewBox="0 0 32 32" fill="none" xmlns="http://www.w3.org/2000/svg">
<path d="M28 22H30V24H28V22Z" fill="black"/>
<path d="M24 22H26V24H24V22Z" fill="black"/>
<path d="M20 22H22V24H20V22Z" fill="black"/>
<path d="M16 22H18V24H16V22Z" fill="black"/>
<path d="M4 22V24H2V22H4Z" fill="black"/>
<path d="M2 26C2 26.4719 2.28086 28 4 28C4 28 4 27.3333 4 26C2.66667 26 2 26 2 26Z" fill="black"/>
<path d="M8 26V28H6V26H8Z" fill="black"/>
<path d="M10 28C10.4719 28 12 27.7191 12 26C12 26 11.3333 26 10 26C10 27.3333 10 28 10 28Z" fill="black"/>
<path d="M12 22V24H10V22H12Z" fill="black"/>
<path d="M10 18C10.4719 18 12 18.2809 12 20C12 20 11.3333 20 10 20C10 18.6667 10 18 10 18Z" fill="black"/>
<path d="M8 18V20H6V18H8Z" fill="black"/>
<path d="M2 20C2 19.5281 2.28086 18 4 18C4 18 4 18.6667 4 20C2.66667 20 2 20 2 20Z" fill="black"/>
<path d="M30 8V10H16V8H30Z" fill="black"/>
<path fill-rule="evenodd" clip-rule="evenodd" d="M10 4C11.1046 4 12 4.89543 12 6V12C12 13.1046 11.1046 14 10 14H4C2.89543 14 2 13.1046 2 12V6C2 4.89543 2.89543 4 4 4H10ZM10 6H4V12H10V6Z" fill="black"/>
</svg>
