<?xml version="1.0" encoding="utf-8"?>
<!-- Generator: Adobe Illustrator 25.0.0, SVG Export Plug-In . SVG Version: 6.00 Build 0)  -->
<svg version="1.1" id="Layer_1" xmlns="http://www.w3.org/2000/svg" xmlns:xlink="http://www.w3.org/1999/xlink" x="0px" y="0px"
	 viewBox="0 0 16 16" style="enable-background:new 0 0 16 16;" xml:space="preserve">
<style type="text/css">
	.st0{fill:none;}
	.st1{fill:#3D5466;}
</style>
<g>
	<polygon class="st0" points="5,5 5,3.9 5,2.2 2.2,5 	"/>
	<polygon class="st1" points="12,10.1 12,9 11,9 11,11 9,11 9,12 11,12 11,14 12,14 12,12 14,12 14,11 12,11 	"/>
	<path class="st1" d="M13,1H5C4.9,1,4.7,1.1,4.7,1.2L1.2,4.7C1.1,4.7,1,4.9,1,5v8c0,0.6,0.4,1,1,1h5v-1H2V6h3c0.6,0,1-0.4,1-1V2h7v5
		h1V2C14,1.4,13.6,1,13,1z M5,3.9V5H2.2L5,2.2V3.9z"/>
</g>
</svg>
