<?xml version="1.0" encoding="utf-8"?>
<!-- Generator: Adobe Illustrator 25.0.0, SVG Export Plug-In . SVG Version: 6.00 Build 0)  -->
<svg version="1.1" id="Layer_1" xmlns="http://www.w3.org/2000/svg" xmlns:xlink="http://www.w3.org/1999/xlink" x="0px" y="0px"
	 viewBox="0 0 24 24" style="enable-background:new 0 0 24 24;" xml:space="preserve">
<style type="text/css">
	.st0{fill:none;}
	.st1{fill:#3D5466;}
</style>
<g>
	<polygon class="st0" points="7.5,7.5 7.5,5.9 7.5,3.3 3.3,7.5 	"/>
	<polygon class="st1" points="18,15.2 18,13.5 16.5,13.5 16.5,16.5 13.5,16.5 13.5,18 16.5,18 16.5,21 18,21 18,18 21,18 21,16.5 
		18,16.5 	"/>
	<path class="st1" d="M19.5,1.5h-12C7.3,1.5,7.1,1.6,7,1.7L1.7,7C1.6,7.1,1.5,7.3,1.5,7.5v12C1.5,20.3,2.2,21,3,21h7.5v-1.5H3V9h4.5
		C8.3,9,9,8.3,9,7.5V3h10.5v7.5H21V3C21,2.2,20.3,1.5,19.5,1.5z M7.5,5.9v1.6H3.3l4.2-4.2V5.9z"/>
</g>
</svg>
