<?xml version="1.0" encoding="utf-8"?>
<!-- Generator: Adobe Illustrator 25.0.0, SVG Export Plug-In . SVG Version: 6.00 Build 0)  -->
<svg version="1.1" id="Layer_1" xmlns="http://www.w3.org/2000/svg" xmlns:xlink="http://www.w3.org/1999/xlink" x="0px" y="0px"
	 viewBox="0 0 32 32" style="enable-background:new 0 0 32 32;" xml:space="preserve">
<style type="text/css">
	.st0{fill:none;}
	.st1{fill:#3D5466;}
</style>
<g>
	<polygon class="st0" points="10,10 10,7.9 10,4.4 4.4,10 	"/>
	<polygon class="st1" points="24,20.2 24,18 22,18 22,22 18,22 18,24 22,24 22,28 24,28 24,24 28,24 28,22 24,22 	"/>
	<path class="st1" d="M26,2H10C9.7,2,9.5,2.1,9.3,2.3l-7,7C2.1,9.5,2,9.7,2,10v16c0,1.1,0.9,2,2,2h10v-2H4V12h6c1.1,0,2-0.9,2-2V4
		h14v10h2V4C28,2.9,27.1,2,26,2z M10,7.9V10H4.4L10,4.4V7.9z"/>
</g>
</svg>
