<svg width="16" height="16" viewBox="0 0 16 16" fill="none" xmlns="http://www.w3.org/2000/svg">
<path fill-rule="evenodd" clip-rule="evenodd" d="M12.498 2.99973C12.301 2.99973 12.117 3.04673 11.942 3.11273C11.771 2.47473 11.2 2.00173 10.517 2.00173C10.319 2.00173 10.132 2.04273 9.95901 2.11173C9.78701 1.47173 9.20701 0.995728 8.51401 0.995728C7.82001 0.995728 7.24001 1.47173 7.06801 2.11173C6.89601 2.04273 6.70801 2.00173 6.51101 2.00173C5.68301 2.00173 5.00901 2.67573 5.00901 3.50373L5.00801 9.12173L4.08801 8.56973C3.39301 8.15373 2.49701 8.35673 2.04801 9.02973C1.64901 9.62973 1.72901 10.4337 2.23701 10.9417L5.39401 14.0997C5.96601 14.6717 6.75801 14.9997 7.56501 14.9997H10.504C12.432 14.9997 14 13.4317 14 11.5037V4.45773C14 3.64073 13.34 2.99973 12.498 2.99973ZM13 11.5037C13 12.8797 11.88 13.9997 10.504 13.9997H7.56501C7.02101 13.9997 6.48601 13.7777 6.10101 13.3927L2.94401 10.2337C2.77101 10.0617 2.74501 9.78773 2.88001 9.58373C3.03301 9.35573 3.33801 9.28473 3.57401 9.42773L5.99201 10.8777L6.00901 3.50373C6.00901 3.22773 6.23401 3.00173 6.51101 3.00173C6.78701 3.00173 7.01201 3.22773 7.01201 3.50373V8.99973H8.01201V2.49773C8.01201 2.22173 8.23701 1.99573 8.51401 1.99573C8.79001 1.99573 9.01601 2.22173 9.01601 2.49773V8.99973H10.016V3.50373C10.016 3.22773 10.24 3.00173 10.517 3.00173C10.788 3.00173 11 3.22273 11 3.50373V8.99973H12V4.28273L12.029 4.28573C12.182 3.91073 13 3.89773 13 4.45773V11.5037Z" fill="black"/>
</svg>
