<svg width="32" height="32" viewBox="0 0 32 32" fill="none" xmlns="http://www.w3.org/2000/svg">
<path fill-rule="evenodd" clip-rule="evenodd" d="M24.996 5.99946C24.602 5.99946 24.234 6.09346 23.884 6.22546C23.542 4.94946 22.4 4.00345 21.034 4.00345C20.638 4.00345 20.264 4.08546 19.918 4.22346C19.574 2.94346 18.414 1.99146 17.028 1.99146C15.64 1.99146 14.48 2.94346 14.136 4.22346C13.792 4.08546 13.416 4.00345 13.022 4.00345C11.366 4.00345 10.018 5.35145 10.018 7.00745L10.016 18.2435L8.17601 17.1395C6.78601 16.3075 4.99401 16.7135 4.09601 18.0595C3.29801 19.2595 3.45801 20.8675 4.47401 21.8835L10.788 28.1995C11.932 29.3435 13.516 29.9995 15.13 29.9995H21.008C24.864 29.9995 28 26.8635 28 23.0075V8.91545C28 7.28146 26.68 5.99946 24.996 5.99946ZM26 23.0075C26 25.7595 23.76 27.9995 21.008 27.9995H15.13C14.042 27.9995 12.972 27.5555 12.202 26.7855L5.88801 20.4675C5.54201 20.1235 5.49001 19.5755 5.76001 19.1675C6.06601 18.7115 6.67601 18.5695 7.14801 18.8555L11.984 21.7555L12.018 7.00745C12.018 6.45545 12.468 6.00346 13.022 6.00346C13.574 6.00346 14.024 6.45545 14.024 7.00745V17.9995H16.024V4.99546C16.024 4.44345 16.474 3.99146 17.028 3.99146C17.58 3.99146 18.032 4.44345 18.032 4.99546V17.9995H20.032V7.00745C20.032 6.45545 20.48 6.00346 21.034 6.00346C21.576 6.00346 22 6.44546 22 7.00745V17.9995H24V8.56546L24.058 8.57146C24.364 7.82146 26 7.79545 26 8.91545V23.0075Z" fill="black"/>
</svg>
