<svg width="32" height="32" viewBox="0 0 32 32" fill="none" xmlns="http://www.w3.org/2000/svg">
<path fill-rule="evenodd" clip-rule="evenodd" d="M5 3H27C27.5304 3 28.0392 3.21072 28.4142 3.58578C28.7892 3.96086 29 4.46956 29 5V27C29 27.5304 28.7892 28.0392 28.4142 28.4142C28.0392 28.7892 27.5304 29 27 29H5C4.46956 29 3.96086 28.7892 3.58578 28.4142C3.21072 28.0392 3 27.5304 3 27V5C3 4.46956 3.21072 3.96086 3.58578 3.58578C3.96086 3.21072 4.46956 3 5 3ZM27 5H5V9H27V5ZM5 11V27H27V11H5ZM19 14H8V16H19V14ZM21 19H8V21H21V19Z" fill="black"/>
</svg>
