<svg width="32" height="32" viewBox="0 0 32 32" fill="none" xmlns="http://www.w3.org/2000/svg">
<path d="M18.7061 27.585C17.665 27.5857 16.647 27.2776 15.7811 26.6995C14.9152 26.1215 14.2403 25.2996 13.8417 24.3378C13.4431 23.3759 13.3389 22.3175 13.5421 21.2964C13.7453 20.2753 14.2469 19.3375 14.9834 18.6016L16.3984 20.0156C15.7863 20.6276 15.4423 21.4578 15.4422 22.3234C15.4421 23.189 15.7859 24.0192 16.3979 24.6313C17.01 25.2435 17.8401 25.5874 18.7057 25.5875C19.5714 25.5876 20.4016 25.2438 21.0137 24.6318L27.0437 18.6018C27.6558 17.9897 27.9996 17.1594 27.9996 16.2938C27.9996 15.4281 27.6556 14.5979 27.0435 13.9858C26.4314 13.3737 25.6011 13.0299 24.7355 13.0299C23.8698 13.0299 23.0396 13.3739 22.4275 13.986L21.0135 12.572C22.0006 11.5848 23.3394 11.0302 24.7355 11.0302C25.4267 11.0301 26.1112 11.1663 26.7498 11.4308C27.3885 11.6953 27.9688 12.083 28.4576 12.5717C28.9463 13.0605 29.3341 13.6408 29.5986 14.2794C29.8632 14.918 29.9994 15.6025 29.9994 16.2937C29.9994 16.985 29.8633 17.6694 29.5988 18.3081C29.3343 18.9467 28.9466 19.527 28.4578 20.0158L22.4278 26.0458C21.9394 26.5349 21.3592 26.9226 20.7205 27.1868C20.0818 27.4509 19.3973 27.5862 18.7061 27.585Z" fill="black"/>
<path d="M10.2642 29.9971C9.22321 29.9975 8.20548 29.6892 7.33977 29.1111C6.47406 28.533 5.79928 27.7111 5.40081 26.7494C5.00233 25.7877 4.89807 24.7294 5.10121 23.7084C5.30434 22.6874 5.80575 21.7496 6.542 21.0137L12.572 14.9837C13.0601 14.4919 13.6405 14.1012 14.2799 13.8342C14.9193 13.5672 15.6052 13.4291 16.2981 13.4278C16.991 13.4264 17.6774 13.5619 18.3178 13.8265C18.9582 14.0911 19.5401 14.4795 20.0301 14.9694C20.52 15.4594 20.9084 16.0413 21.173 16.6817C21.4376 17.3221 21.5731 18.0085 21.5717 18.7014C21.5704 19.3943 21.4323 20.0802 21.1653 20.7196C20.8983 21.359 20.5076 21.9394 20.0158 22.4275L18.6018 21.0135C18.9072 20.7109 19.1499 20.351 19.3158 19.9544C19.4817 19.5578 19.5677 19.1323 19.5687 18.7024C19.5697 18.2725 19.4858 17.8466 19.3217 17.4492C19.1577 17.0518 18.9167 16.6908 18.6127 16.3868C18.3087 16.0828 17.9477 15.8418 17.5503 15.6778C17.1529 15.5137 16.727 15.4298 16.2971 15.4308C15.8672 15.4318 15.4417 15.5178 15.0451 15.6837C14.6485 15.8496 14.2886 16.0923 13.986 16.3977L7.956 22.4277C7.34822 23.0407 7.00801 23.8695 7.00983 24.7327C7.01164 25.5959 7.35534 26.4233 7.9657 27.0337C8.57606 27.6441 9.40337 27.9879 10.2666 27.9898C11.1298 27.9917 11.9586 27.6516 12.5717 27.0439L13.9857 28.458C13.4974 28.9471 12.9172 29.3348 12.2785 29.5989C11.6399 29.8631 10.9553 29.9984 10.2642 29.9971Z" fill="black"/>
<path d="M10 10H2V12H10V10Z" fill="black"/>
<path d="M14 6H2V8H14V6Z" fill="black"/>
<path d="M14 2H2V4H14V2Z" fill="black"/>
</svg>
