<?xml version="1.0" encoding="UTF-8"?>
<svg width="16px" height="16px" viewBox="0 0 16 16" version="1.1" xmlns="http://www.w3.org/2000/svg" xmlns:xlink="http://www.w3.org/1999/xlink">
    <title>icon/digital experience/content item/16</title>
    <g id="icon/digital-experience/content-item/16" stroke="none" stroke-width="1" fill="none" fill-rule="evenodd">
        <path d="M13.5,1.5 C14.0522847,1.5 14.5,1.94771525 14.5,2.5 L14.5,13.5 C14.5,14.0522847 14.0522847,14.5 13.5,14.5 L2.5,14.5 C1.94771525,14.5 1.5,14.0522847 1.5,13.5 L1.5,2.5 C1.5,1.94771525 1.94771525,1.5 2.5,1.5 L13.5,1.5 Z M13.5,2.5 L2.5,2.5 L2.5,13.5 L13.5,13.5 L13.5,2.5 Z M12.5,11 L12.5,12 L8,12 L8,11 L12.5,11 Z M6,8.5 C6.55228475,8.5 7,8.94771525 7,9.5 L7,11 C7,11.5522847 6.55228475,12 6,12 L4.5,12 C3.94771525,12 3.5,11.5522847 3.5,11 L3.5,9.5 C3.5,8.94771525 3.94771525,8.5 4.5,8.5 L6,8.5 Z M6,9.5 L4.5,9.5 L4.5,11 L6,11 L6,9.5 Z M12.5,8.5 L12.5,9.5 L8,9.5 L8,8.5 L12.5,8.5 Z M11.5,4 C12.0522847,4 12.5,4.44771525 12.5,5 L12.5,6.5 C12.5,7.05228475 12.0522847,7.5 11.5,7.5 L4.5,7.5 C3.94771525,7.5 3.5,7.05228475 3.5,6.5 L3.5,5 C3.5,4.44771525 3.94771525,4 4.5,4 L11.5,4 Z M11.5,5 L4.5,5 L4.5,6.5 L11.5,6.5 L11.5,5 Z" id="icon-color" fill="#3D5466"></path>
    </g>
</svg>