<?xml version="1.0" encoding="UTF-8"?>
<svg width="32px" height="32px" viewBox="0 0 32 32" version="1.1" xmlns="http://www.w3.org/2000/svg" xmlns:xlink="http://www.w3.org/1999/xlink">
    <title>icon/digital experience/content item/32</title>
    <g id="icon/digital-experience/content-item/32" stroke="none" stroke-width="1" fill="none" fill-rule="evenodd">
        <path d="M27,3 C28.1045695,3 29,3.8954305 29,5 L29,27 C29,28.1045695 28.1045695,29 27,29 L5,29 C3.8954305,29 3,28.1045695 3,27 L3,5 C3,3.8954305 3.8954305,3 5,3 L27,3 Z M27,5 L5,5 L5,27 L27,27 L27,5 Z M25,22 L25,24 L16,24 L16,22 L25,22 Z M12,17 C13.1045695,17 14,17.8954305 14,19 L14,22 C14,23.1045695 13.1045695,24 12,24 L9,24 C7.8954305,24 7,23.1045695 7,22 L7,19 C7,17.8954305 7.8954305,17 9,17 L12,17 Z M12,19 L9,19 L9,22 L12,22 L12,19 Z M25,17 L25,19 L16,19 L16,17 L25,17 Z M23,8 C24.1045695,8 25,8.8954305 25,10 L25,13 C25,14.1045695 24.1045695,15 23,15 L9,15 C7.8954305,15 7,14.1045695 7,13 L7,10 C7,8.8954305 7.8954305,8 9,8 L23,8 Z M23,10 L9,10 L9,13 L23,13 L23,10 Z" id="icon-color" fill="#3D5466"></path>
    </g>
</svg>