<svg width="16" height="16" viewBox="0 0 16 16" fill="none" xmlns="http://www.w3.org/2000/svg">
<path d="M2.5 1.5H13.5C13.7651 1.50036 14.0193 1.60583 14.2067 1.79329C14.3942 1.98075 14.4996 2.23489 14.5 2.5V13.5C14.4996 13.7651 14.3942 14.0193 14.2067 14.2067C14.0193 14.3942 13.7651 14.4996 13.5 14.5H8V13.5H13.5V2.5H2.5V8H1.5V2.5C1.50036 2.23489 1.60583 1.98075 1.79329 1.79329C1.98075 1.60583 2.23489 1.50036 2.5 1.5Z" fill="black"/>
<path d="M12.5 11V12H8V11H12.5Z" fill="black"/>
<path d="M12.5 8.5V9.5H8V8.5H12.5Z" fill="black"/>
<path fill-rule="evenodd" clip-rule="evenodd" d="M11.5 4C12.0523 4 12.5 4.44772 12.5 5V6C12.5 6.55228 12.0523 7 11.5 7H4.5C3.94772 7 3.5 6.55228 3.5 6V5C3.5 4.44772 3.94772 4 4.5 4H11.5ZM11.5 5H4.5V6H11.5V5Z" fill="black"/>
<path d="M2 10V11H4.293L1 14.293L1.707 15L5 11.707V14H6V10H2Z" fill="black"/>
</svg>
