<svg width="32" height="32" viewBox="0 0 32 32" fill="none" xmlns="http://www.w3.org/2000/svg">
<path d="M5 3H27C27.5302 3.00071 28.0385 3.21166 28.4134 3.58658C28.7883 3.96149 28.9993 4.46979 29 5V27C28.9993 27.5302 28.7883 28.0385 28.4134 28.4134C28.0385 28.7883 27.5302 28.9993 27 29H16V27H27V5H5V16H3V5C3.00071 4.46979 3.21166 3.96149 3.58658 3.58658C3.96149 3.21166 4.46979 3.00071 5 3Z" fill="black"/>
<path d="M25 22V24H16V22H25Z" fill="black"/>
<path d="M25 17V19H16V17H25Z" fill="black"/>
<path fill-rule="evenodd" clip-rule="evenodd" d="M23 8C24.1046 8 25 8.89543 25 10V12C25 13.1046 24.1046 14 23 14H9C7.89543 14 7 13.1046 7 12V10C7 8.89543 7.89543 8 9 8H23ZM23 10H9V12H23V10Z" fill="black"/>
<path d="M4 20V22H8.586L2 28.586L3.414 30L10 23.414V28H12V20H4Z" fill="black"/>
</svg>
