<svg width="16" height="16" viewBox="0 0 16 16" fill="none" xmlns="http://www.w3.org/2000/svg">
<path fill-rule="evenodd" clip-rule="evenodd" d="M5.08374 4.25041L5.60745 4.77411L7.47634 6.643L8.00004 7.16671L8.52374 6.643L10.3926 4.77411L10.9163 4.25041L10.3926 3.72597L8.52374 1.85708L8.00004 1.33337L7.47634 1.85708L5.60745 3.72597L5.08374 4.25041ZM5.08374 11.7497L5.60745 12.2741L7.47634 14.143L8.00004 14.6667L8.52374 14.143L10.3926 12.2741L10.9163 11.7504L10.3926 11.226L8.52374 9.35708L8.00004 8.83337L7.47634 9.35708L5.60745 11.226L5.08374 11.7497ZM1.85708 8.52374L1.33337 8.00004L1.85708 7.47634L3.72597 5.60745L4.25041 5.08374L4.77411 5.60745L6.643 7.47634L7.16671 8.00004L6.643 8.52374L4.77411 10.3926L4.25041 10.9163L3.72597 10.3926L1.85708 8.52374ZM8.83337 8.00004L9.35708 8.52374L11.226 10.3926L11.7497 10.9163L12.2741 10.3926L14.143 8.52374L14.6667 8.00004L14.143 7.47634L12.2741 5.60745L11.7504 5.08374L11.226 5.60745L9.35708 7.47634L8.83337 8.00004Z" fill="black"/>
</svg>
