<svg width="32" height="32" viewBox="0 0 32 32" fill="none" xmlns="http://www.w3.org/2000/svg">
<path fill-rule="evenodd" clip-rule="evenodd" d="M10.1675 8.5007L11.2149 9.54811L14.9527 13.2859L16.0001 14.3333L17.0475 13.2859L20.7853 9.54811L21.8327 8.5007L20.7853 7.45181L17.0475 3.71403L16.0001 2.66663L14.9527 3.71403L11.2149 7.45181L10.1675 8.5007ZM10.1675 23.4992L11.2149 24.5481L14.9527 28.2859L16.0001 29.3333L17.0475 28.2859L20.7853 24.5481L21.8327 23.5007L20.7853 22.4518L17.0475 18.714L16.0001 17.6666L14.9527 18.714L11.2149 22.4518L10.1675 23.4992ZM3.71416 17.0474L2.66675 16L3.71416 14.9526L7.45193 11.2148L8.50082 10.1674L9.54823 11.2148L13.286 14.9526L14.3334 16L13.286 17.0474L9.54823 20.7851L8.50082 21.8326L7.45193 20.7851L3.71416 17.0474ZM17.6667 16L18.7142 17.0474L22.4519 20.7851L23.4993 21.8326L24.5482 20.7851L28.286 17.0474L29.3334 16L28.286 14.9526L24.5482 11.2148L23.5008 10.1674L22.4519 11.2148L18.7142 14.9526L17.6667 16Z" fill="black"/>
</svg>
