<svg width="16" height="16" viewBox="0 0 16 16" fill="none" xmlns="http://www.w3.org/2000/svg">
<path fill-rule="evenodd" clip-rule="evenodd" d="M5.5 8.5C6.05228 8.5 6.5 8.94772 6.5 9.5V10.5C6.5 11.0523 6.05228 11.5 5.5 11.5H4.5C3.94772 11.5 3.5 11.0523 3.5 10.5V9.5C3.5 8.94772 3.94772 8.5 4.5 8.5H5.5ZM5.5 9.5H4.5V10.5H5.5V9.5Z" fill="black"/>
<path d="M12.5 9.5V10.5H7.5V9.5H12.5Z" fill="black"/>
<path fill-rule="evenodd" clip-rule="evenodd" d="M5.5 4.5C6.05228 4.5 6.5 4.94772 6.5 5.5V6.5C6.5 7.05228 6.05228 7.5 5.5 7.5H4.5C3.94772 7.5 3.5 7.05228 3.5 6.5V5.5C3.5 4.94772 3.94772 4.5 4.5 4.5H5.5ZM5.5 5.5H4.5V6.5H5.5V5.5Z" fill="black"/>
<path d="M12.5 5.5V6.5H7.5V5.5H12.5Z" fill="black"/>
<path fill-rule="evenodd" clip-rule="evenodd" d="M13.5 1.5C14.0523 1.5 14.5 1.94772 14.5 2.5V13.5C14.5 14.0523 14.0523 14.5 13.5 14.5H2.5C1.94772 14.5 1.5 14.0523 1.5 13.5V2.5C1.5 1.94772 1.94772 1.5 2.5 1.5H13.5ZM13.5 2.5H2.5V13.5H13.5V2.5Z" fill="black"/>
</svg>
