<?xml version="1.0" encoding="UTF-8"?>
<svg width="24px" height="24px" viewBox="0 0 24 24" version="1.1" xmlns="http://www.w3.org/2000/svg" xmlns:xlink="http://www.w3.org/1999/xlink">
    <title>icon/digital experience/elements/basic/list/24</title>
    <g id="icon/digital-experience/elements/basic/list/24" stroke="none" stroke-width="1" fill="none" fill-rule="evenodd">
        <path d="M20.25,2.25 C21.0784271,2.25 21.75,2.92157288 21.75,3.75 L21.75,20.25 C21.75,21.0784271 21.0784271,21.75 20.25,21.75 L3.75,21.75 C2.92157288,21.75 2.25,21.0784271 2.25,20.25 L2.25,3.75 C2.25,2.92157288 2.92157288,2.25 3.75,2.25 L20.25,2.25 Z M20.25,3.75 L3.75,3.75 L3.75,20.25 L20.25,20.25 L20.25,3.75 Z M8.25,12.75 C9.07842712,12.75 9.75,13.4215729 9.75,14.25 L9.75,15.75 C9.75,16.5784271 9.07842712,17.25 8.25,17.25 L6.75,17.25 C5.92157288,17.25 5.25,16.5784271 5.25,15.75 L5.25,14.25 C5.25,13.4215729 5.92157288,12.75 6.75,12.75 L8.25,12.75 Z M18.75,14.25 L18.75,15.75 L11.25,15.75 L11.25,14.25 L18.75,14.25 Z M8.25,14.25 L6.75,14.25 L6.75,15.75 L8.25,15.75 L8.25,14.25 Z M8.25,6.75 C9.07842712,6.75 9.75,7.42157288 9.75,8.25 L9.75,9.75 C9.75,10.5784271 9.07842712,11.25 8.25,11.25 L6.75,11.25 C5.92157288,11.25 5.25,10.5784271 5.25,9.75 L5.25,8.25 C5.25,7.42157288 5.92157288,6.75 6.75,6.75 L8.25,6.75 Z M18.75,8.25 L18.75,9.75 L11.25,9.75 L11.25,8.25 L18.75,8.25 Z M8.25,8.25 L6.75,8.25 L6.75,9.75 L8.25,9.75 L8.25,8.25 Z" id="icon-color" fill="#3D5466"></path>
    </g>
</svg>