<?xml version="1.0" encoding="UTF-8"?>
<svg width="16" height="16" viewBox="0 0 16 16" fill="none" xmlns="http://www.w3.org/2000/svg">
  <path fill-rule="evenodd" clip-rule="evenodd" d="M14 2C14 1.44772 13.5523 1 13 1H2C1.44772 1 1 1.44772 1 2V13C1 13.5523 1.44772 14 2 14H7V13H2V2H13V7H14V2ZM6.5 9C6.5 8.44772 6.05228 8 5.5 8H4C3.44772 8 3 8.44772 3 9V10.5C3 11.0523 3.44772 11.5 4 11.5H5.5C6.05228 11.5 6.5 11.0523 6.5 10.5V9ZM4 9H5.5V10.5H4V9ZM12 4.5C12 3.94772 11.5523 3.5 11 3.5H4C3.44772 3.5 3 3.94772 3 4.5V6C3 6.55228 3.44772 7 4 7H11C11.5523 7 12 6.55228 12 6V4.5ZM4 4.5H11V6H4V4.5ZM13.9702 13.0008C13.9801 13.0004 13.9901 13.0001 14 13H13.93C13.9434 13 13.9568 13.0003 13.9702 13.0008ZM13.745 13.035C13.8186 13.0154 13.8942 13.004 13.9702 13.0008C14.1539 13.0082 14.3323 13.0661 14.4856 13.1685C14.65 13.2784 14.7782 13.4346 14.8539 13.6173C14.9296 13.8 14.9494 14.0011 14.9108 14.1951C14.8722 14.3891 14.777 14.5673 14.6371 14.7071C14.4973 14.847 14.3191 14.9422 14.1251 14.9808C13.9311 15.0194 13.73 14.9996 13.5473 14.9239C13.3646 14.8482 13.2084 14.72 13.0985 14.5556C12.9886 14.3911 12.93 14.1978 12.93 14C12.9311 13.9139 12.9429 13.8282 12.965 13.745L12.465 13.215C12.1634 13.3977 11.8176 13.4943 11.465 13.4943C11.1124 13.4943 10.7666 13.3977 10.465 13.215L9.965 13.745C9.98713 13.8282 9.99889 13.9139 10 14C10 14.1978 9.94135 14.3911 9.83147 14.5556C9.72159 14.72 9.56541 14.8482 9.38268 14.9239C9.19996 14.9996 8.99889 15.0194 8.80491 14.9808C8.61093 14.9422 8.43274 14.847 8.29289 14.7071C8.15304 14.5673 8.0578 14.3891 8.01921 14.1951C7.98063 14.0011 8.00043 13.8 8.07612 13.6173C8.15181 13.4346 8.27998 13.2784 8.44443 13.1685C8.60888 13.0587 8.80222 13 9 13C9.0857 12.9978 9.17135 13.0062 9.255 13.025L9.785 12.5C9.60231 12.1984 9.50573 11.8526 9.50573 11.5C9.50573 11.1474 9.60231 10.8016 9.785 10.5L9.255 9.965C9.17177 9.98713 9.08612 9.99889 9 10C8.80222 10 8.60888 9.94135 8.44443 9.83147C8.27998 9.72159 8.15181 9.56542 8.07612 9.38269C8.00043 9.19997 7.98063 8.9989 8.01921 8.80492C8.0578 8.61094 8.15304 8.43275 8.29289 8.29289C8.43274 8.15304 8.61093 8.0578 8.80491 8.01921C8.99889 7.98063 9.19996 8.00044 9.38268 8.07613C9.56541 8.15182 9.72159 8.27998 9.83147 8.44443C9.94135 8.60888 10 8.80222 10 9C10.023 9.08647 10.0347 9.17553 10.035 9.265L10.535 9.795C10.8366 9.61231 11.1824 9.51573 11.535 9.51573C11.8876 9.51573 12.2334 9.61231 12.535 9.795L13.035 9.265C13.0129 9.18177 13.0011 9.09611 13 9.01C13 8.81222 13.0586 8.61889 13.1685 8.45444C13.2784 8.28999 13.4346 8.16181 13.6173 8.08612C13.8 8.01043 14.0011 7.99064 14.1951 8.02922C14.3891 8.06781 14.5673 8.16304 14.7071 8.30289C14.847 8.44274 14.9422 8.62093 14.9808 8.81491C15.0194 9.00889 14.9996 9.20996 14.9239 9.39269C14.8482 9.57541 14.72 9.7316 14.5556 9.84148C14.3911 9.95136 14.1978 10.01 14 10.01C13.9139 10.0089 13.8282 9.99714 13.745 9.97501L13.215 10.5C13.3977 10.8016 13.4943 11.1474 13.4943 11.5C13.4943 11.8526 13.3977 12.1984 13.215 12.5L13.745 13.035ZM10.6685 10.9444C10.5586 11.1089 10.5 11.3022 10.5 11.5C10.5 11.7652 10.6054 12.0196 10.7929 12.2071C10.9804 12.3946 11.2348 12.5 11.5 12.5C11.6978 12.5 11.8911 12.4413 12.0556 12.3315C12.22 12.2216 12.3482 12.0654 12.4239 11.8827C12.4996 11.7 12.5194 11.4989 12.4808 11.3049C12.4422 11.1109 12.347 10.9327 12.2071 10.7929C12.0673 10.653 11.8891 10.5578 11.6951 10.5192C11.5011 10.4806 11.3 10.5004 11.1173 10.5761C10.9346 10.6518 10.7784 10.78 10.6685 10.9444Z" fill="black"/>
</svg>
