<?xml version="1.0" encoding="UTF-8"?>
<svg width="36" height="36" viewBox="0 0 36 36" fill="none" xmlns="http://www.w3.org/2000/svg">
  <path fill-rule="evenodd" clip-rule="evenodd" d="M31.5 4.5C31.5 3.25736 30.4926 2.25 29.25 2.25H4.5C3.25736 2.25 2.25 3.25736 2.25 4.5V29.25C2.25 30.4926 3.25736 31.5 4.5 31.5H15.75V29.25H4.5V4.5H29.25V15.75H31.5V4.5ZM14.625 20.25C14.625 19.0074 13.6176 18 12.375 18H9C7.75736 18 6.75 19.0074 6.75 20.25V23.625C6.75 24.8676 7.75736 25.875 9 25.875H12.375C13.6176 25.875 14.625 24.8676 14.625 23.625V20.25ZM9 20.25H12.375V23.625H9V20.25ZM27 10.125C27 8.88236 25.9926 7.875 24.75 7.875H9C7.75736 7.875 6.75 8.88236 6.75 10.125V13.5C6.75 14.7426 7.75736 15.75 9 15.75H24.75C25.9926 15.75 27 14.7426 27 13.5V10.125ZM9 10.125H24.75V13.5H9V10.125ZM31.433 29.2518C31.4553 29.2509 31.4777 29.2503 31.5 29.25H31.3425C31.3727 29.25 31.4029 29.2506 31.433 29.2518ZM30.9262 29.3288C31.0919 29.2847 31.2619 29.2589 31.433 29.2518C31.8463 29.2685 32.2477 29.3988 32.5925 29.6292C32.9625 29.8764 33.2509 30.2278 33.4212 30.639C33.5915 31.0501 33.6361 31.5025 33.5493 31.9389C33.4625 32.3754 33.2482 32.7763 32.9335 33.091C32.6188 33.4057 32.2179 33.62 31.7815 33.7068C31.345 33.7936 30.8926 33.749 30.4815 33.5787C30.0703 33.4084 29.7189 33.1201 29.4717 32.75C29.2245 32.38 29.0925 31.945 29.0925 31.5C29.095 31.3062 29.1215 31.1135 29.1712 30.9262L28.0462 29.7337C27.3677 30.1448 26.5896 30.3621 25.7962 30.3621C25.0029 30.3621 24.2248 30.1448 23.5462 29.7337L22.4212 30.9262C22.471 31.1135 22.4975 31.3062 22.5 31.5C22.5 31.945 22.368 32.38 22.1208 32.75C21.8736 33.1201 21.5222 33.4084 21.111 33.5787C20.6999 33.749 20.2475 33.7936 19.811 33.7068C19.3746 33.62 18.9737 33.4057 18.659 33.091C18.3443 32.7763 18.1301 32.3754 18.0432 31.9389C17.9564 31.5025 18.001 31.0501 18.1713 30.639C18.3416 30.2278 18.63 29.8764 19 29.6292C19.37 29.382 19.805 29.25 20.25 29.25C20.4428 29.2451 20.6355 29.264 20.8238 29.3062L22.0163 28.125C21.6052 27.4465 21.3879 26.6683 21.3879 25.875C21.3879 25.0817 21.6052 24.3035 22.0163 23.625L20.8238 22.4212C20.6365 22.471 20.4438 22.4975 20.25 22.5C19.805 22.5 19.37 22.368 19 22.1208C18.63 21.8736 18.3416 21.5222 18.1713 21.1111C18.001 20.6999 17.9564 20.2475 18.0432 19.8111C18.1301 19.3746 18.3443 18.9737 18.659 18.659C18.9737 18.3443 19.3746 18.13 19.811 18.0432C20.2475 17.9564 20.6999 18.001 21.111 18.1713C21.5222 18.3416 21.8736 18.63 22.1208 19C22.368 19.37 22.5 19.805 22.5 20.25C22.5517 20.4446 22.5781 20.645 22.5788 20.8463L23.7038 22.0387C24.3823 21.6277 25.1604 21.4104 25.9538 21.4104C26.7471 21.4104 27.5252 21.6277 28.2038 22.0387L29.3288 20.8463C29.279 20.659 29.2525 20.4663 29.25 20.2725C29.25 19.8275 29.382 19.3925 29.6292 19.0225C29.8764 18.6525 30.2278 18.3641 30.639 18.1938C31.0501 18.0235 31.5025 17.9789 31.939 18.0658C32.3754 18.1526 32.7763 18.3668 33.091 18.6815C33.4057 18.9962 33.6199 19.3971 33.7068 19.8336C33.7936 20.27 33.749 20.7224 33.5787 21.1335C33.4084 21.5447 33.12 21.8961 32.75 22.1433C32.38 22.3906 31.945 22.5225 31.5 22.5225C31.3062 22.52 31.1135 22.4936 30.9262 22.4438L29.7337 23.625C30.1448 24.3035 30.3621 25.0817 30.3621 25.875C30.3621 26.6683 30.1448 27.4465 29.7337 28.125L30.9262 29.3288ZM24.0042 24.625C23.757 24.995 23.625 25.43 23.625 25.875C23.625 26.4717 23.8621 27.044 24.284 27.466C24.706 27.888 25.2783 28.125 25.875 28.125C26.32 28.125 26.755 27.993 27.125 27.7458C27.495 27.4986 27.7834 27.1472 27.9537 26.7361C28.124 26.3249 28.1686 25.8725 28.0818 25.4361C27.995 24.9996 27.7807 24.5987 27.466 24.284C27.1513 23.9693 26.7504 23.755 26.314 23.6682C25.8775 23.5814 25.4251 23.626 25.014 23.7963C24.6028 23.9666 24.2514 24.255 24.0042 24.625Z" fill="black"/>
</svg>
