<svg width="16" height="16" viewBox="0 0 16 16" fill="none" xmlns="http://www.w3.org/2000/svg">
<path d="M12 11.5C12.2761 11.5 12.5 11.7239 12.5 12C12.5 12.2455 12.3231 12.4496 12.0899 12.4919L12 12.5H8.5C8.22386 12.5 8 12.2761 8 12C8 11.7545 8.17688 11.5504 8.41012 11.5081L8.5 11.5H12Z" fill="black"/>
<path fill-rule="evenodd" clip-rule="evenodd" d="M11.5 7.5C12.0523 7.5 12.5 7.94772 12.5 8.5V9.5C12.5 10.0523 12.0523 10.5 11.5 10.5H4.5C3.94772 10.5 3.5 10.0523 3.5 9.5V8.5C3.5 7.94772 3.94772 7.5 4.5 7.5H11.5ZM11.5 8.5H4.5V9.5H11.5V8.5Z" fill="black"/>
<path fill-rule="evenodd" clip-rule="evenodd" d="M11.5 3.5C12.0523 3.5 12.5 3.94772 12.5 4.5V5.5C12.5 6.05228 12.0523 6.5 11.5 6.5H4.5C3.94772 6.5 3.5 6.05228 3.5 5.5V4.5C3.5 3.94772 3.94772 3.5 4.5 3.5H11.5ZM11.5 4.5H4.5V5.5H11.5V4.5Z" fill="black"/>
<path fill-rule="evenodd" clip-rule="evenodd" d="M13.5 1.5C14.0523 1.5 14.5 1.94772 14.5 2.5V13.5C14.5 14.0523 14.0523 14.5 13.5 14.5H2.5C1.94772 14.5 1.5 14.0523 1.5 13.5V2.5C1.5 1.94772 1.94772 1.5 2.5 1.5H13.5ZM13.5 2.5H2.5V13.5H13.5V2.5Z" fill="black"/>
</svg>
