<svg width="32" height="32" viewBox="0 0 32 32" fill="none" xmlns="http://www.w3.org/2000/svg">
<path d="M24 23C24.5523 23 25 23.4477 25 24C25 24.4909 24.6462 24.8992 24.1798 24.9839L24 25H17C16.4477 25 16 24.5523 16 24C16 23.5091 16.3538 23.1008 16.8202 23.0161L17 23H24Z" fill="black"/>
<path fill-rule="evenodd" clip-rule="evenodd" d="M23 15C24.1046 15 25 15.8954 25 17V19C25 20.1046 24.1046 21 23 21H9C7.89543 21 7 20.1046 7 19V17C7 15.8954 7.89543 15 9 15H23ZM23 17H9V19H23V17Z" fill="black"/>
<path fill-rule="evenodd" clip-rule="evenodd" d="M23 7C24.1046 7 25 7.89543 25 9V11C25 12.1046 24.1046 13 23 13H9C7.89543 13 7 12.1046 7 11V9C7 7.89543 7.89543 7 9 7H23ZM23 9H9V11H23V9Z" fill="black"/>
<path fill-rule="evenodd" clip-rule="evenodd" d="M27 3C28.1046 3 29 3.89543 29 5V27C29 28.1046 28.1046 29 27 29H5C3.89543 29 3 28.1046 3 27V5C3 3.89543 3.89543 3 5 3H27ZM27 5H5V27H27V5Z" fill="black"/>
</svg>
