<svg width="24" height="24" viewBox="0 0 24 24" fill="none" xmlns="http://www.w3.org/2000/svg">
<path d="M18.75 9H15V10.5H18.75C18.9489 10.5002 19.1395 10.5792 19.2802 10.7198C19.4208 10.8605 19.4998 11.0511 19.5 11.25V12.75H16.5C15.9035 12.7507 15.3315 12.9879 14.9097 13.4097C14.4879 13.8315 14.2507 14.4035 14.25 15V15.75C14.2507 16.3465 14.4879 16.9185 14.9097 17.3403C15.3315 17.7621 15.9035 17.9993 16.5 18H21V11.25C20.9993 10.6535 20.7621 10.0815 20.3403 9.65973C19.9185 9.23792 19.3465 9.00066 18.75 9ZM16.5 16.5C16.3011 16.4998 16.1105 16.4208 15.9698 16.2802C15.8292 16.1395 15.7502 15.9489 15.75 15.75V15C15.7502 14.8011 15.8292 14.6105 15.9698 14.4698C16.1105 14.3292 16.3011 14.2502 16.5 14.25H19.5V16.5H16.5ZM12 18H13.5L9 5.25H7.5L3 18H4.5L5.7702 14.25H10.7303L12 18ZM6.27833 12.75L8.15077 7.22167L8.35087 7.22205L10.2225 12.75H6.27833Z" fill="black"/>
</svg>
