<svg width="16" height="16" viewBox="0 0 16 16" fill="none" xmlns="http://www.w3.org/2000/svg">
<path d="M9 1H3C2.73478 1 2.48044 1.10537 2.29291 1.29291C2.10537 1.48044 2 1.73478 2 2V14C2 14.2652 2.10537 14.5196 2.29291 14.7071C2.48044 14.8946 2.73478 15 3 15H9C9.26522 15 9.51956 14.8946 9.70709 14.7071C9.89463 14.5196 10 14.2652 10 14V12.5H9V14H3V2H9V3.5H10V2C10 1.73478 9.89463 1.48044 9.70709 1.29291C9.51956 1.10537 9.26522 1 9 1Z" fill="black"/>
<path d="M6.915 8.5L8.705 10.295L8 11L5 8L8 5L8.705 5.705L6.915 7.5H14V8.5H6.915Z" fill="black"/>
</svg>
