<svg width="24" height="24" viewBox="0 0 24 24" fill="none" xmlns="http://www.w3.org/2000/svg">
<path d="M13.5 1.5H4.5C4.10218 1.5 3.72067 1.65806 3.43936 1.93936C3.15806 2.22067 3 2.60218 3 3V21C3 21.3978 3.15806 21.7793 3.43936 22.0606C3.72067 22.3419 4.10218 22.5 4.5 22.5H13.5C13.8978 22.5 14.2793 22.3419 14.5606 22.0606C14.8419 21.7793 15 21.3978 15 21V18.75H13.5V21H4.5V3H13.5V5.25H15V3C15 2.60218 14.8419 2.22067 14.5606 1.93936C14.2793 1.65806 13.8978 1.5 13.5 1.5Z" fill="black"/>
<path d="M10.3725 12.75L13.0575 15.4425L12 16.5L7.5 12L12 7.5L13.0575 8.5575L10.3725 11.25H21V12.75H10.3725Z" fill="black"/>
</svg>
