<svg width="32" height="32" viewBox="0 0 32 32" fill="none" xmlns="http://www.w3.org/2000/svg">
<path d="M18 2H6C5.46957 2 4.96089 2.21074 4.58582 2.58582C4.21074 2.96089 4 3.46957 4 4V28C4 28.5304 4.21074 29.0391 4.58582 29.4142C4.96089 29.7893 5.46957 30 6 30H18C18.5304 30 19.0391 29.7893 19.4142 29.4142C19.7893 29.0391 20 28.5304 20 28V25H18V28H6V4H18V7H20V4C20 3.46957 19.7893 2.96089 19.4142 2.58582C19.0391 2.21074 18.5304 2 18 2Z" fill="black"/>
<path d="M13.83 17L17.41 20.59L16 22L10 16L16 10L17.41 11.41L13.83 15H28V17H13.83Z" fill="black"/>
</svg>
